<?xml version="1.0" encoding="UTF-8" standalone="no"?>
<!DOCTYPE svg PUBLIC "-//W3C//DTD SVG 1.1//EN" "http://www.w3.org/Graphics/SVG/1.1/DTD/svg11.dtd">
<!-- 由 Microsoft Visio, SVG Export 生成 clkmux1.svg 页-1 -->
<svg xmlns="http://www.w3.org/2000/svg" xmlns:xlink="http://www.w3.org/1999/xlink" xmlns:ev="http://www.w3.org/2001/xml-events"
		xmlns:v="http://schemas.microsoft.com/visio/2003/SVGExtensions/" width="2.88113in" height="1.40619in"
		viewBox="0 0 207.441 101.246" xml:space="preserve" color-interpolation-filters="sRGB" class="st7">
	<v:documentProperties v:langID="2052" v:metric="true" v:viewMarkup="false"/>

	<style type="text/css">
	<![CDATA[
		.st1 {fill:#ffffff;stroke:#ff0000;stroke-dasharray:5.25,3.75,0,3.75,0,3.75;stroke-linecap:round;stroke-linejoin:round;stroke-width:0.75}
		.st2 {stroke:#000000;stroke-linecap:round;stroke-linejoin:round;stroke-width:0.24}
		.st3 {fill:#ffffff;stroke:#000000;stroke-linecap:round;stroke-linejoin:round;stroke-width:0.24}
		.st4 {fill:#000000;font-family:YaHei Consolas Hybrid;font-size:0.75em}
		.st5 {font-size:1em}
		.st6 {fill:none;stroke:none;stroke-linecap:round;stroke-linejoin:round;stroke-width:0.75}
		.st7 {fill:none;fill-rule:evenodd;font-size:12px;overflow:visible;stroke-linecap:square;stroke-miterlimit:3}
	]]>
	</style>

	<g v:mID="0" v:index="1" v:groupContext="foregroundPage">
		<title>页-1</title>
		<v:pageProperties v:drawingScale="0.0393701" v:pageScale="0.0393701" v:drawingUnits="24" v:shadowOffsetX="8.50394"
				v:shadowOffsetY="-8.50394"/>
		<v:layer v:name="电气" v:index="0"/>
		<v:layer v:name="连接线" v:index="1"/>
		<g id="shape61-1" v:mID="61" v:groupContext="shape" transform="translate(39.4984,-0.375)">
			<title>工作表.61</title>
			<path d="M0 101.25 L122.46 101.25 L122.46 10.54 L0 10.54 L0 101.25 Z" class="st1"/>
		</g>
		<g id="group19-3" transform="translate(128.801,-36.855)" v:mID="19" v:groupContext="group" v:layerMember="0">
			<v:custProps>
				<v:cp v:nameU="Input" v:lbl="输入数目" v:type="1" v:format="2;3;4;5" v:sortKey="2" v:langID="2052" v:val="VT4(2)"/>
				<v:cp v:nameU="Type" v:lbl="门类型" v:type="1" v:format="OR;AND;NOR;NAND;XOR;XNOR" v:sortKey="1" v:langID="1033"
						v:val="VT4(XOR)"/>
				<v:cp v:nameU="Out" v:lbl="输出数目" v:type="1" v:format="1;2;3" v:sortKey="3" v:langID="2052" v:val="VT4(1)"/>
				<v:cp v:nameU="Type" v:lbl="" v:prompt="" v:type="0" v:format="" v:sortKey="" v:invis="false" v:ask="false"
						v:langID="0" v:cal="0" v:val="VT4(OR)"/>
			</v:custProps>
			<v:userDefs>
				<v:ud v:nameU="SubType" v:val="VT0(4):26"/>
				<v:ud v:nameU="Margin" v:val="VT0(0.059055118110236):24"/>
				<v:ud v:nameU="LimitHeight" v:val="VT0(0):26"/>
				<v:ud v:nameU="visVersion" v:val="VT0(14):26"/>
				<v:ud v:nameU="visDescription" v:val="VT4(表示各种形式的逻辑门。)"/>
				<v:ud v:nameU="SubType" v:prompt="" v:val="VT0(0):26"/>
			</v:userDefs>
			<title>工作表.19</title>
			<g id="shape20-4" v:mID="20" v:groupContext="shape" v:layerMember="0" transform="translate(0,-4.25197)">
				<title>工作表.20</title>
				<path d="M0 92.74 L17.01 92.74" class="st2"/>
				<path d="M0 101.25 L17.01 101.25" class="st2"/>
				<path d="M34.02 96.99 L17.01 96.99" class="st2"/>
			</g>
			<g id="shape21-9" v:mID="21" v:groupContext="shape" v:layerMember="0" transform="translate(5.95276,0)">
				<title>工作表.21</title>
				<v:userDefs>
					<v:ud v:nameU="X" v:val="VT0(0.029527559055118):24"/>
				</v:userDefs>
				<path d="M22.11 92.74 A22.9017 14.031 0 0 1 6.63 101.25 L0 101.25 A32.8126 20.103 -180 0 0 -0 84.24 L6.63 84.24 A22.5949
							 13.8431 0 0 1 22.11 92.74 Z" class="st3"/>
			</g>
			<g id="shape22-11" v:mID="22" v:groupContext="shape" v:layerMember="0" transform="translate(0,2.83465)">
				<title>工作表.22</title>
			</g>
			<g id="shape23-13" v:mID="23" v:groupContext="shape" v:layerMember="0" transform="translate(23.0309,-2.13696)">
				<title>工作表.23</title>
			</g>
			<g id="shape24-15" v:mID="24" v:groupContext="shape" v:layerMember="0" transform="translate(5.95276,0)">
				<title>工作表.24</title>
			</g>
		</g>
		<g id="group25-17" transform="translate(67.0056,-17.0124)" v:mID="25" v:groupContext="group" v:layerMember="0">
			<v:custProps>
				<v:cp v:nameU="Input" v:lbl="输入数目" v:type="1" v:format="2;3;4;5" v:sortKey="2" v:langID="2052" v:val="VT4(2)"/>
				<v:cp v:nameU="Type" v:lbl="门类型" v:type="1" v:format="OR;AND;NOR;NAND;XOR;XNOR" v:sortKey="1" v:langID="1033"
						v:val="VT4(XOR)"/>
				<v:cp v:nameU="Out" v:lbl="输出数目" v:type="1" v:format="1;2;3" v:sortKey="3" v:langID="2052" v:val="VT4(1)"/>
				<v:cp v:nameU="Type" v:lbl="" v:prompt="" v:type="0" v:format="" v:sortKey="" v:invis="false" v:ask="false"
						v:langID="0" v:cal="0" v:val="VT4(AND)"/>
			</v:custProps>
			<v:userDefs>
				<v:ud v:nameU="SubType" v:val="VT0(4):26"/>
				<v:ud v:nameU="Margin" v:val="VT0(0.059055118110236):24"/>
				<v:ud v:nameU="LimitHeight" v:val="VT0(0):26"/>
				<v:ud v:nameU="visVersion" v:val="VT0(14):26"/>
				<v:ud v:nameU="visDescription" v:val="VT4(表示各种形式的逻辑门。)"/>
				<v:ud v:nameU="SubType" v:prompt="" v:val="VT0(1):26"/>
			</v:userDefs>
			<title>工作表.25</title>
			<g id="shape26-18" v:mID="26" v:groupContext="shape" v:layerMember="0" transform="translate(0,-4.25197)">
				<title>工作表.26</title>
				<path d="M0 92.74 L17.01 92.74" class="st2"/>
				<path d="M0 101.25 L17.01 101.25" class="st2"/>
				<path d="M34.02 96.99 L17.01 96.99" class="st2"/>
			</g>
			<g id="shape27-23" v:mID="27" v:groupContext="shape" v:layerMember="0" transform="translate(5.95276,0)">
				<title>工作表.27</title>
				<v:userDefs>
					<v:ud v:nameU="X" v:val="VT0(0.029527559055118):24"/>
				</v:userDefs>
				<path d="M22.11 92.74 A22.9017 14.031 0 0 1 6.63 101.25 L0 101.25 A32.8126 20.103 -180 0 0 -0 84.24 L6.63 84.24 A22.5949
							 13.8431 0 0 1 22.11 92.74 Z" class="st3"/>
			</g>
			<g id="shape28-25" v:mID="28" v:groupContext="shape" v:layerMember="0" transform="translate(0,2.83465)">
				<title>工作表.28</title>
			</g>
			<g id="shape29-27" v:mID="29" v:groupContext="shape" v:layerMember="0" transform="translate(23.0309,-2.13696)">
				<title>工作表.29</title>
			</g>
			<g id="shape30-29" v:mID="30" v:groupContext="shape" v:layerMember="0" transform="translate(5.95276,0)">
				<title>工作表.30</title>
				<path d="M13.61 101.25 L0 101.25 L0 84.24 L13.61 84.24 A8.50394 8.50394 0 0 1 13.61 101.25 Z" class="st3"/>
			</g>
		</g>
		<g id="group31-31" transform="translate(67.0056,-55.2802)" v:mID="31" v:groupContext="group" v:layerMember="0">
			<v:custProps>
				<v:cp v:nameU="Input" v:lbl="输入数目" v:type="1" v:format="2;3;4;5" v:sortKey="2" v:langID="2052" v:val="VT4(2)"/>
				<v:cp v:nameU="Type" v:lbl="门类型" v:type="1" v:format="OR;AND;NOR;NAND;XOR;XNOR" v:sortKey="1" v:langID="1033"
						v:val="VT4(XOR)"/>
				<v:cp v:nameU="Out" v:lbl="输出数目" v:type="1" v:format="1;2;3" v:sortKey="3" v:langID="2052" v:val="VT4(1)"/>
				<v:cp v:nameU="Type" v:lbl="" v:prompt="" v:type="0" v:format="" v:sortKey="" v:invis="false" v:ask="false"
						v:langID="0" v:cal="0" v:val="VT4(AND)"/>
			</v:custProps>
			<v:userDefs>
				<v:ud v:nameU="SubType" v:val="VT0(4):26"/>
				<v:ud v:nameU="Margin" v:val="VT0(0.059055118110236):24"/>
				<v:ud v:nameU="LimitHeight" v:val="VT0(0):26"/>
				<v:ud v:nameU="visVersion" v:val="VT0(14):26"/>
				<v:ud v:nameU="visDescription" v:val="VT4(表示各种形式的逻辑门。)"/>
				<v:ud v:nameU="SubType" v:prompt="" v:val="VT0(1):26"/>
			</v:userDefs>
			<title>工作表.31</title>
			<g id="shape32-32" v:mID="32" v:groupContext="shape" v:layerMember="0" transform="translate(0,-4.25197)">
				<title>工作表.32</title>
				<path d="M0 92.74 L17.01 92.74" class="st2"/>
				<path d="M0 101.25 L17.01 101.25" class="st2"/>
				<path d="M34.02 96.99 L17.01 96.99" class="st2"/>
			</g>
			<g id="shape33-37" v:mID="33" v:groupContext="shape" v:layerMember="0" transform="translate(5.95276,0)">
				<title>工作表.33</title>
				<v:userDefs>
					<v:ud v:nameU="X" v:val="VT0(0.029527559055118):24"/>
				</v:userDefs>
				<path d="M22.11 92.74 A22.9017 14.031 0 0 1 6.63 101.25 L0 101.25 A32.8126 20.103 -180 0 0 -0 84.24 L6.63 84.24 A22.5949
							 13.8431 0 0 1 22.11 92.74 Z" class="st3"/>
			</g>
			<g id="shape34-39" v:mID="34" v:groupContext="shape" v:layerMember="0" transform="translate(0,2.83465)">
				<title>工作表.34</title>
			</g>
			<g id="shape35-41" v:mID="35" v:groupContext="shape" v:layerMember="0" transform="translate(23.0309,-2.13696)">
				<title>工作表.35</title>
			</g>
			<g id="shape36-43" v:mID="36" v:groupContext="shape" v:layerMember="0" transform="translate(5.95276,0)">
				<title>工作表.36</title>
				<path d="M13.61 101.25 L0 101.25 L0 84.24 L13.61 84.24 A8.50394 8.50394 0 0 1 13.61 101.25 Z" class="st3"/>
			</g>
		</g>
		<g id="shape38-45" v:mID="38" v:groupContext="shape" v:layerMember="1" transform="translate(101.021,-63.7841)">
			<title>动态连接线.38</title>
			<path d="M0 101.25 L10.63 101.25 L10.63 115.42 L27.78 115.42" class="st2"/>
		</g>
		<g id="shape39-48" v:mID="39" v:groupContext="shape" v:layerMember="1" transform="translate(101.021,-25.5164)">
			<title>动态连接线.39</title>
			<path d="M0 101.25 L10.63 101.25 L10.63 85.66 L27.78 85.66" class="st2"/>
		</g>
		<g id="shape40-51" v:mID="40" v:groupContext="shape" v:layerMember="0" transform="translate(2.74248,-27.1978)">
			<title>工作表.40</title>
			<desc>sel</desc>
			<v:userDefs>
				<v:ud v:nameU="Form" v:val="VT0(0):26"/>
				<v:ud v:nameU="visVersion" v:val="VT0(14):26"/>
				<v:ud v:nameU="visDescription" v:val="VT4(单向或双向输入/输出端口。 )"/>
			</v:userDefs>
			<v:textBlock v:margins="rect(1,1,1,1)" v:tabSpace="42.5197" v:verticalAlign="0"/>
			<v:textRect cx="10.6299" cy="89.5291" width="21.8" height="12.8036"/>
			<path d="M0 98.59 L0 95.93 L15.94 95.93 L21.26 98.59 L15.94 101.25 L0 101.25 L0 98.59 Z" class="st3"/>
			<text x="3.21" y="92.23" class="st4" v:langID="1033"><v:paragraph v:horizAlign="1"/><v:tabList/>sel</text>		</g>
		<g id="shape41-54" v:mID="41" v:groupContext="shape" v:layerMember="1" transform="translate(46.6795,-48.804)">
			<title>动态连接线.41</title>
			<path d="M0 97.8 L0 90.52 L20.33 90.52" class="st2"/>
		</g>
		<g id="shape42-57" v:mID="42" v:groupContext="shape" v:layerMember="1" transform="translate(24.0023,-36.8984)">
			<title>动态连接线.42</title>
			<path d="M0 108.29 L43 108.38" class="st2"/>
		</g>
		<g id="shape43-60" v:mID="43" v:groupContext="shape" v:layerMember="0" transform="translate(2.74248,-3.01637)">
			<title>工作表.43</title>
			<desc>clk1</desc>
			<v:userDefs>
				<v:ud v:nameU="Form" v:val="VT0(0):26"/>
				<v:ud v:nameU="visVersion" v:val="VT0(14):26"/>
				<v:ud v:nameU="visDescription" v:val="VT4(单向或双向输入/输出端口。 )"/>
			</v:userDefs>
			<v:textBlock v:margins="rect(1,1,1,1)" v:tabSpace="42.5197" v:verticalAlign="0"/>
			<v:textRect cx="10.6299" cy="89.5291" width="26.75" height="12.8036"/>
			<path d="M0 98.59 L0 95.93 L15.94 95.93 L21.26 98.59 L15.94 101.25 L0 101.25 L0 98.59 Z" class="st3"/>
			<text x="0.73" y="92.23" class="st4" v:langID="2052"><v:paragraph v:horizAlign="1"/><v:tabList/>clk<tspan class="st5"
						v:langID="1033">1</tspan></text>		</g>
		<g id="shape44-64" v:mID="44" v:groupContext="shape" v:layerMember="0" transform="translate(2.74248,-83.1273)">
			<title>工作表.44</title>
			<desc>clk0</desc>
			<v:userDefs>
				<v:ud v:nameU="Form" v:val="VT0(0):26"/>
				<v:ud v:nameU="visVersion" v:val="VT0(14):26"/>
				<v:ud v:nameU="visDescription" v:val="VT4(单向或双向输入/输出端口。 )"/>
			</v:userDefs>
			<v:textBlock v:margins="rect(1,1,1,1)" v:tabSpace="42.5197" v:verticalAlign="0"/>
			<v:textRect cx="10.6299" cy="89.5291" width="26.75" height="12.8036"/>
			<path d="M0 98.59 L0 95.93 L15.94 95.93 L21.26 98.59 L15.94 101.25 L0 101.25 L0 98.59 Z" class="st3"/>
			<text x="0.73" y="92.23" class="st4" v:langID="2052"><v:paragraph v:horizAlign="1"/><v:tabList/>clk<tspan class="st5"
						v:langID="1033">0</tspan></text>		</g>
		<g id="shape45-68" v:mID="45" v:groupContext="shape" v:layerMember="1" transform="translate(24.0023,-85.7848)">
			<title>动态连接线.45</title>
			<path d="M0 101.25 L5.31 101.25 L5.31 118.99 L43 118.99" class="st2"/>
		</g>
		<g id="shape46-71" v:mID="46" v:groupContext="shape" v:layerMember="1" transform="translate(24.0023,-5.67385)">
			<title>动态连接线.46</title>
			<path d="M0 101.25 L5.31 101.25 L5.31 85.66 L43 85.66" class="st2"/>
		</g>
		<g id="shape47-74" v:mID="47" v:groupContext="shape" v:layerMember="0" transform="translate(178.491,-42.7014)">
			<title>工作表.47</title>
			<desc>clkout</desc>
			<v:userDefs>
				<v:ud v:nameU="Form" v:val="VT0(0):26"/>
				<v:ud v:nameU="visVersion" v:val="VT0(14):26"/>
				<v:ud v:nameU="visDescription" v:val="VT4(单向或双向输入/输出端口。 )"/>
			</v:userDefs>
			<v:textBlock v:margins="rect(1,1,1,1)" v:tabSpace="42.5197" v:verticalAlign="0"/>
			<v:textRect cx="10.6299" cy="89.5291" width="36.65" height="12.8036"/>
			<path d="M0 98.59 L0 95.93 L15.94 95.93 L21.26 98.59 L15.94 101.25 L0 101.25 L0 98.59 Z" class="st3"/>
			<text x="-4.21" y="92.23" class="st4" v:langID="2052"><v:paragraph v:horizAlign="1"/><v:tabList/>clk<tspan class="st5"
						v:langID="1033">out</tspan></text>		</g>
		<g id="shape48-78" v:mID="48" v:groupContext="shape" v:layerMember="1" transform="translate(162.817,-38.2723)">
			<title>动态连接线.48</title>
			<path d="M0 94.16 L15.67 94.16" class="st2"/>
		</g>
		<g id="group55-81" transform="translate(-48.8971,61.1858) rotate(-90)" v:mID="55" v:groupContext="group" v:layerMember="0">
			<v:userDefs>
				<v:ud v:nameU="Form" v:val="VT0(0):26"/>
				<v:ud v:nameU="visDescription" v:val="VT4(表示反相器。)"/>
				<v:ud v:nameU="visVersion" v:val="VT0(15):26"/>
			</v:userDefs>
			<title>反相器</title>
			<g id="shape56-82" v:mID="56" v:groupContext="shape" v:layerMember="0"
					transform="translate(71.1676,18.8537) rotate(45)">
				<title>工作表.56</title>
			</g>
			<g id="shape57-84" v:mID="57" v:groupContext="shape" v:layerMember="0">
				<title>工作表.57</title>
				<desc>1</desc>
				<v:textBlock v:margins="rect(1,1,1,1)" v:tabSpace="42.5197" v:verticalAlign="0"/>
				<v:textRect cx="5.66929" cy="92.742" width="11.34" height="12.8036"/>
				<path d="M11.34 95.58 a0.850394 0.850394 -180 1 0 1.70079 1.42109E-014 a0.850394 0.850394 -180 0 0 -1.70079 0 ZM0
							 89.91 L11.34 95.58 L0 101.25 L0 89.91 Z" class="st3"/>
			</g>
		</g>
		<g id="shape58-86" v:mID="58" v:groupContext="shape" v:layerMember="1" transform="translate(24.0023,-27.8711)">
			<title>动态连接线.58</title>
			<path d="M0 99.26 L22.68 99.26 L22.68 89.06" class="st2"/>
		</g>
		<g id="shape59-89" v:mID="59" v:groupContext="shape" transform="translate(56.6008,-44.8355)">
			<title>工作表.59</title>
			<desc>G0</desc>
			<v:textBlock v:margins="rect(4,4,4,4)" v:tabSpace="42.5197"/>
			<v:textRect cx="10.6299" cy="92.742" width="21.26" height="17.0079"/>
			<rect x="0" y="84.238" width="21.2598" height="17.0079" class="st6"/>
			<text x="5.68" y="95.44" class="st4" v:langID="1033"><v:paragraph v:horizAlign="1"/><v:tabList/>G0</text>		</g>
		<g id="shape60-92" v:mID="60" v:groupContext="shape" transform="translate(58.0181,-25.8868)">
			<title>工作表.60</title>
			<desc>G1</desc>
			<v:textBlock v:margins="rect(4,4,4,4)" v:tabSpace="42.5197"/>
			<v:textRect cx="10.6299" cy="92.742" width="21.26" height="17.0079"/>
			<rect x="0" y="84.238" width="21.2598" height="17.0079" class="st6"/>
			<text x="5.68" y="95.44" class="st4" v:langID="1033"><v:paragraph v:horizAlign="1"/><v:tabList/>G1</text>		</g>
	</g>
</svg>
