<?xml version="1.0" encoding="UTF-8" standalone="no"?>
<!DOCTYPE svg PUBLIC "-//W3C//DTD SVG 1.1//EN" "http://www.w3.org/Graphics/SVG/1.1/DTD/svg11.dtd">
<!-- 由 Microsoft Visio, SVG Export 生成 clkmux5.svg 页-1 -->
<svg xmlns="http://www.w3.org/2000/svg" xmlns:xlink="http://www.w3.org/1999/xlink" xmlns:ev="http://www.w3.org/2001/xml-events"
		xmlns:v="http://schemas.microsoft.com/visio/2003/SVGExtensions/" width="6.15023in" height="1.98466in"
		viewBox="0 0 442.816 142.896" xml:space="preserve" color-interpolation-filters="sRGB" class="st9">
	<v:documentProperties v:langID="2052" v:metric="true" v:viewMarkup="false"/>

	<style type="text/css">
	<![CDATA[
		.st1 {fill:#ffffff;stroke:#ff0000;stroke-dasharray:5.25,3.75,0,3.75,0,3.75;stroke-linecap:round;stroke-linejoin:round;stroke-width:0.75}
		.st2 {fill:none;stroke:none;stroke-linecap:round;stroke-linejoin:round;stroke-width:0.75}
		.st3 {fill:#000000;font-family:YaHei Consolas Hybrid;font-size:0.75em}
		.st4 {stroke:#000000;stroke-linecap:round;stroke-linejoin:round;stroke-width:0.24}
		.st5 {fill:#ffffff;stroke:#000000;stroke-linecap:round;stroke-linejoin:round;stroke-width:0.24}
		.st6 {stroke:#002060;stroke-linecap:round;stroke-linejoin:round;stroke-width:0.24}
		.st7 {stroke:#923931;stroke-linecap:round;stroke-linejoin:round;stroke-width:0.24}
		.st8 {font-size:1em}
		.st9 {fill:none;fill-rule:evenodd;font-size:12px;overflow:visible;stroke-linecap:square;stroke-miterlimit:3}
	]]>
	</style>

	<g v:mID="0" v:index="1" v:groupContext="foregroundPage">
		<title>页-1</title>
		<v:pageProperties v:drawingScale="0.0393701" v:pageScale="0.0393701" v:drawingUnits="24" v:shadowOffsetX="8.50394"
				v:shadowOffsetY="-8.50394"/>
		<v:layer v:name="电气" v:index="0"/>
		<v:layer v:name="连接线" v:index="1"/>
		<g id="shape242-1" v:mID="242" v:groupContext="shape" transform="translate(45.1978,-25.8868)">
			<title>工作表.242</title>
			<path d="M0 142.9 L177.56 142.9 L177.56 60.28 L0 60.28 L0 142.9 Z" class="st1"/>
		</g>
		<g id="shape241-3" v:mID="241" v:groupContext="shape" transform="translate(209.147,-76.9104)">
			<title>工作表.241</title>
			<desc>sel1</desc>
			<v:textBlock v:margins="rect(4,4,4,4)" v:tabSpace="42.5197"/>
			<v:textRect cx="14.1732" cy="137.226" width="28.35" height="11.3386"/>
			<rect x="0" y="131.557" width="28.3465" height="11.3386" class="st2"/>
			<text x="4.28" y="139.93" class="st3" v:langID="1033"><v:paragraph v:horizAlign="1"/><v:tabList/>sel1</text>		</g>
		<g id="group243-6" transform="translate(85.0121,-41.1821)" v:mID="243" v:groupContext="group" v:layerMember="0">
			<v:custProps>
				<v:cp v:nameU="Input" v:lbl="输入数目" v:type="1" v:format="2;3;4;5" v:sortKey="2" v:langID="2052" v:val="VT4(2)"/>
				<v:cp v:nameU="Type" v:lbl="门类型" v:type="1" v:format="OR;AND;NOR;NAND;XOR;XNOR" v:sortKey="1" v:langID="1033"
						v:val="VT4(XOR)"/>
				<v:cp v:nameU="Out" v:lbl="输出数目" v:type="1" v:format="1;2;3" v:sortKey="3" v:langID="2052" v:val="VT4(1)"/>
				<v:cp v:nameU="Type" v:lbl="" v:prompt="" v:type="0" v:format="" v:sortKey="" v:invis="false" v:ask="false"
						v:langID="0" v:cal="0" v:val="VT4(NOR)"/>
			</v:custProps>
			<v:userDefs>
				<v:ud v:nameU="SubType" v:val="VT0(4):26"/>
				<v:ud v:nameU="Margin" v:val="VT0(0.059055118110236):24"/>
				<v:ud v:nameU="LimitHeight" v:val="VT0(0):26"/>
				<v:ud v:nameU="visVersion" v:val="VT0(14):26"/>
				<v:ud v:nameU="visDescription" v:val="VT4(表示各种形式的逻辑门。)"/>
				<v:ud v:nameU="SubType" v:prompt="" v:val="VT0(2):26"/>
			</v:userDefs>
			<title>工作表.243</title>
			<g id="shape244-7" v:mID="244" v:groupContext="shape" v:layerMember="0" transform="translate(0,-4.25197)">
				<title>工作表.244</title>
				<path d="M0 134.39 L17.01 134.39" class="st4"/>
				<path d="M0 142.9 L17.01 142.9" class="st4"/>
				<path d="M34.02 138.64 L17.01 138.64" class="st4"/>
			</g>
			<g id="shape245-12" v:mID="245" v:groupContext="shape" v:layerMember="0" transform="translate(5.95276,0)">
				<title>工作表.245</title>
				<v:userDefs>
					<v:ud v:nameU="X" v:val="VT0(0.029527559055118):24"/>
				</v:userDefs>
				<path d="M22.11 134.39 A22.9017 14.031 0 0 1 6.63 142.9 L0 142.9 A32.8126 20.103 -180 0 0 -0 125.89 L6.63 125.89
							 A22.5949 13.8431 0 0 1 22.11 134.39 Z" class="st5"/>
			</g>
			<g id="shape246-14" v:mID="246" v:groupContext="shape" v:layerMember="0" transform="translate(0,2.83465)">
				<title>工作表.246</title>
			</g>
			<g id="shape247-16" v:mID="247" v:groupContext="shape" v:layerMember="0" transform="translate(23.0309,-2.13696)">
				<title>工作表.247</title>
				<path d="M7.51 136.53 A1.27339 1.27339 -180 0 0 4.97 136.53 A1.27339 1.27339 -180 0 0 7.51 136.53 Z" class="st5"/>
			</g>
			<g id="shape248-18" v:mID="248" v:groupContext="shape" v:layerMember="0" transform="translate(5.95276,0)">
				<title>工作表.248</title>
			</g>
		</g>
		<g id="group249-20" transform="translate(85.0121,-79.4498)" v:mID="249" v:groupContext="group" v:layerMember="0">
			<v:custProps>
				<v:cp v:nameU="Input" v:lbl="输入数目" v:type="1" v:format="2;3;4;5" v:sortKey="2" v:langID="2052" v:val="VT4(2)"/>
				<v:cp v:nameU="Type" v:lbl="门类型" v:type="1" v:format="OR;AND;NOR;NAND;XOR;XNOR" v:sortKey="1" v:langID="1033"
						v:val="VT4(XOR)"/>
				<v:cp v:nameU="Out" v:lbl="输出数目" v:type="1" v:format="1;2;3" v:sortKey="3" v:langID="2052" v:val="VT4(1)"/>
				<v:cp v:nameU="Type" v:lbl="" v:prompt="" v:type="0" v:format="" v:sortKey="" v:invis="false" v:ask="false"
						v:langID="0" v:cal="0" v:val="VT4(NOR)"/>
			</v:custProps>
			<v:userDefs>
				<v:ud v:nameU="SubType" v:val="VT0(4):26"/>
				<v:ud v:nameU="Margin" v:val="VT0(0.059055118110236):24"/>
				<v:ud v:nameU="LimitHeight" v:val="VT0(0):26"/>
				<v:ud v:nameU="visVersion" v:val="VT0(14):26"/>
				<v:ud v:nameU="visDescription" v:val="VT4(表示各种形式的逻辑门。)"/>
				<v:ud v:nameU="SubType" v:prompt="" v:val="VT0(2):26"/>
			</v:userDefs>
			<title>工作表.249</title>
			<g id="shape250-21" v:mID="250" v:groupContext="shape" v:layerMember="0" transform="translate(0,-4.25197)">
				<title>工作表.250</title>
				<path d="M0 134.39 L17.01 134.39" class="st4"/>
				<path d="M0 142.9 L17.01 142.9" class="st4"/>
				<path d="M34.02 138.64 L17.01 138.64" class="st4"/>
			</g>
			<g id="shape251-26" v:mID="251" v:groupContext="shape" v:layerMember="0" transform="translate(5.95276,0)">
				<title>工作表.251</title>
				<v:userDefs>
					<v:ud v:nameU="X" v:val="VT0(0.029527559055118):24"/>
				</v:userDefs>
				<path d="M22.11 134.39 A22.9017 14.031 0 0 1 6.63 142.9 L0 142.9 A32.8126 20.103 -180 0 0 -0 125.89 L6.63 125.89
							 A22.5949 13.8431 0 0 1 22.11 134.39 Z" class="st5"/>
			</g>
			<g id="shape252-28" v:mID="252" v:groupContext="shape" v:layerMember="0" transform="translate(0,2.83465)">
				<title>工作表.252</title>
			</g>
			<g id="shape253-30" v:mID="253" v:groupContext="shape" v:layerMember="0" transform="translate(23.0309,-2.13696)">
				<title>工作表.253</title>
				<path d="M7.51 136.53 A1.27339 1.27339 -180 0 0 4.97 136.53 A1.27339 1.27339 -180 0 0 7.51 136.53 Z" class="st5"/>
			</g>
			<g id="shape254-32" v:mID="254" v:groupContext="shape" v:layerMember="0" transform="translate(5.95276,0)">
				<title>工作表.254</title>
			</g>
		</g>
		<g id="shape255-34" v:mID="255" v:groupContext="shape" v:layerMember="1" transform="translate(28.7215,-52.5207)">
			<title>动态连接线.255</title>
			<path d="M0 149.98 L56.29 149.98" class="st4"/>
		</g>
		<g id="shape256-37" v:mID="256" v:groupContext="shape" v:layerMember="1" transform="translate(62.9144,-74.6309)">
			<title>动态连接线.256</title>
			<path d="M0 142.9 L0 125.32 L22.1 125.32" class="st4"/>
		</g>
		<g id="shape257-40" v:mID="257" v:groupContext="shape" transform="translate(0.375,-36.1624)">
			<title>工作表.257</title>
			<desc>sel</desc>
			<v:textBlock v:margins="rect(4,4,4,4)" v:tabSpace="42.5197"/>
			<v:textRect cx="14.1732" cy="134.392" width="28.35" height="17.0079"/>
			<rect x="0" y="125.888" width="28.3465" height="17.0079" class="st2"/>
			<text x="6.75" y="137.09" class="st3" v:langID="1033"><v:paragraph v:horizAlign="1"/><v:tabList/>sel</text>		</g>
		<g id="shape258-43" v:mID="258" v:groupContext="shape" transform="translate(59.7046,-109.214)">
			<title>工作表.258</title>
			<desc>part0_a</desc>
			<v:textBlock v:margins="rect(4,4,4,4)" v:tabSpace="42.5197"/>
			<v:textRect cx="25.6994" cy="134.392" width="51.4" height="17.0079"/>
			<rect x="0" y="125.888" width="51.3988" height="17.0079" class="st2"/>
			<text x="8.38" y="137.09" class="st3" v:langID="1033"><v:paragraph v:horizAlign="1"/><v:tabList/>part0_a</text>		</g>
		<g id="shape259-46" v:mID="259" v:groupContext="shape" v:layerMember="1" transform="translate(184.988,-89.0662)">
			<title>动态连接线.259</title>
			<path d="M0 142.9 C1.48 155.05 1.27 163.06 -6.66 166.18 C-15.09 169.49 -32.25 167.27 -43.21 165.89 C-59.54 163.83 -62.09
						 163.63 -73.99 165.25 C-80.45 166.14 -89.69 167.55 -97.76 171.17 C-103.73 173.85 -109.07 177.73 -99.98 178.02"
					class="st6"/>
		</g>
		<g id="shape260-49" v:mID="260" v:groupContext="shape" v:layerMember="1" transform="translate(188.025,-49.0775)">
			<title>动态连接线.260</title>
			<path d="M0 142.9 C4.05 142.9 3.35 138.91 0.6 136.41 C-4.05 132.18 -14.56 132.22 -22.49 132.11 C-33.16 131.97 -39.16
						 131.58 -45.27 129.76 C-52.62 127.56 -60.11 123.3 -74.22 121.32 C-86 119.67 -102.38 119.61 -108.59 114.88
						 C-112.01 112.28 -112.35 108.27 -103.01 108.27" class="st7"/>
		</g>
		<g id="group261-52" transform="translate(-74.312,80.4537) rotate(-90)" v:mID="261" v:groupContext="group" v:layerMember="0">
			<v:userDefs>
				<v:ud v:nameU="Form" v:val="VT0(0):26"/>
				<v:ud v:nameU="visDescription" v:val="VT4(表示反相器。)"/>
				<v:ud v:nameU="visVersion" v:val="VT0(15):26"/>
			</v:userDefs>
			<title>反相器.261</title>
			<g id="shape262-53" v:mID="262" v:groupContext="shape" v:layerMember="0"
					transform="translate(100.618,31.0526) rotate(45)">
				<title>工作表.262</title>
			</g>
			<g id="shape263-55" v:mID="263" v:groupContext="shape" v:layerMember="0">
				<title>工作表.263</title>
				<desc>1</desc>
				<v:textBlock v:margins="rect(1,1,1,1)" v:tabSpace="42.5197" v:verticalAlign="0"/>
				<v:textRect cx="5.66929" cy="134.392" width="11.34" height="12.8036"/>
				<path d="M11.34 137.23 a0.850394 0.850394 -180 1 0 1.70079 0 a0.850394 0.850394 -180 0 0 -1.70079 0 ZM0 131.56 L11.34
							 137.23 L0 142.9 L0 131.56 Z" class="st5"/>
			</g>
		</g>
		<g id="shape264-57" v:mID="264" v:groupContext="shape" v:layerMember="1" transform="translate(49.0128,-45.4341)">
			<title>动态连接线.264</title>
			<path d="M0.27 142.9 L13.9 142.9 L13.9 125.89" class="st4"/>
		</g>
		<g id="shape265-60" v:mID="265" v:groupContext="shape" transform="translate(280.596,-30.5522)">
			<title>工作表.265</title>
			<path d="M0 142.9 L109.05 142.9 L109.05 68.49 L0 68.49 L0 142.9 Z" class="st1"/>
		</g>
		<g id="group266-62" transform="translate(355.63,-63.1506)" v:mID="266" v:groupContext="group" v:layerMember="0">
			<v:custProps>
				<v:cp v:nameU="Input" v:lbl="输入数目" v:type="1" v:format="2;3;4;5" v:sortKey="2" v:langID="2052" v:val="VT4(2)"/>
				<v:cp v:nameU="Type" v:lbl="门类型" v:type="1" v:format="OR;AND;NOR;NAND;XOR;XNOR" v:sortKey="1" v:langID="1033"
						v:val="VT4(XOR)"/>
				<v:cp v:nameU="Out" v:lbl="输出数目" v:type="1" v:format="1;2;3" v:sortKey="3" v:langID="2052" v:val="VT4(1)"/>
				<v:cp v:nameU="Type" v:lbl="" v:prompt="" v:type="0" v:format="" v:sortKey="" v:invis="false" v:ask="false"
						v:langID="0" v:cal="0" v:val="VT4(OR)"/>
			</v:custProps>
			<v:userDefs>
				<v:ud v:nameU="SubType" v:val="VT0(4):26"/>
				<v:ud v:nameU="Margin" v:val="VT0(0.059055118110236):24"/>
				<v:ud v:nameU="LimitHeight" v:val="VT0(0):26"/>
				<v:ud v:nameU="visVersion" v:val="VT0(14):26"/>
				<v:ud v:nameU="visDescription" v:val="VT4(表示各种形式的逻辑门。)"/>
				<v:ud v:nameU="SubType" v:prompt="" v:val="VT0(0):26"/>
			</v:userDefs>
			<title>工作表.266</title>
			<g id="shape267-63" v:mID="267" v:groupContext="shape" v:layerMember="0" transform="translate(0,-4.25197)">
				<title>工作表.267</title>
				<path d="M0 134.39 L17.01 134.39" class="st4"/>
				<path d="M0 142.9 L17.01 142.9" class="st4"/>
				<path d="M34.02 138.64 L17.01 138.64" class="st4"/>
			</g>
			<g id="shape268-68" v:mID="268" v:groupContext="shape" v:layerMember="0" transform="translate(5.95276,0)">
				<title>工作表.268</title>
				<v:userDefs>
					<v:ud v:nameU="X" v:val="VT0(0.029527559055118):24"/>
				</v:userDefs>
				<path d="M22.11 134.39 A22.9017 14.031 0 0 1 6.63 142.9 L0 142.9 A32.8126 20.103 -180 0 0 -0 125.89 L6.63 125.89
							 A22.5949 13.8431 0 0 1 22.11 134.39 Z" class="st5"/>
			</g>
			<g id="shape269-70" v:mID="269" v:groupContext="shape" v:layerMember="0" transform="translate(0,2.83465)">
				<title>工作表.269</title>
			</g>
			<g id="shape270-72" v:mID="270" v:groupContext="shape" v:layerMember="0" transform="translate(23.0309,-2.13696)">
				<title>工作表.270</title>
			</g>
			<g id="shape271-74" v:mID="271" v:groupContext="shape" v:layerMember="0" transform="translate(5.95276,0)">
				<title>工作表.271</title>
			</g>
		</g>
		<g id="group272-76" transform="translate(293.835,-37.0482)" v:mID="272" v:groupContext="group" v:layerMember="0">
			<v:custProps>
				<v:cp v:nameU="Input" v:lbl="输入数目" v:type="1" v:format="2;3;4;5" v:sortKey="2" v:langID="2052" v:val="VT4(2)"/>
				<v:cp v:nameU="Type" v:lbl="门类型" v:type="1" v:format="OR;AND;NOR;NAND;XOR;XNOR" v:sortKey="1" v:langID="1033"
						v:val="VT4(XOR)"/>
				<v:cp v:nameU="Out" v:lbl="输出数目" v:type="1" v:format="1;2;3" v:sortKey="3" v:langID="2052" v:val="VT4(1)"/>
				<v:cp v:nameU="Type" v:lbl="" v:prompt="" v:type="0" v:format="" v:sortKey="" v:invis="false" v:ask="false"
						v:langID="0" v:cal="0" v:val="VT4(AND)"/>
			</v:custProps>
			<v:userDefs>
				<v:ud v:nameU="SubType" v:val="VT0(4):26"/>
				<v:ud v:nameU="Margin" v:val="VT0(0.059055118110236):24"/>
				<v:ud v:nameU="LimitHeight" v:val="VT0(0):26"/>
				<v:ud v:nameU="visVersion" v:val="VT0(14):26"/>
				<v:ud v:nameU="visDescription" v:val="VT4(表示各种形式的逻辑门。)"/>
				<v:ud v:nameU="SubType" v:prompt="" v:val="VT0(1):26"/>
			</v:userDefs>
			<title>工作表.272</title>
			<g id="shape273-77" v:mID="273" v:groupContext="shape" v:layerMember="0" transform="translate(0,-4.25197)">
				<title>工作表.273</title>
				<path d="M0 134.39 L17.01 134.39" class="st4"/>
				<path d="M0 142.9 L17.01 142.9" class="st4"/>
				<path d="M34.02 138.64 L17.01 138.64" class="st4"/>
			</g>
			<g id="shape274-82" v:mID="274" v:groupContext="shape" v:layerMember="0" transform="translate(5.95276,0)">
				<title>工作表.274</title>
				<v:userDefs>
					<v:ud v:nameU="X" v:val="VT0(0.029527559055118):24"/>
				</v:userDefs>
				<path d="M22.11 134.39 A22.9017 14.031 0 0 1 6.63 142.9 L0 142.9 A32.8126 20.103 -180 0 0 -0 125.89 L6.63 125.89
							 A22.5949 13.8431 0 0 1 22.11 134.39 Z" class="st5"/>
			</g>
			<g id="shape275-84" v:mID="275" v:groupContext="shape" v:layerMember="0" transform="translate(0,2.83465)">
				<title>工作表.275</title>
			</g>
			<g id="shape276-86" v:mID="276" v:groupContext="shape" v:layerMember="0" transform="translate(23.0309,-2.13696)">
				<title>工作表.276</title>
			</g>
			<g id="shape277-88" v:mID="277" v:groupContext="shape" v:layerMember="0" transform="translate(5.95276,0)">
				<title>工作表.277</title>
				<path d="M13.61 142.9 L0 142.9 L0 125.89 L13.61 125.89 A8.50394 8.50394 0 0 1 13.61 142.9 Z" class="st5"/>
			</g>
		</g>
		<g id="group278-90" transform="translate(293.835,-85.4144)" v:mID="278" v:groupContext="group" v:layerMember="0">
			<v:custProps>
				<v:cp v:nameU="Input" v:lbl="输入数目" v:type="1" v:format="2;3;4;5" v:sortKey="2" v:langID="2052" v:val="VT4(2)"/>
				<v:cp v:nameU="Type" v:lbl="门类型" v:type="1" v:format="OR;AND;NOR;NAND;XOR;XNOR" v:sortKey="1" v:langID="1033"
						v:val="VT4(XOR)"/>
				<v:cp v:nameU="Out" v:lbl="输出数目" v:type="1" v:format="1;2;3" v:sortKey="3" v:langID="2052" v:val="VT4(1)"/>
				<v:cp v:nameU="Type" v:lbl="" v:prompt="" v:type="0" v:format="" v:sortKey="" v:invis="false" v:ask="false"
						v:langID="0" v:cal="0" v:val="VT4(AND)"/>
			</v:custProps>
			<v:userDefs>
				<v:ud v:nameU="SubType" v:val="VT0(4):26"/>
				<v:ud v:nameU="Margin" v:val="VT0(0.059055118110236):24"/>
				<v:ud v:nameU="LimitHeight" v:val="VT0(0):26"/>
				<v:ud v:nameU="visVersion" v:val="VT0(14):26"/>
				<v:ud v:nameU="visDescription" v:val="VT4(表示各种形式的逻辑门。)"/>
				<v:ud v:nameU="SubType" v:prompt="" v:val="VT0(1):26"/>
			</v:userDefs>
			<title>工作表.278</title>
			<g id="shape279-91" v:mID="279" v:groupContext="shape" v:layerMember="0" transform="translate(0,-4.25197)">
				<title>工作表.279</title>
				<path d="M0 134.39 L17.01 134.39" class="st4"/>
				<path d="M0 142.9 L17.01 142.9" class="st4"/>
				<path d="M34.02 138.64 L17.01 138.64" class="st4"/>
			</g>
			<g id="shape280-96" v:mID="280" v:groupContext="shape" v:layerMember="0" transform="translate(5.95276,0)">
				<title>工作表.280</title>
				<v:userDefs>
					<v:ud v:nameU="X" v:val="VT0(0.029527559055118):24"/>
				</v:userDefs>
				<path d="M22.11 134.39 A22.9017 14.031 0 0 1 6.63 142.9 L0 142.9 A32.8126 20.103 -180 0 0 -0 125.89 L6.63 125.89
							 A22.5949 13.8431 0 0 1 22.11 134.39 Z" class="st5"/>
			</g>
			<g id="shape281-98" v:mID="281" v:groupContext="shape" v:layerMember="0" transform="translate(0,2.83465)">
				<title>工作表.281</title>
			</g>
			<g id="shape282-100" v:mID="282" v:groupContext="shape" v:layerMember="0" transform="translate(23.0309,-2.13696)">
				<title>工作表.282</title>
			</g>
			<g id="shape283-102" v:mID="283" v:groupContext="shape" v:layerMember="0" transform="translate(5.95276,0)">
				<title>工作表.283</title>
				<path d="M13.61 142.9 L0 142.9 L0 125.89 L13.61 125.89 A8.50394 8.50394 0 0 1 13.61 142.9 Z" class="st5"/>
			</g>
		</g>
		<g id="shape284-104" v:mID="284" v:groupContext="shape" v:layerMember="1" transform="translate(327.851,-93.9183)">
			<title>动态连接线.284</title>
			<path d="M0 142.9 L10.63 142.9 L10.63 160.91 L27.78 160.91" class="st4"/>
		</g>
		<g id="shape285-107" v:mID="285" v:groupContext="shape" v:layerMember="1" transform="translate(327.851,-45.5522)">
			<title>动态连接线.285</title>
			<path d="M0 142.9 L10.63 142.9 L10.63 121.05 L27.78 121.05" class="st4"/>
		</g>
		<g id="shape286-110" v:mID="286" v:groupContext="shape" v:layerMember="1" transform="translate(119.028,-56.4684)">
			<title>动态连接线.286</title>
			<path d="M0 149.68 L14.19 150.29" class="st4"/>
		</g>
		<g id="shape289-113" v:mID="289" v:groupContext="shape" v:layerMember="0" transform="translate(413.866,-68.938)">
			<title>工作表.289</title>
			<desc>clkout</desc>
			<v:userDefs>
				<v:ud v:nameU="Form" v:val="VT0(0):26"/>
				<v:ud v:nameU="visVersion" v:val="VT0(14):26"/>
				<v:ud v:nameU="visDescription" v:val="VT4(单向或双向输入/输出端口。 )"/>
			</v:userDefs>
			<v:textBlock v:margins="rect(1,1,1,1)" v:tabSpace="42.5197" v:verticalAlign="0"/>
			<v:textRect cx="10.6299" cy="131.179" width="36.65" height="12.8036"/>
			<path d="M0 140.24 L0 137.58 L15.94 137.58 L21.26 140.24 L15.94 142.9 L0 142.9 L0 140.24 Z" class="st5"/>
			<text x="-4.21" y="133.88" class="st3" v:langID="2052"><v:paragraph v:horizAlign="1"/><v:tabList/>clk<tspan class="st8"
						v:langID="1033">out</tspan></text>		</g>
		<g id="shape290-117" v:mID="290" v:groupContext="shape" v:layerMember="1" transform="translate(389.646,-78.7116)">
			<title>动态连接线.290</title>
			<path d="M0 149.95 L24.22 150.01" class="st4"/>
		</g>
		<g id="shape291-120" v:mID="291" v:groupContext="shape" transform="translate(104.017,-125.513)">
			<title>工作表.291</title>
			<desc>clk1</desc>
			<v:textBlock v:margins="rect(4,4,4,4)" v:tabSpace="42.5197"/>
			<v:textRect cx="14.1732" cy="134.392" width="28.35" height="17.0079"/>
			<rect x="0" y="125.888" width="28.3465" height="17.0079" class="st2"/>
			<text x="4.28" y="137.09" class="st3" v:langID="1033"><v:paragraph v:horizAlign="1"/><v:tabList/>clk1</text>		</g>
		<g id="shape292-123" v:mID="292" v:groupContext="shape" transform="translate(109.934,-0.375)">
			<title>工作表.292</title>
			<desc>clk0</desc>
			<v:textBlock v:margins="rect(4,4,4,4)" v:tabSpace="42.5197"/>
			<v:textRect cx="14.1732" cy="134.392" width="28.35" height="17.0079"/>
			<rect x="0" y="125.888" width="28.3465" height="17.0079" class="st2"/>
			<text x="4.28" y="137.09" class="st3" v:langID="1033"><v:paragraph v:horizAlign="1"/><v:tabList/>clk0</text>		</g>
		<g id="shape294-126" v:mID="294" v:groupContext="shape" transform="translate(208.613,-48.564)">
			<title>工作表.294</title>
			<desc>sel0</desc>
			<v:textBlock v:margins="rect(4,4,4,4)" v:tabSpace="42.5197"/>
			<v:textRect cx="14.1732" cy="134.392" width="28.35" height="17.0079"/>
			<rect x="0" y="125.888" width="28.3465" height="17.0079" class="st2"/>
			<text x="4.28" y="137.09" class="st3" v:langID="1033"><v:paragraph v:horizAlign="1"/><v:tabList/>sel0</text>		</g>
		<g id="shape295-129" v:mID="295" v:groupContext="shape" transform="translate(282.837,-46.497)">
			<title>工作表.295</title>
			<desc>G0</desc>
			<v:textBlock v:margins="rect(4,4,4,4)" v:tabSpace="42.5197"/>
			<v:textRect cx="10.6299" cy="134.392" width="21.26" height="17.0079"/>
			<rect x="0" y="125.888" width="21.2598" height="17.0079" class="st2"/>
			<text x="5.68" y="137.09" class="st3" v:langID="1033"><v:paragraph v:horizAlign="1"/><v:tabList/>G0</text>		</g>
		<g id="shape296-132" v:mID="296" v:groupContext="shape" transform="translate(280.596,-67.4954)">
			<title>工作表.296</title>
			<desc>G1</desc>
			<v:textBlock v:margins="rect(4,4,4,4)" v:tabSpace="42.5197"/>
			<v:textRect cx="10.6299" cy="134.392" width="21.26" height="17.0079"/>
			<rect x="0" y="125.888" width="21.2598" height="17.0079" class="st2"/>
			<text x="5.68" y="137.09" class="st3" v:langID="1033"><v:paragraph v:horizAlign="1"/><v:tabList/>G1</text>		</g>
		<g id="shape297-135" v:mID="297" v:groupContext="shape" transform="translate(318.27,-105.257)">
			<title>工作表.297</title>
			<desc>part1</desc>
			<v:textBlock v:margins="rect(4,4,4,4)" v:tabSpace="42.5197"/>
			<v:textRect cx="25.6994" cy="134.392" width="51.4" height="17.0079"/>
			<rect x="0" y="125.888" width="51.3988" height="17.0079" class="st2"/>
			<text x="13.33" y="137.09" class="st3" v:langID="1033"><v:paragraph v:horizAlign="1"/><v:tabList/>part1</text>		</g>
		<g id="group326-138" transform="translate(164.4,-27.5066)" v:mID="326" v:groupContext="group">
			<title>工作表.326</title>
			<g id="shape305-139" v:mID="305" v:groupContext="shape" transform="translate(3.59514,-9.24465)">
				<title>hole</title>
				<ellipse cx="1.02718" cy="141.868" rx="1.02718" ry="1.02718" class="st5"/>
			</g>
			<g id="shape306-141" v:mID="306" v:groupContext="shape" transform="translate(5.64951,-8.73106)">
				<title>工作表.306</title>
				<path d="M0 139.81 L3.08 141.35 L0 142.9" class="st4"/>
			</g>
			<g id="shape307-144" v:mID="307" v:groupContext="shape" transform="translate(5.23864,-21.5709) scale(-1,1)">
				<title>工作表.307</title>
				<path d="M0 142.9 L5.24 142.9" class="st4"/>
			</g>
			<g id="shape308-147" v:mID="308" v:groupContext="shape" transform="translate(3.33835,-10.2718) scale(-1,1)">
				<title>工作表.308</title>
				<path d="M0 142.9 L3.34 142.9" class="st4"/>
			</g>
			<g id="shape309-150" v:mID="309" v:groupContext="shape" transform="translate(21.0573,264.22) scale(1,-1)">
				<title>工作表.309</title>
				<path d="M0 142.9 L2.57 142.9" class="st4"/>
			</g>
			<g id="shape310-153" v:mID="310" v:groupContext="shape" transform="translate(-129.542,139.814) rotate(-90) scale(-1,1)">
				<title>工作表.310</title>
				<path d="M0 142.9 L3.08 142.9" class="st4"/>
			</g>
			<g id="shape311-156" v:mID="311" v:groupContext="shape" transform="translate(12.3262,-3.08155)">
				<title>hole.11</title>
				<ellipse cx="1.02718" cy="141.868" rx="1.02718" ry="1.02718" class="st5"/>
			</g>
			<g id="shape312-158" v:mID="312" v:groupContext="shape" transform="translate(5.64951,-5.13592)">
				<title>工作表.312</title>
				<rect x="0" y="122.352" width="15.4078" height="20.5437" class="st5"/>
			</g>
		</g>
		<g id="shape327-160" v:mID="327" v:groupContext="shape" v:layerMember="1" transform="translate(153.535,-41.9909)">
			<title>动态连接线.327</title>
			<path d="M3.31 135.81 L10.86 135.81" class="st4"/>
		</g>
		<g id="group328-163" transform="translate(133.219,-27.5066)" v:mID="328" v:groupContext="group">
			<title>工作表.328</title>
			<g id="shape330-164" v:mID="330" v:groupContext="shape" transform="translate(5.64951,-8.73106)">
				<title>工作表.330</title>
				<path d="M0 139.81 L3.08 141.35 L0 142.9" class="st4"/>
			</g>
			<g id="shape331-167" v:mID="331" v:groupContext="shape" transform="translate(5.23864,-21.5709) scale(-1,1)">
				<title>工作表.331</title>
				<path d="M0 142.9 L5.24 142.9" class="st4"/>
			</g>
			<g id="shape332-170" v:mID="332" v:groupContext="shape" transform="translate(5.64951,-10.2718) scale(-1,1)">
				<title>工作表.332</title>
				<path d="M0 142.9 L5.65 142.9" class="st4"/>
			</g>
			<g id="shape333-173" v:mID="333" v:groupContext="shape" transform="translate(21.0573,264.22) scale(1,-1)">
				<title>工作表.333</title>
				<path d="M0 142.9 L2.57 142.9" class="st4"/>
			</g>
			<g id="shape334-176" v:mID="334" v:groupContext="shape" transform="translate(-129.542,139.814) rotate(-90) scale(-1,1)">
				<title>工作表.334</title>
				<path d="M0 142.9 L3.08 142.9" class="st4"/>
			</g>
			<g id="shape335-179" v:mID="335" v:groupContext="shape" transform="translate(12.3262,-3.08155)">
				<title>hole.11</title>
				<ellipse cx="1.02718" cy="141.868" rx="1.02718" ry="1.02718" class="st5"/>
			</g>
			<g id="shape336-181" v:mID="336" v:groupContext="shape" transform="translate(5.64951,-5.13592)">
				<title>工作表.336</title>
				<rect x="0" y="122.352" width="15.4078" height="20.5437" class="st5"/>
			</g>
		</g>
		<g id="shape337-183" v:mID="337" v:groupContext="shape" v:layerMember="1" transform="translate(188.025,-42.3542)">
			<title>动态连接线.337</title>
			<path d="M0 136.17 L105.81 135.45" class="st4"/>
		</g>
		<g id="shape338-186" v:mID="338" v:groupContext="shape" v:layerMember="1" transform="translate(135.75,-37.7784)">
			<title>动态连接线.338</title>
			<path d="M-2.53 142.9 L-11.64 142.9 L-11.64 163.86" class="st4"/>
		</g>
		<g id="shape339-189" v:mID="339" v:groupContext="shape" v:layerMember="1" transform="translate(133.219,-44.8651)">
			<title>动态连接线.339</title>
			<path d="M0 149.98 L31.18 149.98" class="st4"/>
		</g>
		<g id="group341-192" transform="translate(161.363,-67.4954)" v:mID="341" v:groupContext="group">
			<title>工作表.341</title>
			<g id="shape342-193" v:mID="342" v:groupContext="shape" transform="translate(3.59514,-9.24465)">
				<title>hole</title>
				<ellipse cx="1.02718" cy="141.868" rx="1.02718" ry="1.02718" class="st5"/>
			</g>
			<g id="shape343-195" v:mID="343" v:groupContext="shape" transform="translate(5.64951,-8.73106)">
				<title>工作表.343</title>
				<path d="M0 139.81 L3.08 141.35 L0 142.9" class="st4"/>
			</g>
			<g id="shape344-198" v:mID="344" v:groupContext="shape" transform="translate(5.23864,-21.5709) scale(-1,1)">
				<title>工作表.344</title>
				<path d="M0 142.9 L5.24 142.9" class="st4"/>
			</g>
			<g id="shape345-201" v:mID="345" v:groupContext="shape" transform="translate(3.33835,-10.2718) scale(-1,1)">
				<title>工作表.345</title>
				<path d="M0 142.9 L3.34 142.9" class="st4"/>
			</g>
			<g id="shape346-204" v:mID="346" v:groupContext="shape" transform="translate(21.0573,264.22) scale(1,-1)">
				<title>工作表.346</title>
				<path d="M0 142.9 L2.57 142.9" class="st4"/>
			</g>
			<g id="shape347-207" v:mID="347" v:groupContext="shape" transform="translate(-129.542,139.814) rotate(-90) scale(-1,1)">
				<title>工作表.347</title>
				<path d="M0 142.9 L3.08 142.9" class="st4"/>
			</g>
			<g id="shape348-210" v:mID="348" v:groupContext="shape" transform="translate(12.3262,-3.08155)">
				<title>hole.11</title>
				<ellipse cx="1.02718" cy="141.868" rx="1.02718" ry="1.02718" class="st5"/>
			</g>
			<g id="shape349-212" v:mID="349" v:groupContext="shape" transform="translate(5.64951,-5.13592)">
				<title>工作表.349</title>
				<rect x="0" y="122.352" width="15.4078" height="20.5437" class="st5"/>
			</g>
		</g>
		<g id="shape350-214" v:mID="350" v:groupContext="shape" v:layerMember="1" transform="translate(150.498,-81.9796)">
			<title>动态连接线.350</title>
			<path d="M3.31 135.81 L10.86 135.81" class="st4"/>
		</g>
		<g id="group351-217" transform="translate(130.182,-67.4954)" v:mID="351" v:groupContext="group">
			<title>工作表.351</title>
			<g id="shape352-218" v:mID="352" v:groupContext="shape" transform="translate(5.64951,-8.73106)">
				<title>工作表.352</title>
				<path d="M0 139.81 L3.08 141.35 L0 142.9" class="st4"/>
			</g>
			<g id="shape353-221" v:mID="353" v:groupContext="shape" transform="translate(5.23864,-21.5709) scale(-1,1)">
				<title>工作表.353</title>
				<path d="M0 142.9 L5.24 142.9" class="st4"/>
			</g>
			<g id="shape354-224" v:mID="354" v:groupContext="shape" transform="translate(5.64951,-10.2718) scale(-1,1)">
				<title>工作表.354</title>
				<path d="M0 142.9 L5.65 142.9" class="st4"/>
			</g>
			<g id="shape355-227" v:mID="355" v:groupContext="shape" transform="translate(21.0573,264.22) scale(1,-1)">
				<title>工作表.355</title>
				<path d="M0 142.9 L2.57 142.9" class="st4"/>
			</g>
			<g id="shape356-230" v:mID="356" v:groupContext="shape" transform="translate(-129.542,139.814) rotate(-90) scale(-1,1)">
				<title>工作表.356</title>
				<path d="M0 142.9 L3.08 142.9" class="st4"/>
			</g>
			<g id="shape357-233" v:mID="357" v:groupContext="shape" transform="translate(12.3262,-3.08155)">
				<title>hole.11</title>
				<ellipse cx="1.02718" cy="141.868" rx="1.02718" ry="1.02718" class="st5"/>
			</g>
			<g id="shape358-235" v:mID="358" v:groupContext="shape" transform="translate(5.64951,-5.13592)">
				<title>工作表.358</title>
				<rect x="0" y="122.352" width="15.4078" height="20.5437" class="st5"/>
			</g>
		</g>
		<g id="shape359-237" v:mID="359" v:groupContext="shape" v:layerMember="1" transform="translate(130.182,-84.8538)">
			<title>动态连接线.359</title>
			<path d="M0 149.98 L31.18 149.98" class="st4"/>
		</g>
		<g id="shape360-240" v:mID="360" v:groupContext="shape" v:layerMember="1" transform="translate(117.518,-81.4234)">
			<title>动态连接线.360</title>
			<path d="M1.51 136.37 L4.24 136.09 A2.3622 2.3622 0 1 1 8.94 135.62 L12.66 135.25" class="st4"/>
		</g>
		<g id="shape361-243" v:mID="361" v:groupContext="shape" v:layerMember="1" transform="translate(184.988,-82.2797)">
			<title>动态连接线.361</title>
			<path d="M0 136.11 L108.85 135.51" class="st4"/>
		</g>
		<g id="shape362-246" v:mID="362" v:groupContext="shape" v:layerMember="1" transform="translate(120.058,-125.513)">
			<title>动态连接线.362</title>
			<path d="M4.05 142.9 L4.05 190.64 L10.12 190.64" class="st4"/>
		</g>
		<g id="shape364-249" v:mID="364" v:groupContext="shape" v:layerMember="1" transform="translate(293.835,-98.1703)">
			<title>动态连接线.364</title>
			<path d="M0 142.9 L-42.43 142.9 L-42.43 124.47 L-169.73 124.47 L-169.73 118.8" class="st4"/>
		</g>
		<g id="shape365-252" v:mID="365" v:groupContext="shape" v:layerMember="1" transform="translate(124.107,-20.2175)">
			<title>动态连接线.365</title>
			<path d="M0 142.9 L130.13 142.9 L130.13 121.81 L169.73 121.81" class="st4"/>
		</g>
	</g>
</svg>
