<?xml version="1.0" encoding="UTF-8" standalone="no"?>
<!DOCTYPE svg PUBLIC "-//W3C//DTD SVG 1.1//EN" "http://www.w3.org/Graphics/SVG/1.1/DTD/svg11.dtd">
<!-- 由 Microsoft Visio, SVG Export 生成 clkmux2.svg 页-1 -->
<svg xmlns="http://www.w3.org/2000/svg" xmlns:xlink="http://www.w3.org/1999/xlink" xmlns:ev="http://www.w3.org/2001/xml-events"
		xmlns:v="http://schemas.microsoft.com/visio/2003/SVGExtensions/" width="4.73711in" height="1.32472in"
		viewBox="0 0 341.072 95.3797" xml:space="preserve" color-interpolation-filters="sRGB" class="st7">
	<v:documentProperties v:langID="2052" v:metric="true" v:viewMarkup="false"/>

	<style type="text/css">
	<![CDATA[
		.st1 {fill:#ffffff;stroke:#ff0000;stroke-dasharray:5.25,3.75,0,3.75,0,3.75;stroke-linecap:round;stroke-linejoin:round;stroke-width:0.75}
		.st2 {fill:#ffffff;stroke:#000000;stroke-linecap:round;stroke-linejoin:round;stroke-width:0.24}
		.st3 {fill:#000000;font-family:YaHei Consolas Hybrid;font-size:0.75em}
		.st4 {stroke:#000000;stroke-linecap:round;stroke-linejoin:round;stroke-width:0.24}
		.st5 {fill:none;stroke:none;stroke-linecap:round;stroke-linejoin:round;stroke-width:0.75}
		.st6 {font-size:1em}
		.st7 {fill:none;fill-rule:evenodd;font-size:12px;overflow:visible;stroke-linecap:square;stroke-miterlimit:3}
	]]>
	</style>

	<g v:mID="0" v:index="1" v:groupContext="foregroundPage">
		<title>页-1</title>
		<v:pageProperties v:drawingScale="0.0393701" v:pageScale="0.0393701" v:drawingUnits="24" v:shadowOffsetX="8.50394"
				v:shadowOffsetY="-8.50394"/>
		<v:layer v:name="电气" v:index="0"/>
		<v:layer v:name="连接线" v:index="1"/>
		<g id="shape102-1" v:mID="102" v:groupContext="shape" transform="translate(178.851,-7.13071)">
			<title>工作表.102</title>
			<path d="M0 95.38 L109.05 95.38 L109.05 24.51 L0 24.51 L0 95.38 Z" class="st1"/>
		</g>
		<g id="shape97-3" v:mID="97" v:groupContext="shape" transform="translate(38.5361,-7.9706)">
			<title>工作表.97</title>
			<path d="M0 95.38 L35.43 95.38 L35.43 38.69 L0 38.69 L0 95.38 Z" class="st1"/>
		</g>
		<g id="group63-5" transform="translate(-33.7799,71.2411) rotate(-90)" v:mID="63" v:groupContext="group" v:layerMember="0">
			<v:userDefs>
				<v:ud v:nameU="Form" v:val="VT0(0):26"/>
				<v:ud v:nameU="visDescription" v:val="VT4(表示反相器。)"/>
				<v:ud v:nameU="visVersion" v:val="VT0(15):26"/>
			</v:userDefs>
			<title>反相器.63</title>
			<g id="shape64-6" v:mID="64" v:groupContext="shape" v:layerMember="0" transform="translate(67.0196,17.1355) rotate(45)">
				<title>工作表.64</title>
			</g>
			<g id="shape65-8" v:mID="65" v:groupContext="shape" v:layerMember="0">
				<title>工作表.65</title>
				<desc>1</desc>
				<v:textBlock v:margins="rect(1,1,1,1)" v:tabSpace="42.5197" v:verticalAlign="0"/>
				<v:textRect cx="5.66929" cy="86.8758" width="11.34" height="12.8036"/>
				<path d="M11.34 89.71 a0.850394 0.850394 -180 1 0 1.70079 1.42109E-014 a0.850394 0.850394 -180 0 0 -1.70079 0 ZM0
							 84.04 L11.34 89.71 L0 95.38 L0 84.04 Z" class="st2"/>
			</g>
		</g>
		<g id="shape66-10" v:mID="66" v:groupContext="shape" v:layerMember="0" transform="translate(0.268363,-13.1543)">
			<title>工作表.66</title>
			<desc>sel</desc>
			<v:userDefs>
				<v:ud v:nameU="Form" v:val="VT0(0):26"/>
				<v:ud v:nameU="visVersion" v:val="VT0(14):26"/>
				<v:ud v:nameU="visDescription" v:val="VT4(单向或双向输入/输出端口。 )"/>
			</v:userDefs>
			<v:textBlock v:margins="rect(1,1,1,1)" v:tabSpace="42.5197" v:verticalAlign="0"/>
			<v:textRect cx="10.6299" cy="83.663" width="21.8" height="12.8036"/>
			<path d="M0 92.72 L0 90.06 L15.94 90.06 L21.26 92.72 L15.94 95.38 L0 95.38 L0 92.72 Z" class="st2"/>
			<text x="3.21" y="86.36" class="st3" v:langID="1033"><v:paragraph v:horizAlign="1"/><v:tabList/>sel</text>		</g>
		<g id="shape67-13" v:mID="67" v:groupContext="shape" v:layerMember="1" transform="translate(21.5282,-12.8886)">
			<title>动态连接线.67</title>
			<path d="M0 92.46 L34.4 92.46 L34.4 84.13" class="st4"/>
		</g>
		<g id="shape68-16" v:mID="68" v:groupContext="shape" v:layerMember="1" transform="translate(55.9305,-36.3276)">
			<title>动态连接线.68</title>
			<path d="M0 95.38 L0 73.55 L25.98 73.55" class="st4"/>
		</g>
		<g id="shape69-19" v:mID="69" v:groupContext="shape" v:layerMember="1" transform="translate(55.9305,-26.9732)">
			<title>动态连接线.69</title>
			<path d="M0 98.21 L0 106.72 L27.11 106.72" class="st4"/>
		</g>
		<g id="group70-22" transform="translate(253.886,-32.6425)" v:mID="70" v:groupContext="group" v:layerMember="0">
			<v:custProps>
				<v:cp v:nameU="Input" v:lbl="输入数目" v:type="1" v:format="2;3;4;5" v:sortKey="2" v:langID="2052" v:val="VT4(2)"/>
				<v:cp v:nameU="Type" v:lbl="门类型" v:type="1" v:format="OR;AND;NOR;NAND;XOR;XNOR" v:sortKey="1" v:langID="1033"
						v:val="VT4(XOR)"/>
				<v:cp v:nameU="Out" v:lbl="输出数目" v:type="1" v:format="1;2;3" v:sortKey="3" v:langID="2052" v:val="VT4(1)"/>
				<v:cp v:nameU="Type" v:lbl="" v:prompt="" v:type="0" v:format="" v:sortKey="" v:invis="false" v:ask="false"
						v:langID="0" v:cal="0" v:val="VT4(OR)"/>
			</v:custProps>
			<v:userDefs>
				<v:ud v:nameU="SubType" v:val="VT0(4):26"/>
				<v:ud v:nameU="Margin" v:val="VT0(0.059055118110236):24"/>
				<v:ud v:nameU="LimitHeight" v:val="VT0(0):26"/>
				<v:ud v:nameU="visVersion" v:val="VT0(14):26"/>
				<v:ud v:nameU="visDescription" v:val="VT4(表示各种形式的逻辑门。)"/>
				<v:ud v:nameU="SubType" v:prompt="" v:val="VT0(0):26"/>
			</v:userDefs>
			<title>工作表.70</title>
			<g id="shape71-23" v:mID="71" v:groupContext="shape" v:layerMember="0" transform="translate(0,-4.25197)">
				<title>工作表.71</title>
				<path d="M0 86.88 L17.01 86.88" class="st4"/>
				<path d="M0 95.38 L17.01 95.38" class="st4"/>
				<path d="M34.02 91.13 L17.01 91.13" class="st4"/>
			</g>
			<g id="shape72-28" v:mID="72" v:groupContext="shape" v:layerMember="0" transform="translate(5.95276,0)">
				<title>工作表.72</title>
				<v:userDefs>
					<v:ud v:nameU="X" v:val="VT0(0.029527559055118):24"/>
				</v:userDefs>
				<path d="M22.11 86.88 A22.9017 14.031 0 0 1 6.63 95.38 L0 95.38 A32.8126 20.103 -180 0 0 -0 78.37 L6.63 78.37 A22.5949
							 13.8431 0 0 1 22.11 86.88 Z" class="st2"/>
			</g>
			<g id="shape73-30" v:mID="73" v:groupContext="shape" v:layerMember="0" transform="translate(0,2.83465)">
				<title>工作表.73</title>
			</g>
			<g id="shape74-32" v:mID="74" v:groupContext="shape" v:layerMember="0" transform="translate(23.0309,-2.13696)">
				<title>工作表.74</title>
			</g>
			<g id="shape75-34" v:mID="75" v:groupContext="shape" v:layerMember="0" transform="translate(5.95276,0)">
				<title>工作表.75</title>
			</g>
		</g>
		<g id="group76-36" transform="translate(192.091,-12.8)" v:mID="76" v:groupContext="group" v:layerMember="0">
			<v:custProps>
				<v:cp v:nameU="Input" v:lbl="输入数目" v:type="1" v:format="2;3;4;5" v:sortKey="2" v:langID="2052" v:val="VT4(2)"/>
				<v:cp v:nameU="Type" v:lbl="门类型" v:type="1" v:format="OR;AND;NOR;NAND;XOR;XNOR" v:sortKey="1" v:langID="1033"
						v:val="VT4(XOR)"/>
				<v:cp v:nameU="Out" v:lbl="输出数目" v:type="1" v:format="1;2;3" v:sortKey="3" v:langID="2052" v:val="VT4(1)"/>
				<v:cp v:nameU="Type" v:lbl="" v:prompt="" v:type="0" v:format="" v:sortKey="" v:invis="false" v:ask="false"
						v:langID="0" v:cal="0" v:val="VT4(AND)"/>
			</v:custProps>
			<v:userDefs>
				<v:ud v:nameU="SubType" v:val="VT0(4):26"/>
				<v:ud v:nameU="Margin" v:val="VT0(0.059055118110236):24"/>
				<v:ud v:nameU="LimitHeight" v:val="VT0(0):26"/>
				<v:ud v:nameU="visVersion" v:val="VT0(14):26"/>
				<v:ud v:nameU="visDescription" v:val="VT4(表示各种形式的逻辑门。)"/>
				<v:ud v:nameU="SubType" v:prompt="" v:val="VT0(1):26"/>
			</v:userDefs>
			<title>工作表.76</title>
			<g id="shape77-37" v:mID="77" v:groupContext="shape" v:layerMember="0" transform="translate(0,-4.25197)">
				<title>工作表.77</title>
				<path d="M0 86.88 L17.01 86.88" class="st4"/>
				<path d="M0 95.38 L17.01 95.38" class="st4"/>
				<path d="M34.02 91.13 L17.01 91.13" class="st4"/>
			</g>
			<g id="shape78-42" v:mID="78" v:groupContext="shape" v:layerMember="0" transform="translate(5.95276,0)">
				<title>工作表.78</title>
				<v:userDefs>
					<v:ud v:nameU="X" v:val="VT0(0.029527559055118):24"/>
				</v:userDefs>
				<path d="M22.11 86.88 A22.9017 14.031 0 0 1 6.63 95.38 L0 95.38 A32.8126 20.103 -180 0 0 -0 78.37 L6.63 78.37 A22.5949
							 13.8431 0 0 1 22.11 86.88 Z" class="st2"/>
			</g>
			<g id="shape79-44" v:mID="79" v:groupContext="shape" v:layerMember="0" transform="translate(0,2.83465)">
				<title>工作表.79</title>
			</g>
			<g id="shape80-46" v:mID="80" v:groupContext="shape" v:layerMember="0" transform="translate(23.0309,-2.13696)">
				<title>工作表.80</title>
			</g>
			<g id="shape81-48" v:mID="81" v:groupContext="shape" v:layerMember="0" transform="translate(5.95276,0)">
				<title>工作表.81</title>
				<path d="M13.61 95.38 L0 95.38 L0 78.37 L13.61 78.37 A8.50394 8.50394 0 0 1 13.61 95.38 Z" class="st2"/>
			</g>
		</g>
		<g id="group82-50" transform="translate(192.091,-51.0677)" v:mID="82" v:groupContext="group" v:layerMember="0">
			<v:custProps>
				<v:cp v:nameU="Input" v:lbl="输入数目" v:type="1" v:format="2;3;4;5" v:sortKey="2" v:langID="2052" v:val="VT4(2)"/>
				<v:cp v:nameU="Type" v:lbl="门类型" v:type="1" v:format="OR;AND;NOR;NAND;XOR;XNOR" v:sortKey="1" v:langID="1033"
						v:val="VT4(XOR)"/>
				<v:cp v:nameU="Out" v:lbl="输出数目" v:type="1" v:format="1;2;3" v:sortKey="3" v:langID="2052" v:val="VT4(1)"/>
				<v:cp v:nameU="Type" v:lbl="" v:prompt="" v:type="0" v:format="" v:sortKey="" v:invis="false" v:ask="false"
						v:langID="0" v:cal="0" v:val="VT4(AND)"/>
			</v:custProps>
			<v:userDefs>
				<v:ud v:nameU="SubType" v:val="VT0(4):26"/>
				<v:ud v:nameU="Margin" v:val="VT0(0.059055118110236):24"/>
				<v:ud v:nameU="LimitHeight" v:val="VT0(0):26"/>
				<v:ud v:nameU="visVersion" v:val="VT0(14):26"/>
				<v:ud v:nameU="visDescription" v:val="VT4(表示各种形式的逻辑门。)"/>
				<v:ud v:nameU="SubType" v:prompt="" v:val="VT0(1):26"/>
			</v:userDefs>
			<title>工作表.82</title>
			<g id="shape83-51" v:mID="83" v:groupContext="shape" v:layerMember="0" transform="translate(0,-4.25197)">
				<title>工作表.83</title>
				<path d="M0 86.88 L17.01 86.88" class="st4"/>
				<path d="M0 95.38 L17.01 95.38" class="st4"/>
				<path d="M34.02 91.13 L17.01 91.13" class="st4"/>
			</g>
			<g id="shape84-56" v:mID="84" v:groupContext="shape" v:layerMember="0" transform="translate(5.95276,0)">
				<title>工作表.84</title>
				<v:userDefs>
					<v:ud v:nameU="X" v:val="VT0(0.029527559055118):24"/>
				</v:userDefs>
				<path d="M22.11 86.88 A22.9017 14.031 0 0 1 6.63 95.38 L0 95.38 A32.8126 20.103 -180 0 0 -0 78.37 L6.63 78.37 A22.5949
							 13.8431 0 0 1 22.11 86.88 Z" class="st2"/>
			</g>
			<g id="shape85-58" v:mID="85" v:groupContext="shape" v:layerMember="0" transform="translate(0,2.83465)">
				<title>工作表.85</title>
			</g>
			<g id="shape86-60" v:mID="86" v:groupContext="shape" v:layerMember="0" transform="translate(23.0309,-2.13696)">
				<title>工作表.86</title>
			</g>
			<g id="shape87-62" v:mID="87" v:groupContext="shape" v:layerMember="0" transform="translate(5.95276,0)">
				<title>工作表.87</title>
				<path d="M13.61 95.38 L0 95.38 L0 78.37 L13.61 78.37 A8.50394 8.50394 0 0 1 13.61 95.38 Z" class="st2"/>
			</g>
		</g>
		<g id="shape88-64" v:mID="88" v:groupContext="shape" v:layerMember="1" transform="translate(226.106,-59.5717)">
			<title>动态连接线.88</title>
			<path d="M0 95.38 L10.63 95.38 L10.63 109.55 L27.78 109.55" class="st4"/>
		</g>
		<g id="shape89-67" v:mID="89" v:groupContext="shape" v:layerMember="1" transform="translate(226.106,-21.3039)">
			<title>动态连接线.89</title>
			<path d="M0 95.38 L10.63 95.38 L10.63 79.79 L27.78 79.79" class="st4"/>
		</g>
		<g id="shape90-70" v:mID="90" v:groupContext="shape" transform="translate(136.331,-41.1465)">
			<title>工作表.90</title>
			<desc>G0</desc>
			<v:textBlock v:margins="rect(4,4,4,4)" v:tabSpace="42.5197"/>
			<v:textRect cx="10.6299" cy="86.8758" width="21.26" height="17.0079"/>
			<rect x="0" y="78.3719" width="21.2598" height="17.0079" class="st5"/>
			<text x="5.68" y="89.58" class="st3" v:langID="1033"><v:paragraph v:horizAlign="1"/><v:tabList/>G0</text>		</g>
		<g id="shape91-73" v:mID="91" v:groupContext="shape" transform="translate(136.331,-18.4693)">
			<title>工作表.91</title>
			<desc>G1</desc>
			<v:textBlock v:margins="rect(4,4,4,4)" v:tabSpace="42.5197"/>
			<v:textRect cx="10.6299" cy="86.8758" width="21.26" height="17.0079"/>
			<rect x="0" y="78.3719" width="21.2598" height="17.0079" class="st5"/>
			<text x="5.68" y="89.58" class="st3" v:langID="1033"><v:paragraph v:horizAlign="1"/><v:tabList/>G1</text>		</g>
		<g id="shape92-76" v:mID="92" v:groupContext="shape" transform="translate(79.6384,-52.485)">
			<title>工作表.92</title>
			<desc>sel0</desc>
			<v:textBlock v:margins="rect(4,4,4,4)" v:tabSpace="42.5197"/>
			<v:textRect cx="14.1732" cy="86.8758" width="28.35" height="17.0079"/>
			<rect x="0" y="78.3719" width="28.3465" height="17.0079" class="st5"/>
			<text x="4.28" y="89.58" class="st3" v:langID="1033"><v:paragraph v:horizAlign="1"/><v:tabList/>sel0</text>		</g>
		<g id="shape94-79" v:mID="94" v:groupContext="shape" v:layerMember="1" transform="translate(156.363,-18.4693)">
			<title>动态连接线.94</title>
			<path d="M0 88.29 L35.73 88.29" class="st4"/>
		</g>
		<g id="shape95-82" v:mID="95" v:groupContext="shape" v:layerMember="1" transform="translate(156.741,-48.2331)">
			<title>动态连接线.95</title>
			<path d="M0 88.29 L35.35 88.29" class="st4"/>
		</g>
		<g id="shape96-85" v:mID="96" v:groupContext="shape" transform="translate(81.0558,-7.9706)">
			<title>工作表.96</title>
			<desc>sel1</desc>
			<v:textBlock v:margins="rect(4,4,4,4)" v:tabSpace="42.5197"/>
			<v:textRect cx="14.1732" cy="86.8758" width="28.35" height="17.0079"/>
			<rect x="0" y="78.3719" width="28.3465" height="17.0079" class="st5"/>
			<text x="4.28" y="89.58" class="st3" v:langID="1033"><v:paragraph v:horizAlign="1"/><v:tabList/>sel1</text>		</g>
		<g id="shape98-88" v:mID="98" v:groupContext="shape" v:layerMember="1" transform="translate(156.363,-9.96535)">
			<title>动态连接线.98</title>
			<path d="M0 88.29 L35.73 88.29" class="st4"/>
		</g>
		<g id="shape99-91" v:mID="99" v:groupContext="shape" v:layerMember="1" transform="translate(156.741,-56.737)">
			<title>动态连接线.99</title>
			<path d="M0 88.29 L35.35 88.29" class="st4"/>
		</g>
		<g id="shape100-94" v:mID="100" v:groupContext="shape" transform="translate(128.89,-7.13071)">
			<title>工作表.100</title>
			<desc>clk1</desc>
			<v:textBlock v:margins="rect(4,4,4,4)" v:tabSpace="42.5197"/>
			<v:textRect cx="14.1732" cy="86.8758" width="28.35" height="17.0079"/>
			<rect x="0" y="78.3719" width="28.3465" height="17.0079" class="st5"/>
			<text x="4.28" y="89.58" class="st3" v:langID="1033"><v:paragraph v:horizAlign="1"/><v:tabList/>clk1</text>		</g>
		<g id="shape101-97" v:mID="101" v:groupContext="shape" transform="translate(128.89,-55.3197)">
			<title>工作表.101</title>
			<desc>clk0</desc>
			<v:textBlock v:margins="rect(4,4,4,4)" v:tabSpace="42.5197"/>
			<v:textRect cx="14.1732" cy="86.8758" width="28.35" height="17.0079"/>
			<rect x="0" y="78.3719" width="28.3465" height="17.0079" class="st5"/>
			<text x="4.28" y="89.58" class="st3" v:langID="1033"><v:paragraph v:horizAlign="1"/><v:tabList/>clk0</text>		</g>
		<g id="shape103-100" v:mID="103" v:groupContext="shape" v:layerMember="0" transform="translate(312.121,-38.4299)">
			<title>工作表.103</title>
			<desc>clkout</desc>
			<v:userDefs>
				<v:ud v:nameU="Form" v:val="VT0(0):26"/>
				<v:ud v:nameU="visVersion" v:val="VT0(14):26"/>
				<v:ud v:nameU="visDescription" v:val="VT4(单向或双向输入/输出端口。 )"/>
			</v:userDefs>
			<v:textBlock v:margins="rect(1,1,1,1)" v:tabSpace="42.5197" v:verticalAlign="0"/>
			<v:textRect cx="10.6299" cy="83.663" width="36.65" height="12.8036"/>
			<path d="M0 92.72 L0 90.06 L15.94 90.06 L21.26 92.72 L15.94 95.38 L0 95.38 L0 92.72 Z" class="st2"/>
			<text x="-4.21" y="86.36" class="st3" v:langID="2052"><v:paragraph v:horizAlign="1"/><v:tabList/>clk<tspan class="st6"
						v:langID="1033">out</tspan></text>		</g>
		<g id="shape104-104" v:mID="104" v:groupContext="shape" v:layerMember="1" transform="translate(287.902,-48.2035)">
			<title>动态连接线.104</title>
			<path d="M0 102.44 L24.22 102.5" class="st4"/>
		</g>
		<g id="shape105-107" v:mID="105" v:groupContext="shape" transform="translate(34.9928,-65.9818)">
			<title>工作表.105</title>
			<desc>part0</desc>
			<v:textBlock v:margins="rect(4,4,4,4)" v:tabSpace="42.5197"/>
			<v:textRect cx="19.4882" cy="86.8758" width="38.98" height="17.0079"/>
			<rect x="0" y="78.3719" width="38.9764" height="17.0079" class="st5"/>
			<text x="7.12" y="89.58" class="st3" v:langID="1033"><v:paragraph v:horizAlign="1"/><v:tabList/>part0</text>		</g>
		<g id="shape106-110" v:mID="106" v:groupContext="shape" transform="translate(213.888,-77.9969)">
			<title>工作表.106</title>
			<desc>part1</desc>
			<v:textBlock v:margins="rect(4,4,4,4)" v:tabSpace="42.5197"/>
			<v:textRect cx="19.4882" cy="86.8758" width="38.98" height="17.0079"/>
			<rect x="0" y="78.3719" width="38.9764" height="17.0079" class="st5"/>
			<text x="7.12" y="89.58" class="st3" v:langID="1033"><v:paragraph v:horizAlign="1"/><v:tabList/>part1</text>		</g>
	</g>
</svg>
