<?xml version="1.0" encoding="UTF-8" standalone="no"?>
<!DOCTYPE svg PUBLIC "-//W3C//DTD SVG 1.1//EN" "http://www.w3.org/Graphics/SVG/1.1/DTD/svg11.dtd">
<!-- 由 Microsoft Visio, SVG Export 生成 clkmux3.svg 页-1 -->
<svg xmlns="http://www.w3.org/2000/svg" xmlns:xlink="http://www.w3.org/1999/xlink" xmlns:ev="http://www.w3.org/2001/xml-events"
		xmlns:v="http://schemas.microsoft.com/visio/2003/SVGExtensions/" width="4.77912in" height="1.36409in"
		viewBox="0 0 344.096 98.2144" xml:space="preserve" color-interpolation-filters="sRGB" class="st8">
	<v:documentProperties v:langID="2052" v:metric="true" v:viewMarkup="false"/>

	<style type="text/css">
	<![CDATA[
		.st1 {fill:#ffffff;stroke:#ff0000;stroke-dasharray:5.25,3.75,0,3.75,0,3.75;stroke-linecap:round;stroke-linejoin:round;stroke-width:0.75}
		.st2 {stroke:#000000;stroke-linecap:round;stroke-linejoin:round;stroke-width:0.24}
		.st3 {fill:#ffffff;stroke:#000000;stroke-linecap:round;stroke-linejoin:round;stroke-width:0.24}
		.st4 {fill:none;stroke:none;stroke-linecap:round;stroke-linejoin:round;stroke-width:0.75}
		.st5 {fill:#000000;font-family:YaHei Consolas Hybrid;font-size:0.75em}
		.st6 {stroke:#002060;stroke-linecap:round;stroke-linejoin:round;stroke-width:0.24}
		.st7 {stroke:#923931;stroke-linecap:round;stroke-linejoin:round;stroke-width:0.24}
		.st8 {fill:none;fill-rule:evenodd;font-size:12px;overflow:visible;stroke-linecap:square;stroke-miterlimit:3}
	]]>
	</style>

	<g v:mID="0" v:index="1" v:groupContext="foregroundPage">
		<title>页-1</title>
		<v:pageProperties v:drawingScale="0.0393701" v:pageScale="0.0393701" v:drawingUnits="24" v:shadowOffsetX="8.50394"
				v:shadowOffsetY="-8.50394"/>
		<v:layer v:name="电气" v:index="0"/>
		<v:layer v:name="连接线" v:index="1"/>
		<g id="shape150-1" v:mID="150" v:groupContext="shape" transform="translate(45.1978,-5.71339)">
			<title>工作表.150</title>
			<path d="M0 98.21 L87.17 98.21 L87.17 27.35 L0 27.35 L0 98.21 Z" class="st1"/>
		</g>
		<g id="group119-3" transform="translate(85.0121,-12.8)" v:mID="119" v:groupContext="group" v:layerMember="0">
			<v:custProps>
				<v:cp v:nameU="Input" v:lbl="输入数目" v:type="1" v:format="2;3;4;5" v:sortKey="2" v:langID="2052" v:val="VT4(2)"/>
				<v:cp v:nameU="Type" v:lbl="门类型" v:type="1" v:format="OR;AND;NOR;NAND;XOR;XNOR" v:sortKey="1" v:langID="1033"
						v:val="VT4(XOR)"/>
				<v:cp v:nameU="Out" v:lbl="输出数目" v:type="1" v:format="1;2;3" v:sortKey="3" v:langID="2052" v:val="VT4(1)"/>
				<v:cp v:nameU="Type" v:lbl="" v:prompt="" v:type="0" v:format="" v:sortKey="" v:invis="false" v:ask="false"
						v:langID="0" v:cal="0" v:val="VT4(NOR)"/>
			</v:custProps>
			<v:userDefs>
				<v:ud v:nameU="SubType" v:val="VT0(4):26"/>
				<v:ud v:nameU="Margin" v:val="VT0(0.059055118110236):24"/>
				<v:ud v:nameU="LimitHeight" v:val="VT0(0):26"/>
				<v:ud v:nameU="visVersion" v:val="VT0(14):26"/>
				<v:ud v:nameU="visDescription" v:val="VT4(表示各种形式的逻辑门。)"/>
				<v:ud v:nameU="SubType" v:prompt="" v:val="VT0(2):26"/>
			</v:userDefs>
			<title>工作表.119</title>
			<g id="shape120-4" v:mID="120" v:groupContext="shape" v:layerMember="0" transform="translate(0,-4.25197)">
				<title>工作表.120</title>
				<path d="M0 89.71 L17.01 89.71" class="st2"/>
				<path d="M0 98.21 L17.01 98.21" class="st2"/>
				<path d="M34.02 93.96 L17.01 93.96" class="st2"/>
			</g>
			<g id="shape121-9" v:mID="121" v:groupContext="shape" v:layerMember="0" transform="translate(5.95276,1.42109E-014)">
				<title>工作表.121</title>
				<v:userDefs>
					<v:ud v:nameU="X" v:val="VT0(0.029527559055118):24"/>
				</v:userDefs>
				<path d="M22.11 89.71 A22.9017 14.031 0 0 1 6.63 98.21 L0 98.21 A32.8126 20.103 -180 0 0 -0 81.21 L6.63 81.21 A22.5949
							 13.8431 0 0 1 22.11 89.71 Z" class="st3"/>
			</g>
			<g id="shape122-11" v:mID="122" v:groupContext="shape" v:layerMember="0" transform="translate(0,2.83465)">
				<title>工作表.122</title>
			</g>
			<g id="shape123-13" v:mID="123" v:groupContext="shape" v:layerMember="0" transform="translate(23.0309,-2.13696)">
				<title>工作表.123</title>
				<path d="M7.51 91.85 A1.27339 1.27339 -180 0 0 4.97 91.85 A1.27339 1.27339 -180 0 0 7.51 91.85 Z" class="st3"/>
			</g>
			<g id="shape124-15" v:mID="124" v:groupContext="shape" v:layerMember="0" transform="translate(5.95276,1.42109E-014)">
				<title>工作表.124</title>
			</g>
		</g>
		<g id="group125-17" transform="translate(85.0121,-51.0677)" v:mID="125" v:groupContext="group" v:layerMember="0">
			<v:custProps>
				<v:cp v:nameU="Input" v:lbl="输入数目" v:type="1" v:format="2;3;4;5" v:sortKey="2" v:langID="2052" v:val="VT4(2)"/>
				<v:cp v:nameU="Type" v:lbl="门类型" v:type="1" v:format="OR;AND;NOR;NAND;XOR;XNOR" v:sortKey="1" v:langID="1033"
						v:val="VT4(XOR)"/>
				<v:cp v:nameU="Out" v:lbl="输出数目" v:type="1" v:format="1;2;3" v:sortKey="3" v:langID="2052" v:val="VT4(1)"/>
				<v:cp v:nameU="Type" v:lbl="" v:prompt="" v:type="0" v:format="" v:sortKey="" v:invis="false" v:ask="false"
						v:langID="0" v:cal="0" v:val="VT4(NOR)"/>
			</v:custProps>
			<v:userDefs>
				<v:ud v:nameU="SubType" v:val="VT0(4):26"/>
				<v:ud v:nameU="Margin" v:val="VT0(0.059055118110236):24"/>
				<v:ud v:nameU="LimitHeight" v:val="VT0(0):26"/>
				<v:ud v:nameU="visVersion" v:val="VT0(14):26"/>
				<v:ud v:nameU="visDescription" v:val="VT4(表示各种形式的逻辑门。)"/>
				<v:ud v:nameU="SubType" v:prompt="" v:val="VT0(2):26"/>
			</v:userDefs>
			<title>工作表.125</title>
			<g id="shape126-18" v:mID="126" v:groupContext="shape" v:layerMember="0" transform="translate(0,-4.25197)">
				<title>工作表.126</title>
				<path d="M0 89.71 L17.01 89.71" class="st2"/>
				<path d="M0 98.21 L17.01 98.21" class="st2"/>
				<path d="M34.02 93.96 L17.01 93.96" class="st2"/>
			</g>
			<g id="shape127-23" v:mID="127" v:groupContext="shape" v:layerMember="0" transform="translate(5.95276,1.42109E-014)">
				<title>工作表.127</title>
				<v:userDefs>
					<v:ud v:nameU="X" v:val="VT0(0.029527559055118):24"/>
				</v:userDefs>
				<path d="M22.11 89.71 A22.9017 14.031 0 0 1 6.63 98.21 L0 98.21 A32.8126 20.103 -180 0 0 -0 81.21 L6.63 81.21 A22.5949
							 13.8431 0 0 1 22.11 89.71 Z" class="st3"/>
			</g>
			<g id="shape128-25" v:mID="128" v:groupContext="shape" v:layerMember="0" transform="translate(0,2.83465)">
				<title>工作表.128</title>
			</g>
			<g id="shape129-27" v:mID="129" v:groupContext="shape" v:layerMember="0" transform="translate(23.0309,-2.13696)">
				<title>工作表.129</title>
				<path d="M7.51 91.85 A1.27339 1.27339 -180 0 0 4.97 91.85 A1.27339 1.27339 -180 0 0 7.51 91.85 Z" class="st3"/>
			</g>
			<g id="shape130-29" v:mID="130" v:groupContext="shape" v:layerMember="0" transform="translate(5.95276,1.42109E-014)">
				<title>工作表.130</title>
			</g>
		</g>
		<g id="shape135-31" v:mID="135" v:groupContext="shape" v:layerMember="1" transform="translate(28.7215,-9.96535)">
			<title>动态连接线.135</title>
			<path d="M0 91.13 L56.29 91.13" class="st2"/>
		</g>
		<g id="shape136-34" v:mID="136" v:groupContext="shape" v:layerMember="1" transform="translate(62.9144,-46.2488)">
			<title>动态连接线.136</title>
			<path d="M0 98.21 L0 80.64 L22.1 80.64" class="st2"/>
		</g>
		<g id="shape137-37" v:mID="137" v:groupContext="shape" transform="translate(0.375,-7.78031)">
			<title>工作表.137</title>
			<desc>sel</desc>
			<v:textBlock v:margins="rect(4,4,4,4)" v:tabSpace="42.5197"/>
			<v:textRect cx="14.1732" cy="89.7104" width="28.35" height="17.0079"/>
			<rect x="0" y="81.2065" width="28.3465" height="17.0079" class="st4"/>
			<text x="6.75" y="92.41" class="st5" v:langID="1033"><v:paragraph v:horizAlign="1"/><v:tabList/>sel</text>		</g>
		<g id="shape139-40" v:mID="139" v:groupContext="shape" transform="translate(59.7046,-80.8315)">
			<title>工作表.139</title>
			<desc>part0_a</desc>
			<v:textBlock v:margins="rect(4,4,4,4)" v:tabSpace="42.5197"/>
			<v:textRect cx="25.6994" cy="89.7104" width="51.4" height="17.0079"/>
			<rect x="0" y="81.2065" width="51.3988" height="17.0079" class="st4"/>
			<text x="8.38" y="92.41" class="st5" v:langID="1033"><v:paragraph v:horizAlign="1"/><v:tabList/>part0_a</text>		</g>
		<g id="shape140-43" v:mID="140" v:groupContext="shape" v:layerMember="1" transform="translate(119.028,-59.5717)">
			<title>动态连接线.140</title>
			<path d="M0 98.21 C10.63 98.21 10.63 106.37 3.74 111.05 C-5.54 117.35 -27.3 117.35 -36.54 122.28 C-43.36 125.91 -43.36
						 132.23 -34.02 132.23" class="st6"/>
		</g>
		<g id="shape141-46" v:mID="141" v:groupContext="shape" v:layerMember="1" transform="translate(119.028,-21.3039)">
			<title>动态连接线.141</title>
			<path d="M0 98.21 C10.63 98.21 10.63 90.02 3.47 85.34 C-6.09 79.08 -28.44 79.08 -37.83 74.08 C-44.65 70.45 -44.65 64.2
						 -34.02 64.2" class="st7"/>
		</g>
		<g id="group142-49" transform="translate(-29.6307,64.1545) rotate(-90)" v:mID="142" v:groupContext="group"
				v:layerMember="0">
			<v:userDefs>
				<v:ud v:nameU="Form" v:val="VT0(0):26"/>
				<v:ud v:nameU="visDescription" v:val="VT4(表示反相器。)"/>
				<v:ud v:nameU="visVersion" v:val="VT0(15):26"/>
			</v:userDefs>
			<title>反相器.142</title>
			<g id="shape143-50" v:mID="143" v:groupContext="shape" v:layerMember="0"
					transform="translate(69.024,17.9658) rotate(45)">
				<title>工作表.143</title>
			</g>
			<g id="shape144-52" v:mID="144" v:groupContext="shape" v:layerMember="0">
				<title>工作表.144</title>
				<desc>1</desc>
				<v:textBlock v:margins="rect(1,1,1,1)" v:tabSpace="42.5197" v:verticalAlign="0"/>
				<v:textRect cx="5.66929" cy="89.7104" width="11.34" height="12.8036"/>
				<path d="M11.34 92.55 a0.850394 0.850394 -180 1 0 1.70079 1.42109E-014 a0.850394 0.850394 -180 0 0 -1.70079 0 ZM0
							 86.88 L11.34 92.55 L0 98.21 L0 86.88 Z" class="st3"/>
			</g>
		</g>
		<g id="shape145-54" v:mID="145" v:groupContext="shape" v:layerMember="1" transform="translate(49.0128,-17.052)">
			<title>动态连接线.145</title>
			<path d="M0.27 98.21 L13.9 98.21 L13.9 81.21" class="st2"/>
		</g>
		<g id="shape146-57" v:mID="146" v:groupContext="shape" transform="translate(139.45,-54.8997)">
			<title>工作表.146</title>
			<desc>sel1</desc>
			<v:textBlock v:margins="rect(4,4,4,4)" v:tabSpace="42.5197"/>
			<v:textRect cx="14.1732" cy="89.7104" width="28.35" height="17.0079"/>
			<rect x="0" y="81.2065" width="28.3465" height="17.0079" class="st4"/>
			<text x="4.28" y="92.41" class="st5" v:langID="1033"><v:paragraph v:horizAlign="1"/><v:tabList/>sel1</text>		</g>
		<g id="shape147-60" v:mID="147" v:groupContext="shape" transform="translate(140.867,-10.3853)">
			<title>工作表.147</title>
			<desc>sel0</desc>
			<v:textBlock v:margins="rect(4,4,4,4)" v:tabSpace="42.5197"/>
			<v:textRect cx="14.1732" cy="89.7104" width="28.35" height="17.0079"/>
			<rect x="0" y="81.2065" width="28.3465" height="17.0079" class="st4"/>
			<text x="4.28" y="92.41" class="st5" v:langID="1033"><v:paragraph v:horizAlign="1"/><v:tabList/>sel0</text>		</g>
		<g id="shape148-63" v:mID="148" v:groupContext="shape" v:layerMember="1" transform="translate(119.028,-14.3945)">
			<title>动态连接线.148</title>
			<path d="M0 91.3 L21.31 90.95" class="st2"/>
		</g>
		<g id="shape149-66" v:mID="149" v:groupContext="shape" v:layerMember="1" transform="translate(119.028,-52.485)">
			<title>动态连接线.149</title>
			<path d="M0 91.13 L21.31 91.13" class="st2"/>
		</g>
		<g id="shape151-69" v:mID="151" v:groupContext="shape" transform="translate(219.706,-5.71339)">
			<title>工作表.151</title>
			<path d="M0 98.21 L87.17 98.21 L87.17 27.35 L0 27.35 L0 98.21 Z" class="st1"/>
		</g>
		<g id="group152-71" transform="translate(259.52,-12.8)" v:mID="152" v:groupContext="group" v:layerMember="0">
			<v:custProps>
				<v:cp v:nameU="Input" v:lbl="输入数目" v:type="1" v:format="2;3;4;5" v:sortKey="2" v:langID="2052" v:val="VT4(2)"/>
				<v:cp v:nameU="Type" v:lbl="门类型" v:type="1" v:format="OR;AND;NOR;NAND;XOR;XNOR" v:sortKey="1" v:langID="1033"
						v:val="VT4(XOR)"/>
				<v:cp v:nameU="Out" v:lbl="输出数目" v:type="1" v:format="1;2;3" v:sortKey="3" v:langID="2052" v:val="VT4(1)"/>
				<v:cp v:nameU="Type" v:lbl="" v:prompt="" v:type="0" v:format="" v:sortKey="" v:invis="false" v:ask="false"
						v:langID="0" v:cal="0" v:val="VT4(NAND)"/>
			</v:custProps>
			<v:userDefs>
				<v:ud v:nameU="SubType" v:val="VT0(4):26"/>
				<v:ud v:nameU="Margin" v:val="VT0(0.059055118110236):24"/>
				<v:ud v:nameU="LimitHeight" v:val="VT0(0):26"/>
				<v:ud v:nameU="visVersion" v:val="VT0(14):26"/>
				<v:ud v:nameU="visDescription" v:val="VT4(表示各种形式的逻辑门。)"/>
				<v:ud v:nameU="SubType" v:prompt="" v:val="VT0(3):26"/>
			</v:userDefs>
			<title>工作表.152</title>
			<g id="shape153-72" v:mID="153" v:groupContext="shape" v:layerMember="0" transform="translate(0,-4.25197)">
				<title>工作表.153</title>
				<path d="M0 89.71 L17.01 89.71" class="st2"/>
				<path d="M0 98.21 L17.01 98.21" class="st2"/>
				<path d="M34.02 93.96 L17.01 93.96" class="st2"/>
			</g>
			<g id="shape154-77" v:mID="154" v:groupContext="shape" v:layerMember="0" transform="translate(5.95276,1.42109E-014)">
				<title>工作表.154</title>
				<v:userDefs>
					<v:ud v:nameU="X" v:val="VT0(0.029527559055118):24"/>
				</v:userDefs>
				<path d="M22.11 89.71 A22.9017 14.031 0 0 1 6.63 98.21 L0 98.21 A32.8126 20.103 -180 0 0 -0 81.21 L6.63 81.21 A22.5949
							 13.8431 0 0 1 22.11 89.71 Z" class="st3"/>
			</g>
			<g id="shape155-79" v:mID="155" v:groupContext="shape" v:layerMember="0" transform="translate(0,2.83465)">
				<title>工作表.155</title>
			</g>
			<g id="shape156-81" v:mID="156" v:groupContext="shape" v:layerMember="0" transform="translate(23.0309,-2.13696)">
				<title>工作表.156</title>
				<path d="M7.51 91.85 A1.27339 1.27339 -180 0 0 4.97 91.85 A1.27339 1.27339 -180 0 0 7.51 91.85 Z" class="st3"/>
			</g>
			<g id="shape157-83" v:mID="157" v:groupContext="shape" v:layerMember="0" transform="translate(5.95276,1.42109E-014)">
				<title>工作表.157</title>
				<path d="M13.61 98.21 L0 98.21 L0 81.21 L13.61 81.21 A8.50394 8.50394 0 0 1 13.61 98.21 Z" class="st3"/>
			</g>
		</g>
		<g id="group158-85" transform="translate(259.52,-51.0677)" v:mID="158" v:groupContext="group" v:layerMember="0">
			<v:custProps>
				<v:cp v:nameU="Input" v:lbl="输入数目" v:type="1" v:format="2;3;4;5" v:sortKey="2" v:langID="2052" v:val="VT4(2)"/>
				<v:cp v:nameU="Type" v:lbl="门类型" v:type="1" v:format="OR;AND;NOR;NAND;XOR;XNOR" v:sortKey="1" v:langID="1033"
						v:val="VT4(XOR)"/>
				<v:cp v:nameU="Out" v:lbl="输出数目" v:type="1" v:format="1;2;3" v:sortKey="3" v:langID="2052" v:val="VT4(1)"/>
				<v:cp v:nameU="Type" v:lbl="" v:prompt="" v:type="0" v:format="" v:sortKey="" v:invis="false" v:ask="false"
						v:langID="0" v:cal="0" v:val="VT4(NAND)"/>
			</v:custProps>
			<v:userDefs>
				<v:ud v:nameU="SubType" v:val="VT0(4):26"/>
				<v:ud v:nameU="Margin" v:val="VT0(0.059055118110236):24"/>
				<v:ud v:nameU="LimitHeight" v:val="VT0(0):26"/>
				<v:ud v:nameU="visVersion" v:val="VT0(14):26"/>
				<v:ud v:nameU="visDescription" v:val="VT4(表示各种形式的逻辑门。)"/>
				<v:ud v:nameU="SubType" v:prompt="" v:val="VT0(3):26"/>
			</v:userDefs>
			<title>工作表.158</title>
			<g id="shape159-86" v:mID="159" v:groupContext="shape" v:layerMember="0" transform="translate(0,-4.25197)">
				<title>工作表.159</title>
				<path d="M0 89.71 L17.01 89.71" class="st2"/>
				<path d="M0 98.21 L17.01 98.21" class="st2"/>
				<path d="M34.02 93.96 L17.01 93.96" class="st2"/>
			</g>
			<g id="shape160-91" v:mID="160" v:groupContext="shape" v:layerMember="0" transform="translate(5.95276,1.42109E-014)">
				<title>工作表.160</title>
				<v:userDefs>
					<v:ud v:nameU="X" v:val="VT0(0.029527559055118):24"/>
				</v:userDefs>
				<path d="M22.11 89.71 A22.9017 14.031 0 0 1 6.63 98.21 L0 98.21 A32.8126 20.103 -180 0 0 -0 81.21 L6.63 81.21 A22.5949
							 13.8431 0 0 1 22.11 89.71 Z" class="st3"/>
			</g>
			<g id="shape161-93" v:mID="161" v:groupContext="shape" v:layerMember="0" transform="translate(0,2.83465)">
				<title>工作表.161</title>
			</g>
			<g id="shape162-95" v:mID="162" v:groupContext="shape" v:layerMember="0" transform="translate(23.0309,-2.13696)">
				<title>工作表.162</title>
				<path d="M7.51 91.85 A1.27339 1.27339 -180 0 0 4.97 91.85 A1.27339 1.27339 -180 0 0 7.51 91.85 Z" class="st3"/>
			</g>
			<g id="shape163-97" v:mID="163" v:groupContext="shape" v:layerMember="0" transform="translate(5.95276,1.42109E-014)">
				<title>工作表.163</title>
				<path d="M13.61 98.21 L0 98.21 L0 81.21 L13.61 81.21 A8.50394 8.50394 0 0 1 13.61 98.21 Z" class="st3"/>
			</g>
		</g>
		<g id="shape164-99" v:mID="164" v:groupContext="shape" v:layerMember="1" transform="translate(203.229,-9.96535)">
			<title>动态连接线.164</title>
			<path d="M0 91.13 L56.29 91.13" class="st2"/>
		</g>
		<g id="shape165-102" v:mID="165" v:groupContext="shape" v:layerMember="1" transform="translate(237.422,-46.2488)">
			<title>动态连接线.165</title>
			<path d="M0 98.21 L0 80.64 L22.1 80.64" class="st2"/>
		</g>
		<g id="shape166-105" v:mID="166" v:groupContext="shape" transform="translate(174.883,-7.78031)">
			<title>工作表.166</title>
			<desc>sel</desc>
			<v:textBlock v:margins="rect(4,4,4,4)" v:tabSpace="42.5197"/>
			<v:textRect cx="14.1732" cy="89.7104" width="28.35" height="17.0079"/>
			<rect x="0" y="81.2065" width="28.3465" height="17.0079" class="st4"/>
			<text x="6.75" y="92.41" class="st5" v:langID="1033"><v:paragraph v:horizAlign="1"/><v:tabList/>sel</text>		</g>
		<g id="shape167-108" v:mID="167" v:groupContext="shape" transform="translate(234.212,-80.8315)">
			<title>工作表.167</title>
			<desc>part0_b</desc>
			<v:textBlock v:margins="rect(4,4,4,4)" v:tabSpace="42.5197"/>
			<v:textRect cx="25.6994" cy="89.7104" width="51.4" height="17.0079"/>
			<rect x="0" y="81.2065" width="51.3988" height="17.0079" class="st4"/>
			<text x="8.38" y="92.41" class="st5" v:langID="1033"><v:paragraph v:horizAlign="1"/><v:tabList/>part0_b</text>		</g>
		<g id="shape168-111" v:mID="168" v:groupContext="shape" v:layerMember="1" transform="translate(293.536,-59.5717)">
			<title>动态连接线.168</title>
			<path d="M0 98.21 C10.63 98.21 10.63 106.37 3.74 111.05 C-5.54 117.35 -27.3 117.35 -36.54 122.28 C-43.36 125.91 -43.36
						 132.23 -34.02 132.23" class="st6"/>
		</g>
		<g id="shape169-114" v:mID="169" v:groupContext="shape" v:layerMember="1" transform="translate(293.536,-21.3039)">
			<title>动态连接线.169</title>
			<path d="M0 98.21 C10.63 98.21 10.63 90.02 3.47 85.34 C-6.09 79.08 -28.44 79.08 -37.83 74.08 C-44.65 70.45 -44.65 64.2
						 -34.02 64.2" class="st7"/>
		</g>
		<g id="group170-117" transform="translate(144.877,64.1545) rotate(-90)" v:mID="170" v:groupContext="group"
				v:layerMember="0">
			<v:userDefs>
				<v:ud v:nameU="Form" v:val="VT0(0):26"/>
				<v:ud v:nameU="visDescription" v:val="VT4(表示反相器。)"/>
				<v:ud v:nameU="visVersion" v:val="VT0(15):26"/>
			</v:userDefs>
			<title>反相器.170</title>
			<g id="shape171-118" v:mID="171" v:groupContext="shape" v:layerMember="0"
					transform="translate(69.024,17.9658) rotate(45)">
				<title>工作表.171</title>
			</g>
			<g id="shape172-120" v:mID="172" v:groupContext="shape" v:layerMember="0">
				<title>工作表.172</title>
				<desc>1</desc>
				<v:textBlock v:margins="rect(1,1,1,1)" v:tabSpace="42.5197" v:verticalAlign="0"/>
				<v:textRect cx="5.66929" cy="89.7104" width="11.34" height="12.8036"/>
				<path d="M11.34 92.55 a0.850394 0.850394 -180 1 0 1.70079 1.42109E-014 a0.850394 0.850394 -180 0 0 -1.70079 0 ZM0
							 86.88 L11.34 92.55 L0 98.21 L0 86.88 Z" class="st3"/>
			</g>
		</g>
		<g id="shape173-122" v:mID="173" v:groupContext="shape" v:layerMember="1" transform="translate(223.521,-17.052)">
			<title>动态连接线.173</title>
			<path d="M0.27 98.21 L13.9 98.21 L13.9 81.21" class="st2"/>
		</g>
		<g id="shape174-125" v:mID="174" v:groupContext="shape" transform="translate(313.958,-54.8997)">
			<title>工作表.174</title>
			<desc>sel1</desc>
			<v:textBlock v:margins="rect(4,4,4,4)" v:tabSpace="42.5197"/>
			<v:textRect cx="14.1732" cy="89.7104" width="28.35" height="17.0079"/>
			<rect x="0" y="81.2065" width="28.3465" height="17.0079" class="st4"/>
			<text x="4.28" y="92.41" class="st5" v:langID="1033"><v:paragraph v:horizAlign="1"/><v:tabList/>sel1</text>		</g>
		<g id="shape175-128" v:mID="175" v:groupContext="shape" transform="translate(315.375,-10.3853)">
			<title>工作表.175</title>
			<desc>sel0</desc>
			<v:textBlock v:margins="rect(4,4,4,4)" v:tabSpace="42.5197"/>
			<v:textRect cx="14.1732" cy="89.7104" width="28.35" height="17.0079"/>
			<rect x="0" y="81.2065" width="28.3465" height="17.0079" class="st4"/>
			<text x="4.28" y="92.41" class="st5" v:langID="1033"><v:paragraph v:horizAlign="1"/><v:tabList/>sel0</text>		</g>
		<g id="shape176-131" v:mID="176" v:groupContext="shape" v:layerMember="1" transform="translate(293.536,-14.3945)">
			<title>动态连接线.176</title>
			<path d="M0 91.3 L21.31 90.95" class="st2"/>
		</g>
		<g id="shape177-134" v:mID="177" v:groupContext="shape" v:layerMember="1" transform="translate(293.536,-52.485)">
			<title>动态连接线.177</title>
			<path d="M0 91.13 L21.31 91.13" class="st2"/>
		</g>
	</g>
</svg>
