<?xml version="1.0" encoding="UTF-8" standalone="no"?>
<!DOCTYPE svg PUBLIC "-//W3C//DTD SVG 1.1//EN" "http://www.w3.org/Graphics/SVG/1.1/DTD/svg11.dtd">
<!-- 由 Microsoft Visio, SVG Export 生成 clkmux6.svg 页-1 -->
<svg xmlns="http://www.w3.org/2000/svg" xmlns:xlink="http://www.w3.org/1999/xlink" xmlns:ev="http://www.w3.org/2001/xml-events"
		xmlns:v="http://schemas.microsoft.com/visio/2003/SVGExtensions/" width="6.15023in" height="1.98466in"
		viewBox="0 0 442.816 142.896" xml:space="preserve" color-interpolation-filters="sRGB" class="st9">
	<v:documentProperties v:langID="2052" v:metric="true" v:viewMarkup="false"/>

	<style type="text/css">
	<![CDATA[
		.st1 {fill:none;stroke:none;stroke-linecap:round;stroke-linejoin:round;stroke-width:0.75}
		.st2 {fill:#000000;font-family:YaHei Consolas Hybrid;font-size:0.75em}
		.st3 {fill:#ffffff;stroke:#ff0000;stroke-dasharray:5.25,3.75,0,3.75,0,3.75;stroke-linecap:round;stroke-linejoin:round;stroke-width:0.75}
		.st4 {stroke:#000000;stroke-linecap:round;stroke-linejoin:round;stroke-width:0.24}
		.st5 {fill:#ffffff;stroke:#000000;stroke-linecap:round;stroke-linejoin:round;stroke-width:0.24}
		.st6 {font-size:1em}
		.st7 {stroke:#002060;stroke-linecap:round;stroke-linejoin:round;stroke-width:0.24}
		.st8 {stroke:#923931;stroke-linecap:round;stroke-linejoin:round;stroke-width:0.24}
		.st9 {fill:none;fill-rule:evenodd;font-size:12px;overflow:visible;stroke-linecap:square;stroke-miterlimit:3}
	]]>
	</style>

	<g v:mID="0" v:index="1" v:groupContext="foregroundPage">
		<title>页-1</title>
		<v:pageProperties v:drawingScale="0.0393701" v:pageScale="0.0393701" v:drawingUnits="24" v:shadowOffsetX="8.50394"
				v:shadowOffsetY="-8.50394"/>
		<v:layer v:name="电气" v:index="0"/>
		<v:layer v:name="连接线" v:index="1"/>
		<g id="shape366-1" v:mID="366" v:groupContext="shape" transform="translate(209.147,-76.9104)">
			<title>工作表.366</title>
			<desc>sel1</desc>
			<v:textBlock v:margins="rect(4,4,4,4)" v:tabSpace="42.5197"/>
			<v:textRect cx="14.1732" cy="137.226" width="28.35" height="11.3386"/>
			<rect x="0" y="131.557" width="28.3465" height="11.3386" class="st1"/>
			<text x="4.28" y="139.93" class="st2" v:langID="1033"><v:paragraph v:horizAlign="1"/><v:tabList/>sel1</text>		</g>
		<g id="shape367-4" v:mID="367" v:groupContext="shape" transform="translate(45.1978,-25.8868)">
			<title>工作表.367</title>
			<path d="M0 142.9 L177.56 142.9 L177.56 60.28 L0 60.28 L0 142.9 Z" class="st3"/>
		</g>
		<g id="group368-6" transform="translate(85.0121,-41.1821)" v:mID="368" v:groupContext="group" v:layerMember="0">
			<v:custProps>
				<v:cp v:nameU="Input" v:lbl="输入数目" v:type="1" v:format="2;3;4;5" v:sortKey="2" v:langID="2052" v:val="VT4(2)"/>
				<v:cp v:nameU="Type" v:lbl="门类型" v:type="1" v:format="OR;AND;NOR;NAND;XOR;XNOR" v:sortKey="1" v:langID="1033"
						v:val="VT4(XOR)"/>
				<v:cp v:nameU="Out" v:lbl="输出数目" v:type="1" v:format="1;2;3" v:sortKey="3" v:langID="2052" v:val="VT4(1)"/>
				<v:cp v:nameU="Type" v:lbl="" v:prompt="" v:type="0" v:format="" v:sortKey="" v:invis="false" v:ask="false"
						v:langID="0" v:cal="0" v:val="VT4(NAND)"/>
			</v:custProps>
			<v:userDefs>
				<v:ud v:nameU="SubType" v:val="VT0(4):26"/>
				<v:ud v:nameU="Margin" v:val="VT0(0.059055118110236):24"/>
				<v:ud v:nameU="LimitHeight" v:val="VT0(0):26"/>
				<v:ud v:nameU="visVersion" v:val="VT0(14):26"/>
				<v:ud v:nameU="visDescription" v:val="VT4(表示各种形式的逻辑门。)"/>
				<v:ud v:nameU="SubType" v:prompt="" v:val="VT0(3):26"/>
			</v:userDefs>
			<title>工作表.368</title>
			<g id="shape369-7" v:mID="369" v:groupContext="shape" v:layerMember="0" transform="translate(0,-4.25197)">
				<title>工作表.369</title>
				<path d="M0 134.39 L17.01 134.39" class="st4"/>
				<path d="M0 142.9 L17.01 142.9" class="st4"/>
				<path d="M34.02 138.64 L17.01 138.64" class="st4"/>
			</g>
			<g id="shape370-12" v:mID="370" v:groupContext="shape" v:layerMember="0" transform="translate(5.95276,0)">
				<title>工作表.370</title>
				<v:userDefs>
					<v:ud v:nameU="X" v:val="VT0(0.029527559055118):24"/>
				</v:userDefs>
				<path d="M22.11 134.39 A22.9017 14.031 0 0 1 6.63 142.9 L0 142.9 A32.8126 20.103 -180 0 0 -0 125.89 L6.63 125.89
							 A22.5949 13.8431 0 0 1 22.11 134.39 Z" class="st5"/>
			</g>
			<g id="shape371-14" v:mID="371" v:groupContext="shape" v:layerMember="0" transform="translate(0,2.83465)">
				<title>工作表.371</title>
			</g>
			<g id="shape372-16" v:mID="372" v:groupContext="shape" v:layerMember="0" transform="translate(23.0309,-2.13696)">
				<title>工作表.372</title>
				<path d="M7.51 136.53 A1.27339 1.27339 -180 0 0 4.97 136.53 A1.27339 1.27339 -180 0 0 7.51 136.53 Z" class="st5"/>
			</g>
			<g id="shape373-18" v:mID="373" v:groupContext="shape" v:layerMember="0" transform="translate(5.95276,0)">
				<title>工作表.373</title>
				<path d="M13.61 142.9 L0 142.9 L0 125.89 L13.61 125.89 A8.50394 8.50394 0 0 1 13.61 142.9 Z" class="st5"/>
			</g>
		</g>
		<g id="group374-20" transform="translate(85.0121,-79.4498)" v:mID="374" v:groupContext="group" v:layerMember="0">
			<v:custProps>
				<v:cp v:nameU="Input" v:lbl="输入数目" v:type="1" v:format="2;3;4;5" v:sortKey="2" v:langID="2052" v:val="VT4(2)"/>
				<v:cp v:nameU="Type" v:lbl="门类型" v:type="1" v:format="OR;AND;NOR;NAND;XOR;XNOR" v:sortKey="1" v:langID="1033"
						v:val="VT4(XOR)"/>
				<v:cp v:nameU="Out" v:lbl="输出数目" v:type="1" v:format="1;2;3" v:sortKey="3" v:langID="2052" v:val="VT4(1)"/>
				<v:cp v:nameU="Type" v:lbl="" v:prompt="" v:type="0" v:format="" v:sortKey="" v:invis="false" v:ask="false"
						v:langID="0" v:cal="0" v:val="VT4(NAND)"/>
			</v:custProps>
			<v:userDefs>
				<v:ud v:nameU="SubType" v:val="VT0(4):26"/>
				<v:ud v:nameU="Margin" v:val="VT0(0.059055118110236):24"/>
				<v:ud v:nameU="LimitHeight" v:val="VT0(0):26"/>
				<v:ud v:nameU="visVersion" v:val="VT0(14):26"/>
				<v:ud v:nameU="visDescription" v:val="VT4(表示各种形式的逻辑门。)"/>
				<v:ud v:nameU="SubType" v:prompt="" v:val="VT0(3):26"/>
			</v:userDefs>
			<title>工作表.374</title>
			<g id="shape375-21" v:mID="375" v:groupContext="shape" v:layerMember="0" transform="translate(0,-4.25197)">
				<title>工作表.375</title>
				<path d="M0 134.39 L17.01 134.39" class="st4"/>
				<path d="M0 142.9 L17.01 142.9" class="st4"/>
				<path d="M34.02 138.64 L17.01 138.64" class="st4"/>
			</g>
			<g id="shape376-26" v:mID="376" v:groupContext="shape" v:layerMember="0" transform="translate(5.95276,0)">
				<title>工作表.376</title>
				<v:userDefs>
					<v:ud v:nameU="X" v:val="VT0(0.029527559055118):24"/>
				</v:userDefs>
				<path d="M22.11 134.39 A22.9017 14.031 0 0 1 6.63 142.9 L0 142.9 A32.8126 20.103 -180 0 0 -0 125.89 L6.63 125.89
							 A22.5949 13.8431 0 0 1 22.11 134.39 Z" class="st5"/>
			</g>
			<g id="shape377-28" v:mID="377" v:groupContext="shape" v:layerMember="0" transform="translate(0,2.83465)">
				<title>工作表.377</title>
			</g>
			<g id="shape378-30" v:mID="378" v:groupContext="shape" v:layerMember="0" transform="translate(23.0309,-2.13696)">
				<title>工作表.378</title>
				<path d="M7.51 136.53 A1.27339 1.27339 -180 0 0 4.97 136.53 A1.27339 1.27339 -180 0 0 7.51 136.53 Z" class="st5"/>
			</g>
			<g id="shape379-32" v:mID="379" v:groupContext="shape" v:layerMember="0" transform="translate(5.95276,0)">
				<title>工作表.379</title>
				<path d="M13.61 142.9 L0 142.9 L0 125.89 L13.61 125.89 A8.50394 8.50394 0 0 1 13.61 142.9 Z" class="st5"/>
			</g>
		</g>
		<g id="shape380-34" v:mID="380" v:groupContext="shape" v:layerMember="1" transform="translate(28.7215,-38.3474)">
			<title>动态连接线.380</title>
			<path d="M0 135.81 L56.29 135.81" class="st4"/>
		</g>
		<g id="shape381-37" v:mID="381" v:groupContext="shape" v:layerMember="1" transform="translate(62.9144,-74.6309)">
			<title>动态连接线.381</title>
			<path d="M0 142.9 L0 125.32 L22.1 125.32" class="st4"/>
		</g>
		<g id="shape382-40" v:mID="382" v:groupContext="shape" transform="translate(0.375,-36.1624)">
			<title>工作表.382</title>
			<desc>sel</desc>
			<v:textBlock v:margins="rect(4,4,4,4)" v:tabSpace="42.5197"/>
			<v:textRect cx="14.1732" cy="134.392" width="28.35" height="17.0079"/>
			<rect x="0" y="125.888" width="28.3465" height="17.0079" class="st1"/>
			<text x="6.75" y="137.09" class="st2" v:langID="1033"><v:paragraph v:horizAlign="1"/><v:tabList/>sel</text>		</g>
		<g id="shape383-43" v:mID="383" v:groupContext="shape" transform="translate(59.7046,-109.214)">
			<title>工作表.383</title>
			<desc>part0_b</desc>
			<v:textBlock v:margins="rect(4,4,4,4)" v:tabSpace="42.5197"/>
			<v:textRect cx="25.6994" cy="134.392" width="51.4" height="17.0079"/>
			<rect x="0" y="125.888" width="51.3988" height="17.0079" class="st1"/>
			<text x="8.38" y="137.09" class="st2" v:langID="1033"><v:paragraph v:horizAlign="1"/><v:tabList/>part0_<tspan
						class="st6" v:langID="2052">b</tspan></text>		</g>
		<g id="shape384-47" v:mID="384" v:groupContext="shape" v:layerMember="1" transform="translate(184.988,-89.0662)">
			<title>动态连接线.384</title>
			<path d="M0 142.9 C1.48 155.05 1.27 163.06 -6.66 166.18 C-15.09 169.49 -32.25 167.27 -43.21 165.89 C-59.54 163.83 -62.09
						 163.63 -73.99 165.25 C-80.45 166.14 -89.69 167.55 -97.76 171.17 C-103.73 173.85 -109.07 177.73 -99.98 178.02"
					class="st7"/>
		</g>
		<g id="shape385-50" v:mID="385" v:groupContext="shape" v:layerMember="1" transform="translate(188.025,-49.0775)">
			<title>动态连接线.385</title>
			<path d="M0 142.9 C4.05 142.9 3.35 138.91 0.6 136.41 C-4.05 132.18 -14.56 132.22 -22.49 132.11 C-33.16 131.97 -39.16
						 131.58 -45.27 129.76 C-52.62 127.56 -60.11 123.3 -74.22 121.32 C-86 119.67 -102.38 119.61 -108.59 114.88
						 C-112.01 112.28 -112.35 108.27 -103.01 108.27" class="st8"/>
		</g>
		<g id="group386-53" transform="translate(-74.312,80.4537) rotate(-90)" v:mID="386" v:groupContext="group" v:layerMember="0">
			<v:userDefs>
				<v:ud v:nameU="Form" v:val="VT0(0):26"/>
				<v:ud v:nameU="visDescription" v:val="VT4(表示反相器。)"/>
				<v:ud v:nameU="visVersion" v:val="VT0(15):26"/>
			</v:userDefs>
			<title>反相器.386</title>
			<g id="shape387-54" v:mID="387" v:groupContext="shape" v:layerMember="0"
					transform="translate(100.618,31.0526) rotate(45)">
				<title>工作表.387</title>
			</g>
			<g id="shape388-56" v:mID="388" v:groupContext="shape" v:layerMember="0">
				<title>工作表.388</title>
				<desc>1</desc>
				<v:textBlock v:margins="rect(1,1,1,1)" v:tabSpace="42.5197" v:verticalAlign="0"/>
				<v:textRect cx="5.66929" cy="134.392" width="11.34" height="12.8036"/>
				<path d="M11.34 137.23 a0.850394 0.850394 -180 1 0 1.70079 0 a0.850394 0.850394 -180 0 0 -1.70079 0 ZM0 131.56 L11.34
							 137.23 L0 142.9 L0 131.56 Z" class="st5"/>
			</g>
		</g>
		<g id="shape389-58" v:mID="389" v:groupContext="shape" v:layerMember="1" transform="translate(49.0128,-45.4341)">
			<title>动态连接线.389</title>
			<path d="M0.27 142.9 L13.9 142.9 L13.9 125.89" class="st4"/>
		</g>
		<g id="shape390-61" v:mID="390" v:groupContext="shape" transform="translate(280.596,-30.5522)">
			<title>工作表.390</title>
			<path d="M0 142.9 L109.05 142.9 L109.05 68.49 L0 68.49 L0 142.9 Z" class="st3"/>
		</g>
		<g id="group391-63" transform="translate(355.63,-63.1506)" v:mID="391" v:groupContext="group" v:layerMember="0">
			<v:custProps>
				<v:cp v:nameU="Input" v:lbl="输入数目" v:type="1" v:format="2;3;4;5" v:sortKey="2" v:langID="2052" v:val="VT4(2)"/>
				<v:cp v:nameU="Type" v:lbl="门类型" v:type="1" v:format="OR;AND;NOR;NAND;XOR;XNOR" v:sortKey="1" v:langID="1033"
						v:val="VT4(XOR)"/>
				<v:cp v:nameU="Out" v:lbl="输出数目" v:type="1" v:format="1;2;3" v:sortKey="3" v:langID="2052" v:val="VT4(1)"/>
				<v:cp v:nameU="Type" v:lbl="" v:prompt="" v:type="0" v:format="" v:sortKey="" v:invis="false" v:ask="false"
						v:langID="0" v:cal="0" v:val="VT4(OR)"/>
			</v:custProps>
			<v:userDefs>
				<v:ud v:nameU="SubType" v:val="VT0(4):26"/>
				<v:ud v:nameU="Margin" v:val="VT0(0.059055118110236):24"/>
				<v:ud v:nameU="LimitHeight" v:val="VT0(0):26"/>
				<v:ud v:nameU="visVersion" v:val="VT0(14):26"/>
				<v:ud v:nameU="visDescription" v:val="VT4(表示各种形式的逻辑门。)"/>
				<v:ud v:nameU="SubType" v:prompt="" v:val="VT0(0):26"/>
			</v:userDefs>
			<title>工作表.391</title>
			<g id="shape392-64" v:mID="392" v:groupContext="shape" v:layerMember="0" transform="translate(0,-4.25197)">
				<title>工作表.392</title>
				<path d="M0 134.39 L17.01 134.39" class="st4"/>
				<path d="M0 142.9 L17.01 142.9" class="st4"/>
				<path d="M34.02 138.64 L17.01 138.64" class="st4"/>
			</g>
			<g id="shape393-69" v:mID="393" v:groupContext="shape" v:layerMember="0" transform="translate(5.95276,0)">
				<title>工作表.393</title>
				<v:userDefs>
					<v:ud v:nameU="X" v:val="VT0(0.029527559055118):24"/>
				</v:userDefs>
				<path d="M22.11 134.39 A22.9017 14.031 0 0 1 6.63 142.9 L0 142.9 A32.8126 20.103 -180 0 0 -0 125.89 L6.63 125.89
							 A22.5949 13.8431 0 0 1 22.11 134.39 Z" class="st5"/>
			</g>
			<g id="shape394-71" v:mID="394" v:groupContext="shape" v:layerMember="0" transform="translate(0,2.83465)">
				<title>工作表.394</title>
			</g>
			<g id="shape395-73" v:mID="395" v:groupContext="shape" v:layerMember="0" transform="translate(23.0309,-2.13696)">
				<title>工作表.395</title>
			</g>
			<g id="shape396-75" v:mID="396" v:groupContext="shape" v:layerMember="0" transform="translate(5.95276,0)">
				<title>工作表.396</title>
			</g>
		</g>
		<g id="group397-77" transform="translate(293.835,-37.0482)" v:mID="397" v:groupContext="group" v:layerMember="0">
			<v:custProps>
				<v:cp v:nameU="Input" v:lbl="输入数目" v:type="1" v:format="2;3;4;5" v:sortKey="2" v:langID="2052" v:val="VT4(2)"/>
				<v:cp v:nameU="Type" v:lbl="门类型" v:type="1" v:format="OR;AND;NOR;NAND;XOR;XNOR" v:sortKey="1" v:langID="1033"
						v:val="VT4(XOR)"/>
				<v:cp v:nameU="Out" v:lbl="输出数目" v:type="1" v:format="1;2;3" v:sortKey="3" v:langID="2052" v:val="VT4(1)"/>
				<v:cp v:nameU="Type" v:lbl="" v:prompt="" v:type="0" v:format="" v:sortKey="" v:invis="false" v:ask="false"
						v:langID="0" v:cal="0" v:val="VT4(AND)"/>
			</v:custProps>
			<v:userDefs>
				<v:ud v:nameU="SubType" v:val="VT0(4):26"/>
				<v:ud v:nameU="Margin" v:val="VT0(0.059055118110236):24"/>
				<v:ud v:nameU="LimitHeight" v:val="VT0(0):26"/>
				<v:ud v:nameU="visVersion" v:val="VT0(14):26"/>
				<v:ud v:nameU="visDescription" v:val="VT4(表示各种形式的逻辑门。)"/>
				<v:ud v:nameU="SubType" v:prompt="" v:val="VT0(1):26"/>
			</v:userDefs>
			<title>工作表.397</title>
			<g id="shape398-78" v:mID="398" v:groupContext="shape" v:layerMember="0" transform="translate(0,-4.25197)">
				<title>工作表.398</title>
				<path d="M0 134.39 L17.01 134.39" class="st4"/>
				<path d="M0 142.9 L17.01 142.9" class="st4"/>
				<path d="M34.02 138.64 L17.01 138.64" class="st4"/>
			</g>
			<g id="shape399-83" v:mID="399" v:groupContext="shape" v:layerMember="0" transform="translate(5.95276,0)">
				<title>工作表.399</title>
				<v:userDefs>
					<v:ud v:nameU="X" v:val="VT0(0.029527559055118):24"/>
				</v:userDefs>
				<path d="M22.11 134.39 A22.9017 14.031 0 0 1 6.63 142.9 L0 142.9 A32.8126 20.103 -180 0 0 -0 125.89 L6.63 125.89
							 A22.5949 13.8431 0 0 1 22.11 134.39 Z" class="st5"/>
			</g>
			<g id="shape400-85" v:mID="400" v:groupContext="shape" v:layerMember="0" transform="translate(0,2.83465)">
				<title>工作表.400</title>
			</g>
			<g id="shape401-87" v:mID="401" v:groupContext="shape" v:layerMember="0" transform="translate(23.0309,-2.13696)">
				<title>工作表.401</title>
			</g>
			<g id="shape402-89" v:mID="402" v:groupContext="shape" v:layerMember="0" transform="translate(5.95276,0)">
				<title>工作表.402</title>
				<path d="M13.61 142.9 L0 142.9 L0 125.89 L13.61 125.89 A8.50394 8.50394 0 0 1 13.61 142.9 Z" class="st5"/>
			</g>
		</g>
		<g id="group403-91" transform="translate(293.835,-85.4144)" v:mID="403" v:groupContext="group" v:layerMember="0">
			<v:custProps>
				<v:cp v:nameU="Input" v:lbl="输入数目" v:type="1" v:format="2;3;4;5" v:sortKey="2" v:langID="2052" v:val="VT4(2)"/>
				<v:cp v:nameU="Type" v:lbl="门类型" v:type="1" v:format="OR;AND;NOR;NAND;XOR;XNOR" v:sortKey="1" v:langID="1033"
						v:val="VT4(XOR)"/>
				<v:cp v:nameU="Out" v:lbl="输出数目" v:type="1" v:format="1;2;3" v:sortKey="3" v:langID="2052" v:val="VT4(1)"/>
				<v:cp v:nameU="Type" v:lbl="" v:prompt="" v:type="0" v:format="" v:sortKey="" v:invis="false" v:ask="false"
						v:langID="0" v:cal="0" v:val="VT4(AND)"/>
			</v:custProps>
			<v:userDefs>
				<v:ud v:nameU="SubType" v:val="VT0(4):26"/>
				<v:ud v:nameU="Margin" v:val="VT0(0.059055118110236):24"/>
				<v:ud v:nameU="LimitHeight" v:val="VT0(0):26"/>
				<v:ud v:nameU="visVersion" v:val="VT0(14):26"/>
				<v:ud v:nameU="visDescription" v:val="VT4(表示各种形式的逻辑门。)"/>
				<v:ud v:nameU="SubType" v:prompt="" v:val="VT0(1):26"/>
			</v:userDefs>
			<title>工作表.403</title>
			<g id="shape404-92" v:mID="404" v:groupContext="shape" v:layerMember="0" transform="translate(0,-4.25197)">
				<title>工作表.404</title>
				<path d="M0 134.39 L17.01 134.39" class="st4"/>
				<path d="M0 142.9 L17.01 142.9" class="st4"/>
				<path d="M34.02 138.64 L17.01 138.64" class="st4"/>
			</g>
			<g id="shape405-97" v:mID="405" v:groupContext="shape" v:layerMember="0" transform="translate(5.95276,0)">
				<title>工作表.405</title>
				<v:userDefs>
					<v:ud v:nameU="X" v:val="VT0(0.029527559055118):24"/>
				</v:userDefs>
				<path d="M22.11 134.39 A22.9017 14.031 0 0 1 6.63 142.9 L0 142.9 A32.8126 20.103 -180 0 0 -0 125.89 L6.63 125.89
							 A22.5949 13.8431 0 0 1 22.11 134.39 Z" class="st5"/>
			</g>
			<g id="shape406-99" v:mID="406" v:groupContext="shape" v:layerMember="0" transform="translate(0,2.83465)">
				<title>工作表.406</title>
			</g>
			<g id="shape407-101" v:mID="407" v:groupContext="shape" v:layerMember="0" transform="translate(23.0309,-2.13696)">
				<title>工作表.407</title>
			</g>
			<g id="shape408-103" v:mID="408" v:groupContext="shape" v:layerMember="0" transform="translate(5.95276,0)">
				<title>工作表.408</title>
				<path d="M13.61 142.9 L0 142.9 L0 125.89 L13.61 125.89 A8.50394 8.50394 0 0 1 13.61 142.9 Z" class="st5"/>
			</g>
		</g>
		<g id="shape409-105" v:mID="409" v:groupContext="shape" v:layerMember="1" transform="translate(327.851,-93.9183)">
			<title>动态连接线.409</title>
			<path d="M0 142.9 L10.63 142.9 L10.63 160.91 L27.78 160.91" class="st4"/>
		</g>
		<g id="shape410-108" v:mID="410" v:groupContext="shape" v:layerMember="1" transform="translate(327.851,-45.5522)">
			<title>动态连接线.410</title>
			<path d="M0 142.9 L10.63 142.9 L10.63 121.05 L27.78 121.05" class="st4"/>
		</g>
		<g id="shape411-111" v:mID="411" v:groupContext="shape" v:layerMember="1" transform="translate(119.028,-56.4684)">
			<title>动态连接线.411</title>
			<path d="M0 149.68 L14.19 150.29" class="st4"/>
		</g>
		<g id="shape412-114" v:mID="412" v:groupContext="shape" v:layerMember="0" transform="translate(413.866,-68.938)">
			<title>工作表.412</title>
			<desc>clkout</desc>
			<v:userDefs>
				<v:ud v:nameU="Form" v:val="VT0(0):26"/>
				<v:ud v:nameU="visVersion" v:val="VT0(14):26"/>
				<v:ud v:nameU="visDescription" v:val="VT4(单向或双向输入/输出端口。 )"/>
			</v:userDefs>
			<v:textBlock v:margins="rect(1,1,1,1)" v:tabSpace="42.5197" v:verticalAlign="0"/>
			<v:textRect cx="10.6299" cy="131.179" width="36.65" height="12.8036"/>
			<path d="M0 140.24 L0 137.58 L15.94 137.58 L21.26 140.24 L15.94 142.9 L0 142.9 L0 140.24 Z" class="st5"/>
			<text x="-4.21" y="133.88" class="st2" v:langID="2052"><v:paragraph v:horizAlign="1"/><v:tabList/>clk<tspan class="st6"
						v:langID="1033">out</tspan></text>		</g>
		<g id="shape413-118" v:mID="413" v:groupContext="shape" v:layerMember="1" transform="translate(389.646,-78.7116)">
			<title>动态连接线.413</title>
			<path d="M0 149.95 L24.22 150.01" class="st4"/>
		</g>
		<g id="shape414-121" v:mID="414" v:groupContext="shape" transform="translate(104.017,-125.513)">
			<title>工作表.414</title>
			<desc>clk0</desc>
			<v:textBlock v:margins="rect(4,4,4,4)" v:tabSpace="42.5197"/>
			<v:textRect cx="14.1732" cy="134.392" width="28.35" height="17.0079"/>
			<rect x="0" y="125.888" width="28.3465" height="17.0079" class="st1"/>
			<text x="4.28" y="137.09" class="st2" v:langID="1033"><v:paragraph v:horizAlign="1"/><v:tabList/>clk<tspan class="st6"
						v:langID="2052">0</tspan></text>		</g>
		<g id="shape415-125" v:mID="415" v:groupContext="shape" transform="translate(109.934,-0.375)">
			<title>工作表.415</title>
			<desc>clk1</desc>
			<v:textBlock v:margins="rect(4,4,4,4)" v:tabSpace="42.5197"/>
			<v:textRect cx="14.1732" cy="134.392" width="28.35" height="17.0079"/>
			<rect x="0" y="125.888" width="28.3465" height="17.0079" class="st1"/>
			<text x="4.28" y="137.09" class="st2" v:langID="1033"><v:paragraph v:horizAlign="1"/><v:tabList/>clk<tspan class="st6"
						v:langID="2052">1</tspan></text>		</g>
		<g id="shape416-129" v:mID="416" v:groupContext="shape" transform="translate(208.613,-48.564)">
			<title>工作表.416</title>
			<desc>sel0</desc>
			<v:textBlock v:margins="rect(4,4,4,4)" v:tabSpace="42.5197"/>
			<v:textRect cx="14.1732" cy="134.392" width="28.35" height="17.0079"/>
			<rect x="0" y="125.888" width="28.3465" height="17.0079" class="st1"/>
			<text x="4.28" y="137.09" class="st2" v:langID="1033"><v:paragraph v:horizAlign="1"/><v:tabList/>sel0</text>		</g>
		<g id="shape417-132" v:mID="417" v:groupContext="shape" transform="translate(282.837,-46.497)">
			<title>工作表.417</title>
			<desc>G0</desc>
			<v:textBlock v:margins="rect(4,4,4,4)" v:tabSpace="42.5197"/>
			<v:textRect cx="10.6299" cy="134.392" width="21.26" height="17.0079"/>
			<rect x="0" y="125.888" width="21.2598" height="17.0079" class="st1"/>
			<text x="5.68" y="137.09" class="st2" v:langID="1033"><v:paragraph v:horizAlign="1"/><v:tabList/>G0</text>		</g>
		<g id="shape418-135" v:mID="418" v:groupContext="shape" transform="translate(283.556,-75.2274)">
			<title>工作表.418</title>
			<desc>G1</desc>
			<v:textBlock v:margins="rect(4,4,4,4)" v:tabSpace="42.5197"/>
			<v:textRect cx="10.6299" cy="134.392" width="21.26" height="17.0079"/>
			<rect x="0" y="125.888" width="21.2598" height="17.0079" class="st1"/>
			<text x="5.68" y="137.09" class="st2" v:langID="1033"><v:paragraph v:horizAlign="1"/><v:tabList/>G1</text>		</g>
		<g id="shape419-138" v:mID="419" v:groupContext="shape" transform="translate(318.27,-105.257)">
			<title>工作表.419</title>
			<desc>part1</desc>
			<v:textBlock v:margins="rect(4,4,4,4)" v:tabSpace="42.5197"/>
			<v:textRect cx="25.6994" cy="134.392" width="51.4" height="17.0079"/>
			<rect x="0" y="125.888" width="51.3988" height="17.0079" class="st1"/>
			<text x="13.33" y="137.09" class="st2" v:langID="1033"><v:paragraph v:horizAlign="1"/><v:tabList/>part1</text>		</g>
		<g id="group420-141" transform="translate(164.4,-27.5066)" v:mID="420" v:groupContext="group">
			<title>工作表.420</title>
			<g id="shape421-142" v:mID="421" v:groupContext="shape" transform="translate(3.59514,-9.24465)">
				<title>hole</title>
				<ellipse cx="1.02718" cy="141.868" rx="1.02718" ry="1.02718" class="st5"/>
			</g>
			<g id="shape422-144" v:mID="422" v:groupContext="shape" transform="translate(5.64951,-8.73106)">
				<title>工作表.422</title>
				<path d="M0 139.81 L3.08 141.35 L0 142.9" class="st4"/>
			</g>
			<g id="shape423-147" v:mID="423" v:groupContext="shape" transform="translate(5.23864,-21.5709) scale(-1,1)">
				<title>工作表.423</title>
				<path d="M0 142.9 L5.24 142.9" class="st4"/>
			</g>
			<g id="shape424-150" v:mID="424" v:groupContext="shape" transform="translate(3.33835,-10.2718) scale(-1,1)">
				<title>工作表.424</title>
				<path d="M0 142.9 L3.34 142.9" class="st4"/>
			</g>
			<g id="shape425-153" v:mID="425" v:groupContext="shape" transform="translate(21.0573,264.22) scale(1,-1)">
				<title>工作表.425</title>
				<path d="M0 142.9 L2.57 142.9" class="st4"/>
			</g>
			<g id="shape426-156" v:mID="426" v:groupContext="shape" transform="translate(-129.542,139.814) rotate(-90) scale(-1,1)">
				<title>工作表.426</title>
				<path d="M0 142.9 L3.08 142.9" class="st4"/>
			</g>
			<g id="shape427-159" v:mID="427" v:groupContext="shape" transform="translate(12.3262,-3.08155)">
				<title>hole.11</title>
				<ellipse cx="1.02718" cy="141.868" rx="1.02718" ry="1.02718" class="st5"/>
			</g>
			<g id="shape428-161" v:mID="428" v:groupContext="shape" transform="translate(5.64951,-5.13592)">
				<title>工作表.428</title>
				<rect x="0" y="122.352" width="15.4078" height="20.5437" class="st5"/>
			</g>
		</g>
		<g id="shape429-163" v:mID="429" v:groupContext="shape" v:layerMember="1" transform="translate(153.535,-41.9909)">
			<title>动态连接线.429</title>
			<path d="M3.31 135.81 L10.86 135.81" class="st4"/>
		</g>
		<g id="group430-166" transform="translate(133.219,-27.5066)" v:mID="430" v:groupContext="group">
			<title>工作表.430</title>
			<g id="shape431-167" v:mID="431" v:groupContext="shape" transform="translate(5.64951,-8.73106)">
				<title>工作表.431</title>
				<path d="M0 139.81 L3.08 141.35 L0 142.9" class="st4"/>
			</g>
			<g id="shape432-170" v:mID="432" v:groupContext="shape" transform="translate(5.23864,-21.5709) scale(-1,1)">
				<title>工作表.432</title>
				<path d="M0 142.9 L5.24 142.9" class="st4"/>
			</g>
			<g id="shape433-173" v:mID="433" v:groupContext="shape" transform="translate(5.64951,-10.2718) scale(-1,1)">
				<title>工作表.433</title>
				<path d="M0 142.9 L5.65 142.9" class="st4"/>
			</g>
			<g id="shape434-176" v:mID="434" v:groupContext="shape" transform="translate(21.0573,264.22) scale(1,-1)">
				<title>工作表.434</title>
				<path d="M0 142.9 L2.57 142.9" class="st4"/>
			</g>
			<g id="shape435-179" v:mID="435" v:groupContext="shape" transform="translate(-129.542,139.814) rotate(-90) scale(-1,1)">
				<title>工作表.435</title>
				<path d="M0 142.9 L3.08 142.9" class="st4"/>
			</g>
			<g id="shape436-182" v:mID="436" v:groupContext="shape" transform="translate(12.3262,-3.08155)">
				<title>hole.11</title>
				<ellipse cx="1.02718" cy="141.868" rx="1.02718" ry="1.02718" class="st5"/>
			</g>
			<g id="shape437-184" v:mID="437" v:groupContext="shape" transform="translate(5.64951,-5.13592)">
				<title>工作表.437</title>
				<rect x="0" y="122.352" width="15.4078" height="20.5437" class="st5"/>
			</g>
		</g>
		<g id="shape438-186" v:mID="438" v:groupContext="shape" v:layerMember="1" transform="translate(188.025,-42.4428)">
			<title>动态连接线.438</title>
			<path d="M0 136.26 L50.89 135.36" class="st4"/>
		</g>
		<g id="shape439-189" v:mID="439" v:groupContext="shape" v:layerMember="1" transform="translate(135.75,-37.7784)">
			<title>动态连接线.439</title>
			<path d="M-2.53 142.9 L-11.64 142.9 L-11.64 163.86" class="st4"/>
		</g>
		<g id="shape440-192" v:mID="440" v:groupContext="shape" v:layerMember="1" transform="translate(133.219,-30.6918)">
			<title>动态连接线.440</title>
			<path d="M0 135.81 L31.18 135.81" class="st4"/>
		</g>
		<g id="group441-195" transform="translate(161.363,-67.4954)" v:mID="441" v:groupContext="group">
			<title>工作表.441</title>
			<g id="shape442-196" v:mID="442" v:groupContext="shape" transform="translate(3.59514,-9.24465)">
				<title>hole</title>
				<ellipse cx="1.02718" cy="141.868" rx="1.02718" ry="1.02718" class="st5"/>
			</g>
			<g id="shape443-198" v:mID="443" v:groupContext="shape" transform="translate(5.64951,-8.73106)">
				<title>工作表.443</title>
				<path d="M0 139.81 L3.08 141.35 L0 142.9" class="st4"/>
			</g>
			<g id="shape444-201" v:mID="444" v:groupContext="shape" transform="translate(5.23864,-21.5709) scale(-1,1)">
				<title>工作表.444</title>
				<path d="M0 142.9 L5.24 142.9" class="st4"/>
			</g>
			<g id="shape445-204" v:mID="445" v:groupContext="shape" transform="translate(3.33835,-10.2718) scale(-1,1)">
				<title>工作表.445</title>
				<path d="M0 142.9 L3.34 142.9" class="st4"/>
			</g>
			<g id="shape446-207" v:mID="446" v:groupContext="shape" transform="translate(21.0573,264.22) scale(1,-1)">
				<title>工作表.446</title>
				<path d="M0 142.9 L2.57 142.9" class="st4"/>
			</g>
			<g id="shape447-210" v:mID="447" v:groupContext="shape" transform="translate(-129.542,139.814) rotate(-90) scale(-1,1)">
				<title>工作表.447</title>
				<path d="M0 142.9 L3.08 142.9" class="st4"/>
			</g>
			<g id="shape448-213" v:mID="448" v:groupContext="shape" transform="translate(12.3262,-3.08155)">
				<title>hole.11</title>
				<ellipse cx="1.02718" cy="141.868" rx="1.02718" ry="1.02718" class="st5"/>
			</g>
			<g id="shape449-215" v:mID="449" v:groupContext="shape" transform="translate(5.64951,-5.13592)">
				<title>工作表.449</title>
				<rect x="0" y="122.352" width="15.4078" height="20.5437" class="st5"/>
			</g>
		</g>
		<g id="shape450-217" v:mID="450" v:groupContext="shape" v:layerMember="1" transform="translate(150.498,-81.9796)">
			<title>动态连接线.450</title>
			<path d="M3.31 135.81 L10.86 135.81" class="st4"/>
		</g>
		<g id="group451-220" transform="translate(130.182,-67.4954)" v:mID="451" v:groupContext="group">
			<title>工作表.451</title>
			<g id="shape452-221" v:mID="452" v:groupContext="shape" transform="translate(5.64951,-8.73106)">
				<title>工作表.452</title>
				<path d="M0 139.81 L3.08 141.35 L0 142.9" class="st4"/>
			</g>
			<g id="shape453-224" v:mID="453" v:groupContext="shape" transform="translate(5.23864,-21.5709) scale(-1,1)">
				<title>工作表.453</title>
				<path d="M0 142.9 L5.24 142.9" class="st4"/>
			</g>
			<g id="shape454-227" v:mID="454" v:groupContext="shape" transform="translate(5.64951,-10.2718) scale(-1,1)">
				<title>工作表.454</title>
				<path d="M0 142.9 L5.65 142.9" class="st4"/>
			</g>
			<g id="shape455-230" v:mID="455" v:groupContext="shape" transform="translate(21.0573,264.22) scale(1,-1)">
				<title>工作表.455</title>
				<path d="M0 142.9 L2.57 142.9" class="st4"/>
			</g>
			<g id="shape456-233" v:mID="456" v:groupContext="shape" transform="translate(-129.542,139.814) rotate(-90) scale(-1,1)">
				<title>工作表.456</title>
				<path d="M0 142.9 L3.08 142.9" class="st4"/>
			</g>
			<g id="shape457-236" v:mID="457" v:groupContext="shape" transform="translate(12.3262,-3.08155)">
				<title>hole.11</title>
				<ellipse cx="1.02718" cy="141.868" rx="1.02718" ry="1.02718" class="st5"/>
			</g>
			<g id="shape458-238" v:mID="458" v:groupContext="shape" transform="translate(5.64951,-5.13592)">
				<title>工作表.458</title>
				<rect x="0" y="122.352" width="15.4078" height="20.5437" class="st5"/>
			</g>
		</g>
		<g id="shape459-240" v:mID="459" v:groupContext="shape" v:layerMember="1" transform="translate(130.182,-70.6806)">
			<title>动态连接线.459</title>
			<path d="M0 135.81 L31.18 135.81" class="st4"/>
		</g>
		<g id="shape460-243" v:mID="460" v:groupContext="shape" v:layerMember="1" transform="translate(117.518,-81.4234)">
			<title>动态连接线.460</title>
			<path d="M1.51 136.37 L4.24 136.09 A2.3622 2.3622 0 1 1 8.94 135.62 L12.66 135.25" class="st4"/>
		</g>
		<g id="shape461-246" v:mID="461" v:groupContext="shape" v:layerMember="1" transform="translate(184.988,-82.2501)">
			<title>动态连接线.461</title>
			<path d="M0 136.08 L53.92 135.54" class="st4"/>
		</g>
		<g id="shape462-249" v:mID="462" v:groupContext="shape" v:layerMember="1" transform="translate(120.058,-125.513)">
			<title>动态连接线.462</title>
			<path d="M4.05 142.9 L4.05 190.64 L10.12 190.64" class="st4"/>
		</g>
		<g id="shape463-252" v:mID="463" v:groupContext="shape" v:layerMember="1" transform="translate(293.835,-98.1703)">
			<title>动态连接线.463</title>
			<path d="M0 142.9 L-42.43 142.9 L-42.43 124.47 L-169.73 124.47 L-169.73 118.8" class="st4"/>
		</g>
		<g id="shape464-255" v:mID="464" v:groupContext="shape" v:layerMember="1" transform="translate(124.107,-20.2175)">
			<title>动态连接线.464</title>
			<path d="M0 142.9 L130.13 142.9 L130.13 121.81 L169.73 121.81" class="st4"/>
		</g>
		<g id="group465-258" transform="translate(238.91,-44.312)" v:mID="465" v:groupContext="group" v:layerMember="0">
			<v:userDefs>
				<v:ud v:nameU="Form" v:val="VT0(0):26"/>
				<v:ud v:nameU="visDescription" v:val="VT4(表示反相器。)"/>
				<v:ud v:nameU="visVersion" v:val="VT0(15):26"/>
			</v:userDefs>
			<title>反相器.465</title>
			<g id="shape466-259" v:mID="466" v:groupContext="shape" v:layerMember="0"
					transform="translate(100.618,31.0526) rotate(45)">
				<title>工作表.466</title>
			</g>
			<g id="shape467-261" v:mID="467" v:groupContext="shape" v:layerMember="0">
				<title>工作表.467</title>
				<desc>1</desc>
				<v:textBlock v:margins="rect(1,1,1,1)" v:tabSpace="42.5197" v:verticalAlign="0"/>
				<v:textRect cx="5.66929" cy="134.392" width="11.34" height="12.8036"/>
				<path d="M11.34 137.23 a0.850394 0.850394 -180 1 0 1.70079 0 a0.850394 0.850394 -180 0 0 -1.70079 0 ZM0 131.56 L11.34
							 137.23 L0 142.9 L0 131.56 Z" class="st5"/>
			</g>
		</g>
		<g id="group468-263" transform="translate(238.91,-83.938)" v:mID="468" v:groupContext="group" v:layerMember="0">
			<v:userDefs>
				<v:ud v:nameU="Form" v:val="VT0(0):26"/>
				<v:ud v:nameU="visDescription" v:val="VT4(表示反相器。)"/>
				<v:ud v:nameU="visVersion" v:val="VT0(15):26"/>
			</v:userDefs>
			<title>反相器.468</title>
			<g id="shape469-264" v:mID="469" v:groupContext="shape" v:layerMember="0"
					transform="translate(100.618,31.0526) rotate(45)">
				<title>工作表.469</title>
			</g>
			<g id="shape470-266" v:mID="470" v:groupContext="shape" v:layerMember="0">
				<title>工作表.470</title>
				<desc>1</desc>
				<v:textBlock v:margins="rect(1,1,1,1)" v:tabSpace="42.5197" v:verticalAlign="0"/>
				<v:textRect cx="5.66929" cy="134.392" width="11.34" height="12.8036"/>
				<path d="M11.34 137.23 a0.850394 0.850394 -180 1 0 1.70079 0 a0.850394 0.850394 -180 0 0 -1.70079 0 ZM0 131.56 L11.34
							 137.23 L0 142.9 L0 131.56 Z" class="st5"/>
			</g>
		</g>
		<g id="shape471-268" v:mID="471" v:groupContext="shape" v:layerMember="1" transform="translate(251.099,-82.5502)">
			<title>动态连接线.471</title>
			<path d="M0 135.84 L42.74 135.78" class="st4"/>
		</g>
		<g id="shape472-271" v:mID="472" v:groupContext="shape" v:layerMember="1" transform="translate(251.099,-56.9793)">
			<title>动态连接线.472</title>
			<path d="M0 149.89 L42.74 150.07" class="st4"/>
		</g>
	</g>
</svg>
