<?xml version="1.0" encoding="UTF-8" standalone="no"?>
<!DOCTYPE svg PUBLIC "-//W3C//DTD SVG 1.1//EN" "http://www.w3.org/Graphics/SVG/1.1/DTD/svg11.dtd">
<!-- 由 Microsoft Visio, SVG Export 生成 clkmux4.svg 页-1 -->
<svg xmlns="http://www.w3.org/2000/svg" xmlns:xlink="http://www.w3.org/1999/xlink" xmlns:ev="http://www.w3.org/2001/xml-events"
		xmlns:v="http://schemas.microsoft.com/visio/2003/SVGExtensions/" width="4.5362in" height="1.38263in"
		viewBox="0 0 326.606 99.5492" xml:space="preserve" color-interpolation-filters="sRGB" class="st11">
	<v:documentProperties v:langID="2052" v:metric="true" v:viewMarkup="false"/>

	<style type="text/css">
	<![CDATA[
		.st1 {fill:none;stroke:none;stroke-linecap:round;stroke-linejoin:round;stroke-width:0.75}
		.st2 {fill:#000000;font-family:YaHei Consolas Hybrid;font-size:0.75em}
		.st3 {fill:#ffffff;stroke:#ff0000;stroke-dasharray:5.25,3.75,0,3.75,0,3.75;stroke-linecap:round;stroke-linejoin:round;stroke-width:0.75}
		.st4 {stroke:#000000;stroke-linecap:round;stroke-linejoin:round;stroke-width:0.24}
		.st5 {fill:#ffffff;stroke:#000000;stroke-linecap:round;stroke-linejoin:round;stroke-width:0.24}
		.st6 {stroke:#002060;stroke-linecap:round;stroke-linejoin:round;stroke-width:0.24}
		.st7 {stroke:#923931;stroke-linecap:round;stroke-linejoin:round;stroke-width:0.24}
		.st8 {font-size:1em}
		.st9 {stroke:#0070c0;stroke-linecap:round;stroke-linejoin:round;stroke-width:1}
		.st10 {fill:#0070c0;font-family:YaHei Consolas Hybrid;font-size:0.75em}
		.st11 {fill:none;fill-rule:evenodd;font-size:12px;overflow:visible;stroke-linecap:square;stroke-miterlimit:3}
	]]>
	</style>

	<g v:mID="0" v:index="1" v:groupContext="foregroundPage">
		<title>页-1</title>
		<v:pageProperties v:drawingScale="0.0393701" v:pageScale="0.0393701" v:drawingUnits="24" v:shadowOffsetX="8.50394"
				v:shadowOffsetY="-8.50394"/>
		<v:layer v:name="电气" v:index="0"/>
		<v:layer v:name="连接线" v:index="1"/>
		<g id="shape146-1" v:mID="146" v:groupContext="shape" transform="translate(135.456,-46.0246)">
			<title>工作表.146</title>
			<desc>sel1</desc>
			<v:textBlock v:margins="rect(4,4,4,4)" v:tabSpace="42.5197"/>
			<v:textRect cx="14.1732" cy="93.8799" width="28.35" height="11.3386"/>
			<rect x="0" y="88.2106" width="28.3465" height="11.3386" class="st1"/>
			<text x="4.28" y="96.58" class="st2" v:langID="1033"><v:paragraph v:horizAlign="1"/><v:tabList/>sel1</text>		</g>
		<g id="shape178-4" v:mID="178" v:groupContext="shape" transform="translate(45.1978,-7.04823)">
			<title>工作表.178</title>
			<path d="M0 99.55 L87.17 99.55 L87.17 25.14 L0 25.14 L0 99.55 Z" class="st3"/>
		</g>
		<g id="group179-6" transform="translate(85.0121,-14.1348)" v:mID="179" v:groupContext="group" v:layerMember="0">
			<v:custProps>
				<v:cp v:nameU="Input" v:lbl="输入数目" v:type="1" v:format="2;3;4;5" v:sortKey="2" v:langID="2052" v:val="VT4(2)"/>
				<v:cp v:nameU="Type" v:lbl="门类型" v:type="1" v:format="OR;AND;NOR;NAND;XOR;XNOR" v:sortKey="1" v:langID="1033"
						v:val="VT4(XOR)"/>
				<v:cp v:nameU="Out" v:lbl="输出数目" v:type="1" v:format="1;2;3" v:sortKey="3" v:langID="2052" v:val="VT4(1)"/>
				<v:cp v:nameU="Type" v:lbl="" v:prompt="" v:type="0" v:format="" v:sortKey="" v:invis="false" v:ask="false"
						v:langID="0" v:cal="0" v:val="VT4(NOR)"/>
			</v:custProps>
			<v:userDefs>
				<v:ud v:nameU="SubType" v:val="VT0(4):26"/>
				<v:ud v:nameU="Margin" v:val="VT0(0.059055118110236):24"/>
				<v:ud v:nameU="LimitHeight" v:val="VT0(0):26"/>
				<v:ud v:nameU="visVersion" v:val="VT0(14):26"/>
				<v:ud v:nameU="visDescription" v:val="VT4(表示各种形式的逻辑门。)"/>
				<v:ud v:nameU="SubType" v:prompt="" v:val="VT0(2):26"/>
			</v:userDefs>
			<title>工作表.179</title>
			<g id="shape180-7" v:mID="180" v:groupContext="shape" v:layerMember="0" transform="translate(0,-4.25197)">
				<title>工作表.180</title>
				<path d="M0 91.05 L17.01 91.05" class="st4"/>
				<path d="M0 99.55 L17.01 99.55" class="st4"/>
				<path d="M34.02 95.3 L17.01 95.3" class="st4"/>
			</g>
			<g id="shape181-12" v:mID="181" v:groupContext="shape" v:layerMember="0" transform="translate(5.95276,0)">
				<title>工作表.181</title>
				<v:userDefs>
					<v:ud v:nameU="X" v:val="VT0(0.029527559055118):24"/>
				</v:userDefs>
				<path d="M22.11 91.05 A22.9017 14.031 0 0 1 6.63 99.55 L0 99.55 A32.8126 20.103 -180 0 0 -0 82.54 L6.63 82.54 A22.5949
							 13.8431 0 0 1 22.11 91.05 Z" class="st5"/>
			</g>
			<g id="shape182-14" v:mID="182" v:groupContext="shape" v:layerMember="0" transform="translate(0,2.83465)">
				<title>工作表.182</title>
			</g>
			<g id="shape183-16" v:mID="183" v:groupContext="shape" v:layerMember="0" transform="translate(23.0309,-2.13696)">
				<title>工作表.183</title>
				<path d="M7.51 93.18 A1.27339 1.27339 -180 0 0 4.97 93.18 A1.27339 1.27339 -180 0 0 7.51 93.18 Z" class="st5"/>
			</g>
			<g id="shape184-18" v:mID="184" v:groupContext="shape" v:layerMember="0" transform="translate(5.95276,0)">
				<title>工作表.184</title>
			</g>
		</g>
		<g id="group185-20" transform="translate(85.0121,-52.4026)" v:mID="185" v:groupContext="group" v:layerMember="0">
			<v:custProps>
				<v:cp v:nameU="Input" v:lbl="输入数目" v:type="1" v:format="2;3;4;5" v:sortKey="2" v:langID="2052" v:val="VT4(2)"/>
				<v:cp v:nameU="Type" v:lbl="门类型" v:type="1" v:format="OR;AND;NOR;NAND;XOR;XNOR" v:sortKey="1" v:langID="1033"
						v:val="VT4(XOR)"/>
				<v:cp v:nameU="Out" v:lbl="输出数目" v:type="1" v:format="1;2;3" v:sortKey="3" v:langID="2052" v:val="VT4(1)"/>
				<v:cp v:nameU="Type" v:lbl="" v:prompt="" v:type="0" v:format="" v:sortKey="" v:invis="false" v:ask="false"
						v:langID="0" v:cal="0" v:val="VT4(NOR)"/>
			</v:custProps>
			<v:userDefs>
				<v:ud v:nameU="SubType" v:val="VT0(4):26"/>
				<v:ud v:nameU="Margin" v:val="VT0(0.059055118110236):24"/>
				<v:ud v:nameU="LimitHeight" v:val="VT0(0):26"/>
				<v:ud v:nameU="visVersion" v:val="VT0(14):26"/>
				<v:ud v:nameU="visDescription" v:val="VT4(表示各种形式的逻辑门。)"/>
				<v:ud v:nameU="SubType" v:prompt="" v:val="VT0(2):26"/>
			</v:userDefs>
			<title>工作表.185</title>
			<g id="shape186-21" v:mID="186" v:groupContext="shape" v:layerMember="0" transform="translate(0,-4.25197)">
				<title>工作表.186</title>
				<path d="M0 91.05 L17.01 91.05" class="st4"/>
				<path d="M0 99.55 L17.01 99.55" class="st4"/>
				<path d="M34.02 95.3 L17.01 95.3" class="st4"/>
			</g>
			<g id="shape187-26" v:mID="187" v:groupContext="shape" v:layerMember="0" transform="translate(5.95276,0)">
				<title>工作表.187</title>
				<v:userDefs>
					<v:ud v:nameU="X" v:val="VT0(0.029527559055118):24"/>
				</v:userDefs>
				<path d="M22.11 91.05 A22.9017 14.031 0 0 1 6.63 99.55 L0 99.55 A32.8126 20.103 -180 0 0 -0 82.54 L6.63 82.54 A22.5949
							 13.8431 0 0 1 22.11 91.05 Z" class="st5"/>
			</g>
			<g id="shape188-28" v:mID="188" v:groupContext="shape" v:layerMember="0" transform="translate(0,2.83465)">
				<title>工作表.188</title>
			</g>
			<g id="shape189-30" v:mID="189" v:groupContext="shape" v:layerMember="0" transform="translate(23.0309,-2.13696)">
				<title>工作表.189</title>
				<path d="M7.51 93.18 A1.27339 1.27339 -180 0 0 4.97 93.18 A1.27339 1.27339 -180 0 0 7.51 93.18 Z" class="st5"/>
			</g>
			<g id="shape190-32" v:mID="190" v:groupContext="shape" v:layerMember="0" transform="translate(5.95276,0)">
				<title>工作表.190</title>
			</g>
		</g>
		<g id="shape191-34" v:mID="191" v:groupContext="shape" v:layerMember="1" transform="translate(28.7215,-11.3002)">
			<title>动态连接线.191</title>
			<path d="M0 92.46 L56.29 92.46" class="st4"/>
		</g>
		<g id="shape192-37" v:mID="192" v:groupContext="shape" v:layerMember="1" transform="translate(62.9144,-47.5837)">
			<title>动态连接线.192</title>
			<path d="M0 99.55 L0 81.97 L22.1 81.97" class="st4"/>
		</g>
		<g id="shape193-40" v:mID="193" v:groupContext="shape" transform="translate(0.375,-9.11516)">
			<title>工作表.193</title>
			<desc>sel</desc>
			<v:textBlock v:margins="rect(4,4,4,4)" v:tabSpace="42.5197"/>
			<v:textRect cx="14.1732" cy="91.0453" width="28.35" height="17.0079"/>
			<rect x="0" y="82.5413" width="28.3465" height="17.0079" class="st1"/>
			<text x="6.75" y="93.75" class="st2" v:langID="1033"><v:paragraph v:horizAlign="1"/><v:tabList/>sel</text>		</g>
		<g id="shape194-43" v:mID="194" v:groupContext="shape" transform="translate(59.7046,-82.1663)">
			<title>工作表.194</title>
			<desc>part0_a</desc>
			<v:textBlock v:margins="rect(4,4,4,4)" v:tabSpace="42.5197"/>
			<v:textRect cx="25.6994" cy="91.0453" width="51.4" height="17.0079"/>
			<rect x="0" y="82.5413" width="51.3988" height="17.0079" class="st1"/>
			<text x="8.38" y="93.75" class="st2" v:langID="1033"><v:paragraph v:horizAlign="1"/><v:tabList/>part0_a</text>		</g>
		<g id="shape195-46" v:mID="195" v:groupContext="shape" v:layerMember="1" transform="translate(119.028,-60.9065)">
			<title>动态连接线.195</title>
			<path d="M0 99.55 C2.66 99.55 3.68 99.55 4.31 100.01 C5.31 100.75 5.31 102.67 5.31 104.31 C5.31 107.41 5.31 109.48 3.49
						 110.8 C0.34 113.07 -8.27 113.07 -16.74 113.07 C-25.32 113.07 -33.75 113.07 -37.11 115.98 C-39.33 117.9 -39.33
						 121.09 -39.33 125.95 C-39.33 129.35 -39.33 133.56 -34.02 133.56" class="st6"/>
		</g>
		<g id="shape196-49" v:mID="196" v:groupContext="shape" v:layerMember="1" transform="translate(119.028,-22.6388)">
			<title>动态连接线.196</title>
			<path d="M0 99.55 C6.15 99.55 6.15 88.41 -0.43 82.29 C-8.48 74.81 -26.36 74.81 -33.87 71.69 C-39.33 69.43 -39.33 65.53
						 -34.02 65.53" class="st7"/>
		</g>
		<g id="group197-52" transform="translate(-30.9656,64.1545) rotate(-90)" v:mID="197" v:groupContext="group"
				v:layerMember="0">
			<v:userDefs>
				<v:ud v:nameU="Form" v:val="VT0(0):26"/>
				<v:ud v:nameU="visDescription" v:val="VT4(表示反相器。)"/>
				<v:ud v:nameU="visVersion" v:val="VT0(15):26"/>
			</v:userDefs>
			<title>反相器.197</title>
			<g id="shape198-53" v:mID="198" v:groupContext="shape" v:layerMember="0"
					transform="translate(69.9678,18.3567) rotate(45)">
				<title>工作表.198</title>
			</g>
			<g id="shape199-55" v:mID="199" v:groupContext="shape" v:layerMember="0">
				<title>工作表.199</title>
				<desc>1</desc>
				<v:textBlock v:margins="rect(1,1,1,1)" v:tabSpace="42.5197" v:verticalAlign="0"/>
				<v:textRect cx="5.66929" cy="91.0453" width="11.34" height="12.8036"/>
				<path d="M11.34 93.88 a0.850394 0.850394 -180 1 0 1.70079 1.42109E-014 a0.850394 0.850394 -180 0 0 -1.70079 0 ZM0
							 88.21 L11.34 93.88 L0 99.55 L0 88.21 Z" class="st5"/>
			</g>
		</g>
		<g id="shape200-57" v:mID="200" v:groupContext="shape" v:layerMember="1" transform="translate(49.0128,-18.3868)">
			<title>动态连接线.200</title>
			<path d="M0.27 99.55 L13.9 99.55 L13.9 82.54" class="st4"/>
		</g>
		<g id="shape203-60" v:mID="203" v:groupContext="shape" transform="translate(164.386,-3.50492)">
			<title>工作表.203</title>
			<path d="M0 99.55 L109.05 99.55 L109.05 28.68 L0 28.68 L0 99.55 Z" class="st3"/>
		</g>
		<g id="group204-62" transform="translate(239.42,-36.1033)" v:mID="204" v:groupContext="group" v:layerMember="0">
			<v:custProps>
				<v:cp v:nameU="Input" v:lbl="输入数目" v:type="1" v:format="2;3;4;5" v:sortKey="2" v:langID="2052" v:val="VT4(2)"/>
				<v:cp v:nameU="Type" v:lbl="门类型" v:type="1" v:format="OR;AND;NOR;NAND;XOR;XNOR" v:sortKey="1" v:langID="1033"
						v:val="VT4(XOR)"/>
				<v:cp v:nameU="Out" v:lbl="输出数目" v:type="1" v:format="1;2;3" v:sortKey="3" v:langID="2052" v:val="VT4(1)"/>
				<v:cp v:nameU="Type" v:lbl="" v:prompt="" v:type="0" v:format="" v:sortKey="" v:invis="false" v:ask="false"
						v:langID="0" v:cal="0" v:val="VT4(OR)"/>
			</v:custProps>
			<v:userDefs>
				<v:ud v:nameU="SubType" v:val="VT0(4):26"/>
				<v:ud v:nameU="Margin" v:val="VT0(0.059055118110236):24"/>
				<v:ud v:nameU="LimitHeight" v:val="VT0(0):26"/>
				<v:ud v:nameU="visVersion" v:val="VT0(14):26"/>
				<v:ud v:nameU="visDescription" v:val="VT4(表示各种形式的逻辑门。)"/>
				<v:ud v:nameU="SubType" v:prompt="" v:val="VT0(0):26"/>
			</v:userDefs>
			<title>工作表.204</title>
			<g id="shape205-63" v:mID="205" v:groupContext="shape" v:layerMember="0" transform="translate(0,-4.25197)">
				<title>工作表.205</title>
				<path d="M0 91.05 L17.01 91.05" class="st4"/>
				<path d="M0 99.55 L17.01 99.55" class="st4"/>
				<path d="M34.02 95.3 L17.01 95.3" class="st4"/>
			</g>
			<g id="shape206-68" v:mID="206" v:groupContext="shape" v:layerMember="0" transform="translate(5.95276,0)">
				<title>工作表.206</title>
				<v:userDefs>
					<v:ud v:nameU="X" v:val="VT0(0.029527559055118):24"/>
				</v:userDefs>
				<path d="M22.11 91.05 A22.9017 14.031 0 0 1 6.63 99.55 L0 99.55 A32.8126 20.103 -180 0 0 -0 82.54 L6.63 82.54 A22.5949
							 13.8431 0 0 1 22.11 91.05 Z" class="st5"/>
			</g>
			<g id="shape207-70" v:mID="207" v:groupContext="shape" v:layerMember="0" transform="translate(0,2.83465)">
				<title>工作表.207</title>
			</g>
			<g id="shape208-72" v:mID="208" v:groupContext="shape" v:layerMember="0" transform="translate(23.0309,-2.13696)">
				<title>工作表.208</title>
			</g>
			<g id="shape209-74" v:mID="209" v:groupContext="shape" v:layerMember="0" transform="translate(5.95276,0)">
				<title>工作表.209</title>
			</g>
		</g>
		<g id="group210-76" transform="translate(177.625,-10.001)" v:mID="210" v:groupContext="group" v:layerMember="0">
			<v:custProps>
				<v:cp v:nameU="Input" v:lbl="输入数目" v:type="1" v:format="2;3;4;5" v:sortKey="2" v:langID="2052" v:val="VT4(2)"/>
				<v:cp v:nameU="Type" v:lbl="门类型" v:type="1" v:format="OR;AND;NOR;NAND;XOR;XNOR" v:sortKey="1" v:langID="1033"
						v:val="VT4(XOR)"/>
				<v:cp v:nameU="Out" v:lbl="输出数目" v:type="1" v:format="1;2;3" v:sortKey="3" v:langID="2052" v:val="VT4(1)"/>
				<v:cp v:nameU="Type" v:lbl="" v:prompt="" v:type="0" v:format="" v:sortKey="" v:invis="false" v:ask="false"
						v:langID="0" v:cal="0" v:val="VT4(AND)"/>
			</v:custProps>
			<v:userDefs>
				<v:ud v:nameU="SubType" v:val="VT0(4):26"/>
				<v:ud v:nameU="Margin" v:val="VT0(0.059055118110236):24"/>
				<v:ud v:nameU="LimitHeight" v:val="VT0(0):26"/>
				<v:ud v:nameU="visVersion" v:val="VT0(14):26"/>
				<v:ud v:nameU="visDescription" v:val="VT4(表示各种形式的逻辑门。)"/>
				<v:ud v:nameU="SubType" v:prompt="" v:val="VT0(1):26"/>
			</v:userDefs>
			<title>工作表.210</title>
			<g id="shape211-77" v:mID="211" v:groupContext="shape" v:layerMember="0" transform="translate(0,-4.25197)">
				<title>工作表.211</title>
				<path d="M0 91.05 L17.01 91.05" class="st4"/>
				<path d="M0 99.55 L17.01 99.55" class="st4"/>
				<path d="M34.02 95.3 L17.01 95.3" class="st4"/>
			</g>
			<g id="shape212-82" v:mID="212" v:groupContext="shape" v:layerMember="0" transform="translate(5.95276,0)">
				<title>工作表.212</title>
				<v:userDefs>
					<v:ud v:nameU="X" v:val="VT0(0.029527559055118):24"/>
				</v:userDefs>
				<path d="M22.11 91.05 A22.9017 14.031 0 0 1 6.63 99.55 L0 99.55 A32.8126 20.103 -180 0 0 -0 82.54 L6.63 82.54 A22.5949
							 13.8431 0 0 1 22.11 91.05 Z" class="st5"/>
			</g>
			<g id="shape213-84" v:mID="213" v:groupContext="shape" v:layerMember="0" transform="translate(0,2.83465)">
				<title>工作表.213</title>
			</g>
			<g id="shape214-86" v:mID="214" v:groupContext="shape" v:layerMember="0" transform="translate(23.0309,-2.13696)">
				<title>工作表.214</title>
			</g>
			<g id="shape215-88" v:mID="215" v:groupContext="shape" v:layerMember="0" transform="translate(5.95276,0)">
				<title>工作表.215</title>
				<path d="M13.61 99.55 L0 99.55 L0 82.54 L13.61 82.54 A8.50394 8.50394 0 0 1 13.61 99.55 Z" class="st5"/>
			</g>
		</g>
		<g id="group216-90" transform="translate(177.625,-54.5285)" v:mID="216" v:groupContext="group" v:layerMember="0">
			<v:custProps>
				<v:cp v:nameU="Input" v:lbl="输入数目" v:type="1" v:format="2;3;4;5" v:sortKey="2" v:langID="2052" v:val="VT4(2)"/>
				<v:cp v:nameU="Type" v:lbl="门类型" v:type="1" v:format="OR;AND;NOR;NAND;XOR;XNOR" v:sortKey="1" v:langID="1033"
						v:val="VT4(XOR)"/>
				<v:cp v:nameU="Out" v:lbl="输出数目" v:type="1" v:format="1;2;3" v:sortKey="3" v:langID="2052" v:val="VT4(1)"/>
				<v:cp v:nameU="Type" v:lbl="" v:prompt="" v:type="0" v:format="" v:sortKey="" v:invis="false" v:ask="false"
						v:langID="0" v:cal="0" v:val="VT4(AND)"/>
			</v:custProps>
			<v:userDefs>
				<v:ud v:nameU="SubType" v:val="VT0(4):26"/>
				<v:ud v:nameU="Margin" v:val="VT0(0.059055118110236):24"/>
				<v:ud v:nameU="LimitHeight" v:val="VT0(0):26"/>
				<v:ud v:nameU="visVersion" v:val="VT0(14):26"/>
				<v:ud v:nameU="visDescription" v:val="VT4(表示各种形式的逻辑门。)"/>
				<v:ud v:nameU="SubType" v:prompt="" v:val="VT0(1):26"/>
			</v:userDefs>
			<title>工作表.216</title>
			<g id="shape217-91" v:mID="217" v:groupContext="shape" v:layerMember="0" transform="translate(0,-4.25197)">
				<title>工作表.217</title>
				<path d="M0 91.05 L17.01 91.05" class="st4"/>
				<path d="M0 99.55 L17.01 99.55" class="st4"/>
				<path d="M34.02 95.3 L17.01 95.3" class="st4"/>
			</g>
			<g id="shape218-96" v:mID="218" v:groupContext="shape" v:layerMember="0" transform="translate(5.95276,0)">
				<title>工作表.218</title>
				<v:userDefs>
					<v:ud v:nameU="X" v:val="VT0(0.029527559055118):24"/>
				</v:userDefs>
				<path d="M22.11 91.05 A22.9017 14.031 0 0 1 6.63 99.55 L0 99.55 A32.8126 20.103 -180 0 0 -0 82.54 L6.63 82.54 A22.5949
							 13.8431 0 0 1 22.11 91.05 Z" class="st5"/>
			</g>
			<g id="shape219-98" v:mID="219" v:groupContext="shape" v:layerMember="0" transform="translate(0,2.83465)">
				<title>工作表.219</title>
			</g>
			<g id="shape220-100" v:mID="220" v:groupContext="shape" v:layerMember="0" transform="translate(23.0309,-2.13696)">
				<title>工作表.220</title>
			</g>
			<g id="shape221-102" v:mID="221" v:groupContext="shape" v:layerMember="0" transform="translate(5.95276,0)">
				<title>工作表.221</title>
				<path d="M13.61 99.55 L0 99.55 L0 82.54 L13.61 82.54 A8.50394 8.50394 0 0 1 13.61 99.55 Z" class="st5"/>
			</g>
		</g>
		<g id="shape222-104" v:mID="222" v:groupContext="shape" v:layerMember="1" transform="translate(211.641,-63.0325)">
			<title>动态连接线.222</title>
			<path d="M0 99.55 L10.63 99.55 L10.63 113.72 L27.78 113.72" class="st4"/>
		</g>
		<g id="shape223-107" v:mID="223" v:groupContext="shape" v:layerMember="1" transform="translate(211.641,-18.5049)">
			<title>动态连接线.223</title>
			<path d="M0 99.55 L10.63 99.55 L10.63 77.7 L27.78 77.7" class="st4"/>
		</g>
		<g id="shape224-110" v:mID="224" v:groupContext="shape" v:layerMember="1" transform="translate(119.028,-15.6112)">
			<title>动态连接线.224</title>
			<path d="M0 92.52 L58.6 92.4" class="st4"/>
		</g>
		<g id="shape226-113" v:mID="226" v:groupContext="shape" v:layerMember="1" transform="translate(147.434,-7.16634)">
			<title>动态连接线.226</title>
			<path d="M0 92.46 L30.19 92.46" class="st4"/>
		</g>
		<g id="shape227-116" v:mID="227" v:groupContext="shape" v:layerMember="1" transform="translate(142.275,-60.1978)">
			<title>动态连接线.227</title>
			<path d="M0 92.46 L35.35 92.46" class="st4"/>
		</g>
		<g id="shape228-119" v:mID="228" v:groupContext="shape" v:layerMember="0" transform="translate(297.656,-41.8907)">
			<title>工作表.228</title>
			<desc>clkout</desc>
			<v:userDefs>
				<v:ud v:nameU="Form" v:val="VT0(0):26"/>
				<v:ud v:nameU="visVersion" v:val="VT0(14):26"/>
				<v:ud v:nameU="visDescription" v:val="VT4(单向或双向输入/输出端口。 )"/>
			</v:userDefs>
			<v:textBlock v:margins="rect(1,1,1,1)" v:tabSpace="42.5197" v:verticalAlign="0"/>
			<v:textRect cx="10.6299" cy="87.8325" width="36.65" height="12.8036"/>
			<path d="M0 96.89 L0 94.23 L15.94 94.23 L21.26 96.89 L15.94 99.55 L0 99.55 L0 96.89 Z" class="st5"/>
			<text x="-4.21" y="90.53" class="st2" v:langID="2052"><v:paragraph v:horizAlign="1"/><v:tabList/>clk<tspan class="st8"
						v:langID="1033">out</tspan></text>		</g>
		<g id="shape229-123" v:mID="229" v:groupContext="shape" v:layerMember="1" transform="translate(273.436,-51.6644)">
			<title>动态连接线.229</title>
			<path d="M0 106.61 L24.22 106.67" class="st4"/>
		</g>
		<g id="shape230-126" v:mID="230" v:groupContext="shape" transform="translate(135.456,-65.8671)">
			<title>工作表.230</title>
			<desc>clk1</desc>
			<v:textBlock v:margins="rect(4,4,4,4)" v:tabSpace="42.5197"/>
			<v:textRect cx="14.1732" cy="91.0453" width="28.35" height="17.0079"/>
			<rect x="0" y="82.5413" width="28.3465" height="17.0079" class="st1"/>
			<text x="4.28" y="93.75" class="st2" v:langID="1033"><v:paragraph v:horizAlign="1"/><v:tabList/>clk1</text>		</g>
		<g id="shape231-129" v:mID="231" v:groupContext="shape" transform="translate(133.851,-0.375)">
			<title>工作表.231</title>
			<desc>clk0</desc>
			<v:textBlock v:margins="rect(4,4,4,4)" v:tabSpace="42.5197"/>
			<v:textRect cx="14.1732" cy="91.0453" width="28.35" height="17.0079"/>
			<rect x="0" y="82.5413" width="28.3465" height="17.0079" class="st1"/>
			<text x="4.28" y="93.75" class="st2" v:langID="1033"><v:paragraph v:horizAlign="1"/><v:tabList/>clk0</text>		</g>
		<g id="shape202-132" v:mID="202" v:groupContext="shape" v:layerMember="1" transform="translate(119.028,-66.9301)">
			<title>动态连接线.202</title>
			<path d="M0 105.57 L10.63 107.7 L58.6 107.7" class="st4"/>
		</g>
		<g id="shape232-135" v:mID="232" v:groupContext="shape" transform="translate(135.456,-20.0404)">
			<title>工作表.232</title>
			<desc>sel0</desc>
			<v:textBlock v:margins="rect(4,4,4,4)" v:tabSpace="42.5197"/>
			<v:textRect cx="14.1732" cy="91.0453" width="28.35" height="17.0079"/>
			<rect x="0" y="82.5413" width="28.3465" height="17.0079" class="st1"/>
			<text x="4.28" y="93.75" class="st2" v:langID="1033"><v:paragraph v:horizAlign="1"/><v:tabList/>sel0</text>		</g>
		<g id="shape234-138" v:mID="234" v:groupContext="shape" transform="translate(166.627,-19.4498)">
			<title>工作表.234</title>
			<desc>G0</desc>
			<v:textBlock v:margins="rect(4,4,4,4)" v:tabSpace="42.5197"/>
			<v:textRect cx="10.6299" cy="91.0453" width="21.26" height="17.0079"/>
			<rect x="0" y="82.5413" width="21.2598" height="17.0079" class="st1"/>
			<text x="5.68" y="93.75" class="st2" v:langID="1033"><v:paragraph v:horizAlign="1"/><v:tabList/>G0</text>		</g>
		<g id="shape235-141" v:mID="235" v:groupContext="shape" transform="translate(166.982,-46.0246)">
			<title>工作表.235</title>
			<desc>G1</desc>
			<v:textBlock v:margins="rect(4,4,4,4)" v:tabSpace="42.5197"/>
			<v:textRect cx="10.6299" cy="91.0453" width="21.26" height="17.0079"/>
			<rect x="0" y="82.5413" width="21.2598" height="17.0079" class="st1"/>
			<text x="5.68" y="93.75" class="st2" v:langID="1033"><v:paragraph v:horizAlign="1"/><v:tabList/>G1</text>		</g>
		<g id="shape236-144" v:mID="236" v:groupContext="shape" transform="translate(202.06,-74.3711)">
			<title>工作表.236</title>
			<desc>part1</desc>
			<v:textBlock v:margins="rect(4,4,4,4)" v:tabSpace="42.5197"/>
			<v:textRect cx="25.6994" cy="91.0453" width="51.4" height="17.0079"/>
			<rect x="0" y="82.5413" width="51.3988" height="17.0079" class="st1"/>
			<text x="13.33" y="93.75" class="st2" v:langID="1033"><v:paragraph v:horizAlign="1"/><v:tabList/>part1</text>		</g>
		<g id="shape237-147" v:mID="237" v:groupContext="shape" transform="translate(214.58,65.8903) rotate(-82.6932) scale(1,-1)">
			<title>工作表.237</title>
			<path d="M0 99.55 L28.24 99.55" class="st9"/>
		</g>
		<g id="shape238-150" v:mID="238" v:groupContext="shape" transform="translate(214.507,102.147) rotate(-82.6932) scale(1,-1)">
			<title>工作表.238</title>
			<path d="M0 99.55 L24.78 99.55" class="st9"/>
		</g>
		<g id="shape239-153" v:mID="239" v:groupContext="shape" transform="translate(100.374,-66.3396)">
			<title>工作表.239</title>
			<desc>S1</desc>
			<v:textBlock v:margins="rect(4,4,4,4)" v:tabSpace="42.5197"/>
			<v:textRect cx="10.6299" cy="91.0453" width="21.26" height="17.0079"/>
			<rect x="0" y="82.5413" width="21.2598" height="17.0079" class="st1"/>
			<text x="5.68" y="93.75" class="st10" v:langID="1033"><v:paragraph v:horizAlign="1"/><v:tabList/>S1</text>		</g>
		<g id="shape240-156" v:mID="240" v:groupContext="shape" transform="translate(100.374,-26.8317)">
			<title>工作表.240</title>
			<desc>S0</desc>
			<v:textBlock v:margins="rect(4,4,4,4)" v:tabSpace="42.5197"/>
			<v:textRect cx="10.6299" cy="91.0453" width="21.26" height="17.0079"/>
			<rect x="0" y="82.5413" width="21.2598" height="17.0079" class="st1"/>
			<text x="5.68" y="93.75" class="st10" v:langID="1033"><v:paragraph v:horizAlign="1"/><v:tabList/>S0</text>		</g>
	</g>
</svg>
