<?xml version="1.0" encoding="UTF-8" standalone="no"?>
<!DOCTYPE svg PUBLIC "-//W3C//DTD SVG 1.1//EN" "http://www.w3.org/Graphics/SVG/1.1/DTD/svg11.dtd">
<!-- 由 Microsoft Visio, SVG Export 生成 blog.svg 页-1 -->
<svg xmlns="http://www.w3.org/2000/svg" xmlns:xlink="http://www.w3.org/1999/xlink" xmlns:ev="http://www.w3.org/2001/xml-events"
		xmlns:v="http://schemas.microsoft.com/visio/2003/SVGExtensions/" width="3.53028in" height="1.66396in"
		viewBox="0 0 254.18 119.805" xml:space="preserve" color-interpolation-filters="sRGB" class="st8">
	<v:documentProperties v:langID="2052" v:metric="true" v:viewMarkup="false"/>

	<style type="text/css">
	<![CDATA[
		.st1 {fill:#000000;stroke:none;stroke-linecap:round;stroke-linejoin:round;stroke-width:0.75}
		.st2 {stroke:#ffc000;stroke-linecap:round;stroke-linejoin:round;stroke-width:0.75}
		.st3 {stroke:#0070c0;stroke-linecap:round;stroke-linejoin:round;stroke-width:0.75}
		.st4 {fill:url(#grad0-26);stroke:none;stroke-linecap:round;stroke-linejoin:round;stroke-width:0.75}
		.st5 {fill:#000000;font-family:YaHei Consolas Hybrid;font-size:1.00001em}
		.st6 {stroke:#000000;stroke-linecap:round;stroke-linejoin:round;stroke-width:0.75}
		.st7 {fill:#000000;font-family:YaHei Consolas Hybrid;font-size:0.666664em}
		.st8 {fill:none;fill-rule:evenodd;font-size:12px;overflow:visible;stroke-linecap:square;stroke-miterlimit:3}
	]]>
	</style>

	<defs id="Patterns_And_Gradients">
		<linearGradient id="grad0-26" x1="0" y1="0" x2="1" y2="0" gradientTransform="rotate(270 0.5 0.5)">
			<stop offset="0" stop-color="#bfcee1" stop-opacity="0"/>
			<stop offset="1" stop-color="#96afcf" stop-opacity="0"/>
		</linearGradient>
	</defs>
	<g v:mID="0" v:index="1" v:groupContext="foregroundPage">
		<title>页-1</title>
		<v:pageProperties v:drawingScale="0.0393701" v:pageScale="0.0393701" v:drawingUnits="24" v:shadowOffsetX="8.50394"
				v:shadowOffsetY="-8.50394"/>
		<g id="shape1-1" v:mID="1" v:groupContext="shape" transform="translate(6.04429,-48.564)">
			<title>node</title>
			<ellipse cx="2.83465" cy="116.97" rx="2.83465" ry="2.83465" class="st1"/>
		</g>
		<g id="shape2-3" v:mID="2" v:groupContext="shape" transform="translate(119.43,-78.1786)">
			<title>node.2</title>
			<ellipse cx="2.83465" cy="116.97" rx="2.83465" ry="2.83465" class="st1"/>
		</g>
		<g id="shape3-5" v:mID="3" v:groupContext="shape" transform="translate(239.903,-81.1624)">
			<title>node.3</title>
			<ellipse cx="2.83465" cy="116.97" rx="2.83465" ry="2.83465" class="st1"/>
		</g>
		<g id="shape4-7" v:mID="4" v:groupContext="shape" transform="translate(-7.69625,-49.3652) rotate(-8.5965)">
			<title>工作表.4</title>
			<path d="M-0 119.81 A228.593 34.6868 8.6 0 1 232.74 119.81" class="st2"/>
		</g>
		<g id="shape5-10" v:mID="5" v:groupContext="shape" transform="translate(174.91,-67.668) rotate(26.7935)">
			<title>工作表.5</title>
			<path d="M0 119.81 A119.182 67.433 150.57 0 1 137.04 119.81" class="st3"/>
		</g>
		<g id="shape6-13" v:mID="6" v:groupContext="shape" transform="translate(239.903,-13.1309)">
			<title>node.6</title>
			<ellipse cx="2.83465" cy="116.97" rx="2.83465" ry="2.83465" class="st1"/>
		</g>
		<g id="shape7-15" v:mID="7" v:groupContext="shape" transform="translate(257.521,157.266) rotate(172.474)">
			<title>工作表.7</title>
			<path d="M-0 119.81 A245.06 78.046 21.6 0 1 233.63 119.81" class="st2"/>
		</g>
		<g id="shape8-18" v:mID="8" v:groupContext="shape" transform="translate(163.982,-33.4112) rotate(9.3458)">
			<title>工作表.8</title>
			<path d="M-0 119.81 A99.3196 17.2997 169.96 0 1 100.03 119.81" class="st3"/>
		</g>
		<g id="shape9-21" v:mID="9" v:groupContext="shape" transform="translate(139.273,-33.6448)">
			<title>node.9</title>
			<ellipse cx="2.83465" cy="116.97" rx="2.83465" ry="2.83465" class="st1"/>
		</g>
		<g id="shape10-23" v:mID="10" v:groupContext="shape" transform="translate(0.375,-53.5246)">
			<title>工作表.10</title>
			<desc>s</desc>
			<v:textBlock v:margins="rect(4,4,4,4)" v:tabSpace="42.5197" v:verticalAlign="0"/>
			<v:textRect cx="9.2126" cy="110.593" width="18.43" height="18.4252"/>
			<rect x="0" y="101.38" width="18.4252" height="18.4252" class="st4"/>
			<text x="4" y="116.18" class="st5" v:langID="2052"><v:paragraph/><v:tabList/>s</text>		</g>
		<g id="shape11-28" v:mID="11" v:groupContext="shape" transform="translate(106.674,-78.1786)">
			<title>工作表.11</title>
			<desc>A</desc>
			<v:textBlock v:margins="rect(4,4,4,4)" v:tabSpace="42.5197" v:verticalAlign="0"/>
			<v:textRect cx="9.2126" cy="110.593" width="18.43" height="18.4252"/>
			<rect x="0" y="101.38" width="18.4252" height="18.4252" class="st4"/>
			<text x="4" y="116.18" class="st5" v:langID="2052"><v:paragraph/><v:tabList/>A</text>		</g>
		<g id="shape12-32" v:mID="12" v:groupContext="shape" transform="translate(233.525,-88.9577)">
			<title>工作表.12</title>
			<desc>m</desc>
			<v:textBlock v:margins="rect(4,4,4,4)" v:tabSpace="42.5197" v:verticalAlign="0"/>
			<v:textRect cx="9.2126" cy="110.593" width="18.43" height="18.4252"/>
			<rect x="0" y="101.38" width="18.4252" height="18.4252" class="st4"/>
			<text x="4" y="116.18" class="st5" v:langID="2052"><v:paragraph/><v:tabList/>m</text>		</g>
		<g id="shape13-36" v:mID="13" v:groupContext="shape" transform="translate(233.525,-0.375)">
			<title>工作表.13</title>
			<desc>n</desc>
			<v:textBlock v:margins="rect(4,4,4,4)" v:tabSpace="42.5197" v:verticalAlign="0"/>
			<v:textRect cx="9.2126" cy="110.593" width="18.43" height="18.4252"/>
			<rect x="0" y="101.38" width="18.4252" height="18.4252" class="st4"/>
			<text x="4" y="116.18" class="st5" v:langID="2052"><v:paragraph/><v:tabList/>n</text>		</g>
		<g id="shape14-40" v:mID="14" v:groupContext="shape" transform="translate(132.895,-20.8889)">
			<title>工作表.14</title>
			<desc>B</desc>
			<v:textBlock v:margins="rect(4,4,4,4)" v:tabSpace="42.5197" v:verticalAlign="0"/>
			<v:textRect cx="9.2126" cy="110.593" width="18.43" height="18.4252"/>
			<rect x="0" y="101.38" width="18.4252" height="18.4252" class="st4"/>
			<text x="4" y="116.18" class="st5" v:langID="2052"><v:paragraph/><v:tabList/>B</text>		</g>
		<g id="shape15-44" v:mID="15" v:groupContext="shape" transform="translate(115.924,-80.4272) rotate(-2.38235)">
			<title>工作表.15</title>
			<path d="M-0 119.81 A132.854 48.1643 28.15 0 1 119.53 119.81" class="st2"/>
		</g>
		<g id="shape17-47" v:mID="17" v:groupContext="shape" transform="translate(242.269,157.195) rotate(179.104)">
			<title>工作表.17</title>
			<path d="M0 119.81 C3.93 119.23 6.97 116.72 10.11 114.67 C25.93 104.32 44.39 105.56 63.35 105.2 C86.05 104.78 109.47
						 102.07 119.51 119.81" class="st2"/>
		</g>
		<g id="shape18-50" v:mID="18" v:groupContext="shape" transform="translate(162.728,-25.7941) rotate(9.3458)">
			<title>工作表.18</title>
			<path d="M0 112.09 C1.48 114.84 4.05 115.75 6.61 116.5 C19.8 120.38 32.78 120.08 46.16 119.47 C63.6 118.68 81.74 117.34
						 100.03 112.09" class="st3"/>
		</g>
		<g id="shape34-53" v:mID="34" v:groupContext="shape" transform="translate(23.8234,-47.2841) rotate(6.67112)">
			<title>工作表.34</title>
			<path d="M0 117.17 C19.98 118.07 40.09 118.87 60.28 119.42 C83.46 120.04 106.75 120.33 135.23 117.17" class="st6"/>
		</g>
		<g id="shape37-56" v:mID="37" v:groupContext="shape" transform="translate(-20.9518,-46.5871) rotate(-15.077)">
			<title>工作表.37</title>
			<path d="M0 119.81 A109.117 22.8087 11.11 0 1 114.64 119.81" class="st6"/>
		</g>
		<g id="shape39-59" v:mID="39" v:groupContext="shape" transform="translate(94.0067,-29.2345) rotate(-23.6708)">
			<title>工作表.39</title>
			<path d="M-0 119.81 A89.2689 15.1088 6.11 0 1 107.32 119.81" class="st2"/>
		</g>
		<g id="shape40-62" v:mID="40" v:groupContext="shape" transform="translate(149.194,-101.005)">
			<title>工作表.40</title>
			<desc>1</desc>
			<v:textBlock v:margins="rect(4,4,4,4)" v:tabSpace="42.5197" v:verticalAlign="0"/>
			<v:textRect cx="18.4252" cy="110.593" width="36.86" height="18.4252"/>
			<rect x="0" y="101.38" width="36.8504" height="18.4252" class="st4"/>
			<text x="4" y="112.58" class="st7" v:langID="2052"><v:paragraph/><v:tabList/>1</text>		</g>
		<g id="shape41-66" v:mID="41" v:groupContext="shape" transform="translate(175.414,-78.1786)">
			<title>工作表.41</title>
			<desc>2</desc>
			<v:textBlock v:margins="rect(4,4,4,4)" v:tabSpace="42.5197" v:verticalAlign="0"/>
			<v:textRect cx="18.4252" cy="110.593" width="36.86" height="18.4252"/>
			<rect x="0" y="101.38" width="36.8504" height="18.4252" class="st4"/>
			<text x="4" y="112.58" class="st7" v:langID="2052"><v:paragraph/><v:tabList/>2</text>		</g>
		<g id="shape42-70" v:mID="42" v:groupContext="shape" transform="translate(175.414,-65.4227)">
			<title>工作表.42</title>
			<desc>3</desc>
			<v:textBlock v:margins="rect(4,4,4,4)" v:tabSpace="42.5197" v:verticalAlign="0"/>
			<v:textRect cx="18.4252" cy="110.593" width="36.86" height="18.4252"/>
			<rect x="0" y="101.38" width="36.8504" height="18.4252" class="st4"/>
			<text x="4" y="112.58" class="st7" v:langID="2052"><v:paragraph/><v:tabList/>3</text>		</g>
		<g id="shape43-74" v:mID="43" v:groupContext="shape" transform="translate(123.682,-57.7393)">
			<title>工作表.43</title>
			<desc>4</desc>
			<v:textBlock v:margins="rect(4,4,4,4)" v:tabSpace="42.5197" v:verticalAlign="0"/>
			<v:textRect cx="18.4252" cy="110.593" width="36.86" height="18.4252"/>
			<rect x="0" y="101.38" width="36.8504" height="18.4252" class="st4"/>
			<text x="4" y="112.58" class="st7" v:langID="2052"><v:paragraph/><v:tabList/>4</text>		</g>
		<g id="shape44-78" v:mID="44" v:groupContext="shape" transform="translate(146.359,-40.06)">
			<title>工作表.44</title>
			<desc>5</desc>
			<v:textBlock v:margins="rect(4,4,4,4)" v:tabSpace="42.5197" v:verticalAlign="0"/>
			<v:textRect cx="18.4252" cy="110.593" width="36.86" height="18.4252"/>
			<rect x="0" y="101.38" width="36.8504" height="18.4252" class="st4"/>
			<text x="4" y="112.58" class="st7" v:langID="2052"><v:paragraph/><v:tabList/>5</text>		</g>
		<g id="shape45-82" v:mID="45" v:groupContext="shape" transform="translate(194.548,-40.06)">
			<title>工作表.45</title>
			<desc>6</desc>
			<v:textBlock v:margins="rect(4,4,4,4)" v:tabSpace="42.5197" v:verticalAlign="0"/>
			<v:textRect cx="18.4252" cy="110.593" width="36.86" height="18.4252"/>
			<rect x="0" y="101.38" width="36.8504" height="18.4252" class="st4"/>
			<text x="4" y="112.58" class="st7" v:langID="2052"><v:paragraph/><v:tabList/>6</text>		</g>
		<g id="shape46-86" v:mID="46" v:groupContext="shape" transform="translate(208.721,-24.4695)">
			<title>工作表.46</title>
			<desc>7</desc>
			<v:textBlock v:margins="rect(4,4,4,4)" v:tabSpace="42.5197" v:verticalAlign="0"/>
			<v:textRect cx="18.4252" cy="110.593" width="36.86" height="18.4252"/>
			<rect x="0" y="101.38" width="36.8504" height="18.4252" class="st4"/>
			<text x="4" y="112.58" class="st7" v:langID="2052"><v:paragraph/><v:tabList/>7</text>		</g>
		<g id="shape47-90" v:mID="47" v:groupContext="shape" transform="translate(180.375,-6.75295)">
			<title>工作表.47</title>
			<desc>8</desc>
			<v:textBlock v:margins="rect(4,4,4,4)" v:tabSpace="42.5197" v:verticalAlign="0"/>
			<v:textRect cx="18.4252" cy="110.593" width="36.86" height="18.4252"/>
			<rect x="0" y="101.38" width="36.8504" height="18.4252" class="st4"/>
			<text x="4" y="112.58" class="st7" v:langID="2052"><v:paragraph/><v:tabList/>8</text>		</g>
	</g>
</svg>
